<svg width="309.563mm" height="128.588mm" viewBox="0 0 309.563 128.588" xmlns="http://www.w3.org/2000/svg"><g id="svgGroup" stroke-linecap="round" fill-rule="evenodd" font-size="9pt" stroke="#000" stroke-width="0.25mm" fill="none" style="stroke:#000;stroke-width:0.25mm;fill:none"><path d="M 0 128.588 L 309.563 128.588 L 309.563 0 L 0 0 L 0 128.588 Z M 245.913 2.525 L 258.913 2.525 A 0.5 0.5 0 0 1 259.413 3.025 L 259.413 16.025 A 0.5 0.5 0 0 1 258.913 16.525 L 245.913 16.525 A 0.5 0.5 0 0 1 245.413 16.025 L 245.413 3.025 A 0.5 0.5 0 0 1 245.913 2.525 Z M 22.075 31.1 L 35.075 31.1 A 0.5 0.5 0 0 1 35.575 31.6 L 35.575 44.6 A 0.5 0.5 0 0 1 35.075 45.1 L 22.075 45.1 A 0.5 0.5 0 0 1 21.575 44.6 L 21.575 31.6 A 0.5 0.5 0 0 1 22.075 31.1 Z M 41.125 31.1 L 54.125 31.1 A 0.5 0.5 0 0 1 54.625 31.6 L 54.625 44.6 A 0.5 0.5 0 0 1 54.125 45.1 L 41.125 45.1 A 0.5 0.5 0 0 1 40.625 44.6 L 40.625 31.6 A 0.5 0.5 0 0 1 41.125 31.1 Z M 60.175 31.1 L 73.175 31.1 A 0.5 0.5 0 0 1 73.675 31.6 L 73.675 44.6 A 0.5 0.5 0 0 1 73.175 45.1 L 60.175 45.1 A 0.5 0.5 0 0 1 59.675 44.6 L 59.675 31.6 A 0.5 0.5 0 0 1 60.175 31.1 Z M 79.225 31.1 L 92.225 31.1 A 0.5 0.5 0 0 1 92.725 31.6 L 92.725 44.6 A 0.5 0.5 0 0 1 92.225 45.1 L 79.225 45.1 A 0.5 0.5 0 0 1 78.725 44.6 L 78.725 31.6 A 0.5 0.5 0 0 1 79.225 31.1 Z M 98.275 31.1 L 111.275 31.1 A 0.5 0.5 0 0 1 111.775 31.6 L 111.775 44.6 A 0.5 0.5 0 0 1 111.275 45.1 L 98.275 45.1 A 0.5 0.5 0 0 1 97.775 44.6 L 97.775 31.6 A 0.5 0.5 0 0 1 98.275 31.1 Z M 136.375 31.1 L 149.375 31.1 A 0.5 0.5 0 0 1 149.875 31.6 L 149.875 44.6 A 0.5 0.5 0 0 1 149.375 45.1 L 136.375 45.1 A 0.5 0.5 0 0 1 135.875 44.6 L 135.875 31.6 A 0.5 0.5 0 0 1 136.375 31.1 Z M 155.425 31.1 L 168.425 31.1 A 0.5 0.5 0 0 1 168.925 31.6 L 168.925 44.6 A 0.5 0.5 0 0 1 168.425 45.1 L 155.425 45.1 A 0.5 0.5 0 0 1 154.925 44.6 L 154.925 31.6 A 0.5 0.5 0 0 1 155.425 31.1 Z M 174.475 31.1 L 187.475 31.1 A 0.5 0.5 0 0 1 187.975 31.6 L 187.975 44.6 A 0.5 0.5 0 0 1 187.475 45.1 L 174.475 45.1 A 0.5 0.5 0 0 1 173.975 44.6 L 173.975 31.6 A 0.5 0.5 0 0 1 174.475 31.1 Z M 193.525 31.1 L 206.525 31.1 A 0.5 0.5 0 0 1 207.025 31.6 L 207.025 44.6 A 0.5 0.5 0 0 1 206.525 45.1 L 193.525 45.1 A 0.5 0.5 0 0 1 193.025 44.6 L 193.025 31.6 A 0.5 0.5 0 0 1 193.525 31.1 Z M 212.575 31.1 L 225.575 31.1 A 0.5 0.5 0 0 1 226.075 31.6 L 226.075 44.6 A 0.5 0.5 0 0 1 225.575 45.1 L 212.575 45.1 A 0.5 0.5 0 0 1 212.075 44.6 L 212.075 31.6 A 0.5 0.5 0 0 1 212.575 31.1 Z M 231.625 31.1 L 244.625 31.1 A 0.5 0.5 0 0 1 245.125 31.6 L 245.125 44.6 A 0.5 0.5 0 0 1 244.625 45.1 L 231.625 45.1 A 0.5 0.5 0 0 1 231.125 44.6 L 231.125 31.6 A 0.5 0.5 0 0 1 231.625 31.1 Z M 260.2 31.1 L 273.2 31.1 A 0.5 0.5 0 0 1 273.7 31.6 L 273.7 44.6 A 0.5 0.5 0 0 1 273.2 45.1 L 260.2 45.1 A 0.5 0.5 0 0 1 259.7 44.6 L 259.7 31.6 A 0.5 0.5 0 0 1 260.2 31.1 Z M 293.538 31.1 L 306.538 31.1 A 0.5 0.5 0 0 1 307.038 31.6 L 307.038 44.6 A 0.5 0.5 0 0 1 306.538 45.1 L 293.538 45.1 A 0.5 0.5 0 0 1 293.038 44.6 L 293.038 31.6 A 0.5 0.5 0 0 1 293.538 31.1 Z M 7.788 50.15 L 20.788 50.15 A 0.5 0.5 0 0 1 21.288 50.65 L 21.288 63.65 A 0.5 0.5 0 0 1 20.788 64.15 L 7.788 64.15 A 0.5 0.5 0 0 1 7.288 63.65 L 7.288 50.65 A 0.5 0.5 0 0 1 7.788 50.15 Z M 31.6 50.15 L 44.6 50.15 A 0.5 0.5 0 0 1 45.1 50.65 L 45.1 63.65 A 0.5 0.5 0 0 1 44.6 64.15 L 31.6 64.15 A 0.5 0.5 0 0 1 31.1 63.65 L 31.1 50.65 A 0.5 0.5 0 0 1 31.6 50.15 Z M 50.65 50.15 L 63.65 50.15 A 0.5 0.5 0 0 1 64.15 50.65 L 64.15 63.65 A 0.5 0.5 0 0 1 63.65 64.15 L 50.65 64.15 A 0.5 0.5 0 0 1 50.15 63.65 L 50.15 50.65 A 0.5 0.5 0 0 1 50.65 50.15 Z M 69.7 50.15 L 82.7 50.15 A 0.5 0.5 0 0 1 83.2 50.65 L 83.2 63.65 A 0.5 0.5 0 0 1 82.7 64.15 L 69.7 64.15 A 0.5 0.5 0 0 1 69.2 63.65 L 69.2 50.65 A 0.5 0.5 0 0 1 69.7 50.15 Z M 88.75 50.15 L 101.75 50.15 A 0.5 0.5 0 0 1 102.25 50.65 L 102.25 63.65 A 0.5 0.5 0 0 1 101.75 64.15 L 88.75 64.15 A 0.5 0.5 0 0 1 88.25 63.65 L 88.25 50.65 A 0.5 0.5 0 0 1 88.75 50.15 Z M 107.8 50.15 L 120.8 50.15 A 0.5 0.5 0 0 1 121.3 50.65 L 121.3 63.65 A 0.5 0.5 0 0 1 120.8 64.15 L 107.8 64.15 A 0.5 0.5 0 0 1 107.3 63.65 L 107.3 50.65 A 0.5 0.5 0 0 1 107.8 50.15 Z M 126.85 50.15 L 139.85 50.15 A 0.5 0.5 0 0 1 140.35 50.65 L 140.35 63.65 A 0.5 0.5 0 0 1 139.85 64.15 L 126.85 64.15 A 0.5 0.5 0 0 1 126.35 63.65 L 126.35 50.65 A 0.5 0.5 0 0 1 126.85 50.15 Z M 145.9 50.15 L 158.9 50.15 A 0.5 0.5 0 0 1 159.4 50.65 L 159.4 63.65 A 0.5 0.5 0 0 1 158.9 64.15 L 145.9 64.15 A 0.5 0.5 0 0 1 145.4 63.65 L 145.4 50.65 A 0.5 0.5 0 0 1 145.9 50.15 Z M 164.95 50.15 L 177.95 50.15 A 0.5 0.5 0 0 1 178.45 50.65 L 178.45 63.65 A 0.5 0.5 0 0 1 177.95 64.15 L 164.95 64.15 A 0.5 0.5 0 0 1 164.45 63.65 L 164.45 50.65 A 0.5 0.5 0 0 1 164.95 50.15 Z M 184 50.15 L 197 50.15 A 0.5 0.5 0 0 1 197.5 50.65 L 197.5 63.65 A 0.5 0.5 0 0 1 197 64.15 L 184 64.15 A 0.5 0.5 0 0 1 183.5 63.65 L 183.5 50.65 A 0.5 0.5 0 0 1 184 50.15 Z M 203.05 50.15 L 216.05 50.15 A 0.5 0.5 0 0 1 216.55 50.65 L 216.55 63.65 A 0.5 0.5 0 0 1 216.05 64.15 L 203.05 64.15 A 0.5 0.5 0 0 1 202.55 63.65 L 202.55 50.65 A 0.5 0.5 0 0 1 203.05 50.15 Z M 222.1 50.15 L 235.1 50.15 A 0.5 0.5 0 0 1 235.6 50.65 L 235.6 63.65 A 0.5 0.5 0 0 1 235.1 64.15 L 222.1 64.15 A 0.5 0.5 0 0 1 221.6 63.65 L 221.6 50.65 A 0.5 0.5 0 0 1 222.1 50.15 Z M 241.15 50.15 L 254.15 50.15 A 0.5 0.5 0 0 1 254.65 50.65 L 254.65 63.65 A 0.5 0.5 0 0 1 254.15 64.15 L 241.15 64.15 A 0.5 0.5 0 0 1 240.65 63.65 L 240.65 50.65 A 0.5 0.5 0 0 1 241.15 50.15 Z M 264.963 50.15 L 277.963 50.15 A 0.5 0.5 0 0 1 278.463 50.65 L 278.463 63.65 A 0.5 0.5 0 0 1 277.963 64.15 L 264.963 64.15 A 0.5 0.5 0 0 1 264.463 63.65 L 264.463 50.65 A 0.5 0.5 0 0 1 264.963 50.15 Z M 293.538 50.15 L 306.538 50.15 A 0.5 0.5 0 0 1 307.038 50.65 L 307.038 63.65 A 0.5 0.5 0 0 1 306.538 64.15 L 293.538 64.15 A 0.5 0.5 0 0 1 293.038 63.65 L 293.038 50.65 A 0.5 0.5 0 0 1 293.538 50.15 Z M 10.169 69.2 L 23.169 69.2 A 0.5 0.5 0 0 1 23.669 69.7 L 23.669 82.7 A 0.5 0.5 0 0 1 23.169 83.2 L 10.169 83.2 A 0.5 0.5 0 0 1 9.669 82.7 L 9.669 69.7 A 0.5 0.5 0 0 1 10.169 69.2 Z M 36.363 69.2 L 49.363 69.2 A 0.5 0.5 0 0 1 49.863 69.7 L 49.863 82.7 A 0.5 0.5 0 0 1 49.363 83.2 L 36.363 83.2 A 0.5 0.5 0 0 1 35.863 82.7 L 35.863 69.7 A 0.5 0.5 0 0 1 36.363 69.2 Z M 74.463 69.2 L 87.463 69.2 A 0.5 0.5 0 0 1 87.963 69.7 L 87.963 82.7 A 0.5 0.5 0 0 1 87.463 83.2 L 74.463 83.2 A 0.5 0.5 0 0 1 73.963 82.7 L 73.963 69.7 A 0.5 0.5 0 0 1 74.463 69.2 Z M 93.513 69.2 L 106.513 69.2 A 0.5 0.5 0 0 1 107.013 69.7 L 107.013 82.7 A 0.5 0.5 0 0 1 106.513 83.2 L 93.513 83.2 A 0.5 0.5 0 0 1 93.013 82.7 L 93.013 69.7 A 0.5 0.5 0 0 1 93.513 69.2 Z M 112.563 69.2 L 125.563 69.2 A 0.5 0.5 0 0 1 126.063 69.7 L 126.063 82.7 A 0.5 0.5 0 0 1 125.563 83.2 L 112.563 83.2 A 0.5 0.5 0 0 1 112.063 82.7 L 112.063 69.7 A 0.5 0.5 0 0 1 112.563 69.2 Z M 131.613 69.2 L 144.613 69.2 A 0.5 0.5 0 0 1 145.113 69.7 L 145.113 82.7 A 0.5 0.5 0 0 1 144.613 83.2 L 131.613 83.2 A 0.5 0.5 0 0 1 131.113 82.7 L 131.113 69.7 A 0.5 0.5 0 0 1 131.613 69.2 Z M 150.663 69.2 L 163.663 69.2 A 0.5 0.5 0 0 1 164.163 69.7 L 164.163 82.7 A 0.5 0.5 0 0 1 163.663 83.2 L 150.663 83.2 A 0.5 0.5 0 0 1 150.163 82.7 L 150.163 69.7 A 0.5 0.5 0 0 1 150.663 69.2 Z M 169.713 69.2 L 182.713 69.2 A 0.5 0.5 0 0 1 183.213 69.7 L 183.213 82.7 A 0.5 0.5 0 0 1 182.713 83.2 L 169.713 83.2 A 0.5 0.5 0 0 1 169.213 82.7 L 169.213 69.7 A 0.5 0.5 0 0 1 169.713 69.2 Z M 188.763 69.2 L 201.763 69.2 A 0.5 0.5 0 0 1 202.263 69.7 L 202.263 82.7 A 0.5 0.5 0 0 1 201.763 83.2 L 188.763 83.2 A 0.5 0.5 0 0 1 188.263 82.7 L 188.263 69.7 A 0.5 0.5 0 0 1 188.763 69.2 Z M 207.813 69.2 L 220.813 69.2 A 0.5 0.5 0 0 1 221.313 69.7 L 221.313 82.7 A 0.5 0.5 0 0 1 220.813 83.2 L 207.813 83.2 A 0.5 0.5 0 0 1 207.313 82.7 L 207.313 69.7 A 0.5 0.5 0 0 1 207.813 69.2 Z M 226.863 69.2 L 239.863 69.2 A 0.5 0.5 0 0 1 240.363 69.7 L 240.363 82.7 A 0.5 0.5 0 0 1 239.863 83.2 L 226.863 83.2 A 0.5 0.5 0 0 1 226.363 82.7 L 226.363 69.7 A 0.5 0.5 0 0 1 226.863 69.2 Z M 257.819 69.2 L 270.819 69.2 A 0.5 0.5 0 0 1 271.319 69.7 L 271.319 82.7 A 0.5 0.5 0 0 1 270.819 83.2 L 257.819 83.2 A 0.5 0.5 0 0 1 257.319 82.7 L 257.319 69.7 A 0.5 0.5 0 0 1 257.819 69.2 Z M 293.538 69.2 L 306.538 69.2 A 0.5 0.5 0 0 1 307.038 69.7 L 307.038 82.7 A 0.5 0.5 0 0 1 306.538 83.2 L 293.538 83.2 A 0.5 0.5 0 0 1 293.038 82.7 L 293.038 69.7 A 0.5 0.5 0 0 1 293.538 69.2 Z M 14.931 88.25 L 27.931 88.25 A 0.5 0.5 0 0 1 28.431 88.75 L 28.431 101.75 A 0.5 0.5 0 0 1 27.931 102.25 L 14.931 102.25 A 0.5 0.5 0 0 1 14.431 101.75 L 14.431 88.75 A 0.5 0.5 0 0 1 14.931 88.25 Z M 45.888 88.25 L 58.888 88.25 A 0.5 0.5 0 0 1 59.388 88.75 L 59.388 101.75 A 0.5 0.5 0 0 1 58.888 102.25 L 45.888 102.25 A 0.5 0.5 0 0 1 45.388 101.75 L 45.388 88.75 A 0.5 0.5 0 0 1 45.888 88.25 Z M 64.938 88.25 L 77.938 88.25 A 0.5 0.5 0 0 1 78.438 88.75 L 78.438 101.75 A 0.5 0.5 0 0 1 77.938 102.25 L 64.938 102.25 A 0.5 0.5 0 0 1 64.438 101.75 L 64.438 88.75 A 0.5 0.5 0 0 1 64.938 88.25 Z M 83.988 88.25 L 96.988 88.25 A 0.5 0.5 0 0 1 97.488 88.75 L 97.488 101.75 A 0.5 0.5 0 0 1 96.988 102.25 L 83.988 102.25 A 0.5 0.5 0 0 1 83.488 101.75 L 83.488 88.75 A 0.5 0.5 0 0 1 83.988 88.25 Z M 103.038 88.25 L 116.038 88.25 A 0.5 0.5 0 0 1 116.538 88.75 L 116.538 101.75 A 0.5 0.5 0 0 1 116.038 102.25 L 103.038 102.25 A 0.5 0.5 0 0 1 102.538 101.75 L 102.538 88.75 A 0.5 0.5 0 0 1 103.038 88.25 Z M 122.088 88.25 L 135.088 88.25 A 0.5 0.5 0 0 1 135.588 88.75 L 135.588 101.75 A 0.5 0.5 0 0 1 135.088 102.25 L 122.088 102.25 A 0.5 0.5 0 0 1 121.588 101.75 L 121.588 88.75 A 0.5 0.5 0 0 1 122.088 88.25 Z M 141.138 88.25 L 154.138 88.25 A 0.5 0.5 0 0 1 154.638 88.75 L 154.638 101.75 A 0.5 0.5 0 0 1 154.138 102.25 L 141.138 102.25 A 0.5 0.5 0 0 1 140.638 101.75 L 140.638 88.75 A 0.5 0.5 0 0 1 141.138 88.25 Z M 160.188 88.25 L 173.188 88.25 A 0.5 0.5 0 0 1 173.688 88.75 L 173.688 101.75 A 0.5 0.5 0 0 1 173.188 102.25 L 160.188 102.25 A 0.5 0.5 0 0 1 159.688 101.75 L 159.688 88.75 A 0.5 0.5 0 0 1 160.188 88.25 Z M 179.238 88.25 L 192.238 88.25 A 0.5 0.5 0 0 1 192.738 88.75 L 192.738 101.75 A 0.5 0.5 0 0 1 192.238 102.25 L 179.238 102.25 A 0.5 0.5 0 0 1 178.738 101.75 L 178.738 88.75 A 0.5 0.5 0 0 1 179.238 88.25 Z M 198.288 88.25 L 211.288 88.25 A 0.5 0.5 0 0 1 211.788 88.75 L 211.788 101.75 A 0.5 0.5 0 0 1 211.288 102.25 L 198.288 102.25 A 0.5 0.5 0 0 1 197.788 101.75 L 197.788 88.75 A 0.5 0.5 0 0 1 198.288 88.25 Z M 217.338 88.25 L 230.338 88.25 A 0.5 0.5 0 0 1 230.838 88.75 L 230.838 101.75 A 0.5 0.5 0 0 1 230.338 102.25 L 217.338 102.25 A 0.5 0.5 0 0 1 216.838 101.75 L 216.838 88.75 A 0.5 0.5 0 0 1 217.338 88.25 Z M 243.531 88.25 L 256.531 88.25 A 0.5 0.5 0 0 1 257.031 88.75 L 257.031 101.75 A 0.5 0.5 0 0 1 256.531 102.25 L 243.531 102.25 A 0.5 0.5 0 0 1 243.031 101.75 L 243.031 88.75 A 0.5 0.5 0 0 1 243.531 88.25 Z M 274.488 93.013 L 287.488 93.013 A 0.5 0.5 0 0 1 287.988 93.513 L 287.988 106.513 A 0.5 0.5 0 0 1 287.488 107.013 L 274.488 107.013 A 0.5 0.5 0 0 1 273.988 106.513 L 273.988 93.513 A 0.5 0.5 0 0 1 274.488 93.013 Z M 5.406 107.3 L 18.406 107.3 A 0.5 0.5 0 0 1 18.906 107.8 L 18.906 120.8 A 0.5 0.5 0 0 1 18.406 121.3 L 5.406 121.3 A 0.5 0.5 0 0 1 4.906 120.8 L 4.906 107.8 A 0.5 0.5 0 0 1 5.406 107.3 Z M 29.219 107.3 L 42.219 107.3 A 0.5 0.5 0 0 1 42.719 107.8 L 42.719 120.8 A 0.5 0.5 0 0 1 42.219 121.3 L 29.219 121.3 A 0.5 0.5 0 0 1 28.719 120.8 L 28.719 107.8 A 0.5 0.5 0 0 1 29.219 107.3 Z M 53.031 107.3 L 66.031 107.3 A 0.5 0.5 0 0 1 66.531 107.8 L 66.531 120.8 A 0.5 0.5 0 0 1 66.031 121.3 L 53.031 121.3 A 0.5 0.5 0 0 1 52.531 120.8 L 52.531 107.8 A 0.5 0.5 0 0 1 53.031 107.3 Z M 124.469 107.3 L 137.469 107.3 A 0.5 0.5 0 0 1 137.969 107.8 L 137.969 120.8 A 0.5 0.5 0 0 1 137.469 121.3 L 124.469 121.3 A 0.5 0.5 0 0 1 123.969 120.8 L 123.969 107.8 A 0.5 0.5 0 0 1 124.469 107.3 Z M 193.525 107.3 L 206.525 107.3 A 0.5 0.5 0 0 1 207.025 107.8 L 207.025 120.8 A 0.5 0.5 0 0 1 206.525 121.3 L 193.525 121.3 A 0.5 0.5 0 0 1 193.025 120.8 L 193.025 107.8 A 0.5 0.5 0 0 1 193.525 107.3 Z M 212.575 107.3 L 225.575 107.3 A 0.5 0.5 0 0 1 226.075 107.8 L 226.075 120.8 A 0.5 0.5 0 0 1 225.575 121.3 L 212.575 121.3 A 0.5 0.5 0 0 1 212.075 120.8 L 212.075 107.8 A 0.5 0.5 0 0 1 212.575 107.3 Z M 231.625 107.3 L 244.625 107.3 A 0.5 0.5 0 0 1 245.125 107.8 L 245.125 120.8 A 0.5 0.5 0 0 1 244.625 121.3 L 231.625 121.3 A 0.5 0.5 0 0 1 231.125 120.8 L 231.125 107.8 A 0.5 0.5 0 0 1 231.625 107.3 Z M 255.438 112.063 L 268.438 112.063 A 0.5 0.5 0 0 1 268.938 112.563 L 268.938 125.563 A 0.5 0.5 0 0 1 268.438 126.063 L 255.438 126.063 A 0.5 0.5 0 0 1 254.938 125.563 L 254.938 112.563 A 0.5 0.5 0 0 1 255.438 112.063 Z M 274.488 112.063 L 287.488 112.063 A 0.5 0.5 0 0 1 287.988 112.563 L 287.988 125.563 A 0.5 0.5 0 0 1 287.488 126.063 L 274.488 126.063 A 0.5 0.5 0 0 1 273.988 125.563 L 273.988 112.563 A 0.5 0.5 0 0 1 274.488 112.063 Z M 293.538 112.063 L 306.538 112.063 A 0.5 0.5 0 0 1 307.038 112.563 L 307.038 125.563 A 0.5 0.5 0 0 1 306.538 126.063 L 293.538 126.063 A 0.5 0.5 0 0 1 293.038 125.563 L 293.038 112.563 A 0.5 0.5 0 0 1 293.538 112.063 Z M 3.025 2.525 L 16.025 2.525 A 0.5 0.5 0 0 1 16.525 3.025 L 16.525 16.025 A 0.5 0.5 0 0 1 16.025 16.525 L 3.025 16.525 A 0.5 0.5 0 0 1 2.525 16.025 L 2.525 3.025 A 0.5 0.5 0 0 1 3.025 2.525 Z M 26.838 2.525 L 39.838 2.525 A 0.5 0.5 0 0 1 40.338 3.025 L 40.338 16.025 A 0.5 0.5 0 0 1 39.838 16.525 L 26.838 16.525 A 0.5 0.5 0 0 1 26.338 16.025 L 26.338 3.025 A 0.5 0.5 0 0 1 26.838 2.525 Z M 45.888 2.525 L 58.888 2.525 A 0.5 0.5 0 0 1 59.388 3.025 L 59.388 16.025 A 0.5 0.5 0 0 1 58.888 16.525 L 45.888 16.525 A 0.5 0.5 0 0 1 45.388 16.025 L 45.388 3.025 A 0.5 0.5 0 0 1 45.888 2.525 Z M 64.938 2.525 L 77.938 2.525 A 0.5 0.5 0 0 1 78.438 3.025 L 78.438 16.025 A 0.5 0.5 0 0 1 77.938 16.525 L 64.938 16.525 A 0.5 0.5 0 0 1 64.438 16.025 L 64.438 3.025 A 0.5 0.5 0 0 1 64.938 2.525 Z M 83.988 2.525 L 96.988 2.525 A 0.5 0.5 0 0 1 97.488 3.025 L 97.488 16.025 A 0.5 0.5 0 0 1 96.988 16.525 L 83.988 16.525 A 0.5 0.5 0 0 1 83.488 16.025 L 83.488 3.025 A 0.5 0.5 0 0 1 83.988 2.525 Z M 107.8 2.525 L 120.8 2.525 A 0.5 0.5 0 0 1 121.3 3.025 L 121.3 16.025 A 0.5 0.5 0 0 1 120.8 16.525 L 107.8 16.525 A 0.5 0.5 0 0 1 107.3 16.025 L 107.3 3.025 A 0.5 0.5 0 0 1 107.8 2.525 Z M 126.85 2.525 L 139.85 2.525 A 0.5 0.5 0 0 1 140.35 3.025 L 140.35 16.025 A 0.5 0.5 0 0 1 139.85 16.525 L 126.85 16.525 A 0.5 0.5 0 0 1 126.35 16.025 L 126.35 3.025 A 0.5 0.5 0 0 1 126.85 2.525 Z M 145.9 2.525 L 158.9 2.525 A 0.5 0.5 0 0 1 159.4 3.025 L 159.4 16.025 A 0.5 0.5 0 0 1 158.9 16.525 L 145.9 16.525 A 0.5 0.5 0 0 1 145.4 16.025 L 145.4 3.025 A 0.5 0.5 0 0 1 145.9 2.525 Z M 164.95 2.525 L 177.95 2.525 A 0.5 0.5 0 0 1 178.45 3.025 L 178.45 16.025 A 0.5 0.5 0 0 1 177.95 16.525 L 164.95 16.525 A 0.5 0.5 0 0 1 164.45 16.025 L 164.45 3.025 A 0.5 0.5 0 0 1 164.95 2.525 Z M 188.763 2.525 L 201.763 2.525 A 0.5 0.5 0 0 1 202.263 3.025 L 202.263 16.025 A 0.5 0.5 0 0 1 201.763 16.525 L 188.763 16.525 A 0.5 0.5 0 0 1 188.263 16.025 L 188.263 3.025 A 0.5 0.5 0 0 1 188.763 2.525 Z M 207.813 2.525 L 220.813 2.525 A 0.5 0.5 0 0 1 221.313 3.025 L 221.313 16.025 A 0.5 0.5 0 0 1 220.813 16.525 L 207.813 16.525 A 0.5 0.5 0 0 1 207.313 16.025 L 207.313 3.025 A 0.5 0.5 0 0 1 207.813 2.525 Z M 226.863 2.525 L 239.863 2.525 A 0.5 0.5 0 0 1 240.363 3.025 L 240.363 16.025 A 0.5 0.5 0 0 1 239.863 16.525 L 226.863 16.525 A 0.5 0.5 0 0 1 226.363 16.025 L 226.363 3.025 A 0.5 0.5 0 0 1 226.863 2.525 Z M 269.725 2.525 L 282.725 2.525 A 0.5 0.5 0 0 1 283.225 3.025 L 283.225 16.025 A 0.5 0.5 0 0 1 282.725 16.525 L 269.725 16.525 A 0.5 0.5 0 0 1 269.225 16.025 L 269.225 3.025 A 0.5 0.5 0 0 1 269.725 2.525 Z M 293.538 2.525 L 306.538 2.525 A 0.5 0.5 0 0 1 307.038 3.025 L 307.038 16.025 A 0.5 0.5 0 0 1 306.538 16.525 L 293.538 16.525 A 0.5 0.5 0 0 1 293.038 16.025 L 293.038 3.025 A 0.5 0.5 0 0 1 293.538 2.525 Z M 3.025 31.1 L 16.025 31.1 A 0.5 0.5 0 0 1 16.525 31.6 L 16.525 44.6 A 0.5 0.5 0 0 1 16.025 45.1 L 3.025 45.1 A 0.5 0.5 0 0 1 2.525 44.6 L 2.525 31.6 A 0.5 0.5 0 0 1 3.025 31.1 Z M 55.413 69.2 L 68.413 69.2 A 0.5 0.5 0 0 1 68.913 69.7 L 68.913 82.7 A 0.5 0.5 0 0 1 68.413 83.2 L 55.413 83.2 A 0.5 0.5 0 0 1 54.913 82.7 L 54.913 69.7 A 0.5 0.5 0 0 1 55.413 69.2 Z M 117.325 31.1 L 130.325 31.1 A 0.5 0.5 0 0 1 130.825 31.6 L 130.825 44.6 A 0.5 0.5 0 0 1 130.325 45.1 L 117.325 45.1 A 0.5 0.5 0 0 1 116.825 44.6 L 116.825 31.6 A 0.5 0.5 0 0 1 117.325 31.1 Z M 251.762 32.1 L 257.762 32.1 A 0.5 0.5 0 0 1 258.262 32.6 L 258.262 46.6 A 0.5 0.5 0 0 1 257.762 47.1 L 251.762 47.1 A 0.5 0.5 0 0 1 251.262 46.6 L 251.262 32.6 A 0.5 0.5 0 0 1 251.762 32.1 Z M 275.638 32.1 L 281.638 32.1 A 0.5 0.5 0 0 1 282.138 32.6 L 282.138 46.6 A 0.5 0.5 0 0 1 281.638 47.1 L 275.638 47.1 A 0.5 0.5 0 0 1 275.138 46.6 L 275.138 32.6 A 0.5 0.5 0 0 1 275.638 32.1 Z M 249.381 70.2 L 255.381 70.2 A 0.5 0.5 0 0 1 255.881 70.7 L 255.881 84.7 A 0.5 0.5 0 0 1 255.381 85.2 L 249.381 85.2 A 0.5 0.5 0 0 1 248.881 84.7 L 248.881 70.7 A 0.5 0.5 0 0 1 249.381 70.2 Z M 273.257 70.2 L 279.257 70.2 A 0.5 0.5 0 0 1 279.757 70.7 L 279.757 84.7 A 0.5 0.5 0 0 1 279.257 85.2 L 273.257 85.2 A 0.5 0.5 0 0 1 272.757 84.7 L 272.757 70.7 A 0.5 0.5 0 0 1 273.257 70.2 Z M 6.493 89.25 L 12.493 89.25 A 0.5 0.5 0 0 1 12.993 89.75 L 12.993 103.75 A 0.5 0.5 0 0 1 12.493 104.25 L 6.493 104.25 A 0.5 0.5 0 0 1 5.993 103.75 L 5.993 89.75 A 0.5 0.5 0 0 1 6.493 89.25 Z M 30.369 89.25 L 36.369 89.25 A 0.5 0.5 0 0 1 36.869 89.75 L 36.869 103.75 A 0.5 0.5 0 0 1 36.369 104.25 L 30.369 104.25 A 0.5 0.5 0 0 1 29.869 103.75 L 29.869 89.75 A 0.5 0.5 0 0 1 30.369 89.25 Z M 77.969 108.3 L 83.969 108.3 A 0.5 0.5 0 0 1 84.469 108.8 L 84.469 122.8 A 0.5 0.5 0 0 1 83.969 123.3 L 77.969 123.3 A 0.5 0.5 0 0 1 77.469 122.8 L 77.469 108.8 A 0.5 0.5 0 0 1 77.969 108.3 Z M 177.969 108.3 L 183.969 108.3 A 0.5 0.5 0 0 1 184.469 108.8 L 184.469 122.8 A 0.5 0.5 0 0 1 183.969 123.3 L 177.969 123.3 A 0.5 0.5 0 0 1 177.469 122.8 L 177.469 108.8 A 0.5 0.5 0 0 1 177.969 108.3 Z M 3.287 50.15 L 3.787 50.15 A 0.5 0.5 0 0 1 4.288 50.65 L 4.288 63.65 A 0.5 0.5 0 0 1 3.787 64.15 L 3.287 64.15 A 0.5 0.5 0 0 1 2.787 63.65 L 2.787 50.65 A 0.5 0.5 0 0 1 3.287 50.15 Z M 24.788 50.15 L 25.288 50.15 A 0.5 0.5 0 0 1 25.788 50.65 L 25.788 63.65 A 0.5 0.5 0 0 1 25.288 64.15 L 24.788 64.15 A 0.5 0.5 0 0 1 24.288 63.65 L 24.288 50.65 A 0.5 0.5 0 0 1 24.788 50.15 Z M 260.463 50.15 L 260.963 50.15 A 0.5 0.5 0 0 1 261.463 50.65 L 261.463 63.65 A 0.5 0.5 0 0 1 260.963 64.15 L 260.463 64.15 A 0.5 0.5 0 0 1 259.963 63.65 L 259.963 50.65 A 0.5 0.5 0 0 1 260.463 50.15 Z M 281.963 50.15 L 282.463 50.15 A 0.5 0.5 0 0 1 282.963 50.65 L 282.963 63.65 A 0.5 0.5 0 0 1 282.463 64.15 L 281.963 64.15 A 0.5 0.5 0 0 1 281.463 63.65 L 281.463 50.65 A 0.5 0.5 0 0 1 281.963 50.15 Z M 5.669 69.2 L 6.169 69.2 A 0.5 0.5 0 0 1 6.669 69.7 L 6.669 82.7 A 0.5 0.5 0 0 1 6.169 83.2 L 5.669 83.2 A 0.5 0.5 0 0 1 5.169 82.7 L 5.169 69.7 A 0.5 0.5 0 0 1 5.669 69.2 Z M 27.169 69.2 L 27.669 69.2 A 0.5 0.5 0 0 1 28.169 69.7 L 28.169 82.7 A 0.5 0.5 0 0 1 27.669 83.2 L 27.169 83.2 A 0.5 0.5 0 0 1 26.669 82.7 L 26.669 69.7 A 0.5 0.5 0 0 1 27.169 69.2 Z M 239.031 88.25 L 239.531 88.25 A 0.5 0.5 0 0 1 240.031 88.75 L 240.031 101.75 A 0.5 0.5 0 0 1 239.531 102.25 L 239.031 102.25 A 0.5 0.5 0 0 1 238.531 101.75 L 238.531 88.75 A 0.5 0.5 0 0 1 239.031 88.25 Z M 260.531 88.25 L 261.031 88.25 A 0.5 0.5 0 0 1 261.531 88.75 L 261.531 101.75 A 0.5 0.5 0 0 1 261.031 102.25 L 260.531 102.25 A 0.5 0.5 0 0 1 260.031 101.75 L 260.031 88.75 A 0.5 0.5 0 0 1 260.531 88.25 Z" vector-effect="non-scaling-stroke"/></g></svg>