%TF.GenerationSoftware,KiCad,Pcbnew,9.0.2*%
%TF.CreationDate,2025-11-06T13:36:45-05:00*%
%TF.ProjectId,750-THR-Earthtyper,3735302d-5448-4522-9d45-617274687479,rev?*%
%TF.SameCoordinates,Original*%
%TF.FileFunction,Profile,NP*%
%FSLAX46Y46*%
G04 Gerber Fmt 4.6, Leading zero omitted, Abs format (unit mm)*
G04 Created by KiCad (PCBNEW 9.0.2) date 2025-11-06 13:36:45*
%MOMM*%
%LPD*%
G01*
G04 APERTURE LIST*
%TA.AperFunction,Profile*%
%ADD10C,0.050000*%
%TD*%
G04 APERTURE END LIST*
D10*
X-8000000Y13000000D02*
G75*
G02*
X-10000000Y13000000I-1000000J0D01*
G01*
X-10000000Y13000000D02*
G75*
G02*
X-8000000Y13000000I1000000J0D01*
G01*
X112000000Y72000000D02*
G75*
G02*
X110000000Y72000000I-1000000J0D01*
G01*
X110000000Y72000000D02*
G75*
G02*
X112000000Y72000000I1000000J0D01*
G01*
X59000000Y33000000D02*
G75*
G02*
X57000000Y33000000I-1000000J0D01*
G01*
X57000000Y33000000D02*
G75*
G02*
X59000000Y33000000I1000000J0D01*
G01*
X-9817100Y9474200D02*
G75*
G02*
X-12185650Y11842750I-1J2368549D01*
G01*
X224000000Y34000000D02*
G75*
G02*
X222000000Y34000000I-1000000J0D01*
G01*
X222000000Y34000000D02*
G75*
G02*
X224000000Y34000000I1000000J0D01*
G01*
X10000000Y112000000D02*
G75*
G02*
X8000000Y112000000I-1000000J0D01*
G01*
X8000000Y112000000D02*
G75*
G02*
X10000000Y112000000I1000000J0D01*
G01*
X293357350Y132638800D02*
X-9817050Y132638800D01*
X295725850Y11842700D02*
X295725850Y130270200D01*
X-12185650Y130270250D02*
X-12185650Y11842700D01*
X274000000Y88000000D02*
G75*
G02*
X272000000Y88000000I-1000000J0D01*
G01*
X272000000Y88000000D02*
G75*
G02*
X274000000Y88000000I1000000J0D01*
G01*
X171000000Y112000000D02*
G75*
G02*
X169000000Y112000000I-1000000J0D01*
G01*
X169000000Y112000000D02*
G75*
G02*
X171000000Y112000000I1000000J0D01*
G01*
X-12185650Y130270250D02*
G75*
G02*
X-9817100Y132638800I2368549J1D01*
G01*
X295725850Y11842750D02*
G75*
G02*
X293357300Y9474150I-2368550J-50D01*
G01*
X188000000Y72000000D02*
G75*
G02*
X186000000Y72000000I-1000000J0D01*
G01*
X186000000Y72000000D02*
G75*
G02*
X188000000Y72000000I1000000J0D01*
G01*
X-9817100Y9474200D02*
X293357350Y9474200D01*
X252000000Y112000000D02*
G75*
G02*
X250000000Y112000000I-1000000J0D01*
G01*
X250000000Y112000000D02*
G75*
G02*
X252000000Y112000000I1000000J0D01*
G01*
X293357300Y132638800D02*
G75*
G02*
X295725800Y130270250I0J-2368500D01*
G01*
X279000000Y29000000D02*
G75*
G02*
X277000000Y29000000I-1000000J0D01*
G01*
X277000000Y29000000D02*
G75*
G02*
X279000000Y29000000I1000000J0D01*
G01*
X13000000Y72000000D02*
G75*
G02*
X11000000Y72000000I-1000000J0D01*
G01*
X11000000Y72000000D02*
G75*
G02*
X13000000Y72000000I1000000J0D01*
G01*
M02*
