%TF.GenerationSoftware,KiCad,Pcbnew,9.0.2*%
%TF.CreationDate,2025-11-06T13:36:45-05:00*%
%TF.ProjectId,750-THR-Earthtyper,3735302d-5448-4522-9d45-617274687479,rev?*%
%TF.SameCoordinates,Original*%
%TF.FileFunction,Soldermask,Bot*%
%TF.FilePolarity,Negative*%
%FSLAX46Y46*%
G04 Gerber Fmt 4.6, Leading zero omitted, Abs format (unit mm)*
G04 Created by KiCad (PCBNEW 9.0.2) date 2025-11-06 13:36:45*
%MOMM*%
%LPD*%
G01*
G04 APERTURE LIST*
G04 Aperture macros list*
%AMHorizOval*
0 Thick line with rounded ends*
0 $1 width*
0 $2 $3 position (X,Y) of the first rounded end (center of the circle)*
0 $4 $5 position (X,Y) of the second rounded end (center of the circle)*
0 Add line between two ends*
20,1,$1,$2,$3,$4,$5,0*
0 Add two circle primitives to create the rounded ends*
1,1,$1,$2,$3*
1,1,$1,$4,$5*%
G04 Aperture macros list end*
%ADD10C,1.701800*%
%ADD11C,3.987800*%
%ADD12HorizOval,2.500000X-0.604462X-0.948815X0.604462X0.948815X0*%
%ADD13HorizOval,2.500000X-0.019724X-0.289328X0.019724X0.289328X0*%
%ADD14C,3.048000*%
%ADD15R,1.600000X1.600000*%
%ADD16R,1.200000X1.200000*%
%ADD17C,1.600000*%
%ADD18R,1.752600X1.752600*%
%ADD19C,1.752600*%
G04 APERTURE END LIST*
D10*
%TO.C,K40*%
X172218350Y80530700D03*
D11*
X177298350Y80530700D03*
D10*
X182378350Y80530700D03*
D12*
X174043350Y84050700D03*
D13*
X179818350Y85320700D03*
%TD*%
D10*
%TO.C,K8*%
X134321550Y123164600D03*
D11*
X139401550Y123164600D03*
D10*
X144481550Y123164600D03*
D12*
X136146550Y126684600D03*
D13*
X141921550Y127954600D03*
%TD*%
D14*
%TO.C,K58*%
X238785400Y68567300D03*
D11*
X238785400Y53327300D03*
D10*
X245643400Y61582300D03*
D11*
X250723400Y61582300D03*
D10*
X255803400Y61582300D03*
D14*
X262661400Y68567300D03*
D11*
X262661400Y53327300D03*
D12*
X247468400Y65102300D03*
D13*
X253243400Y66372300D03*
%TD*%
D10*
%TO.C,K75*%
X113004600Y23685500D03*
D11*
X118084600Y23685500D03*
D10*
X123164600Y23685500D03*
D12*
X114829600Y27205500D03*
D13*
X120604600Y28475500D03*
%TD*%
D10*
%TO.C,K76*%
X181692550Y23685500D03*
D11*
X186772550Y23685500D03*
D10*
X191852550Y23685500D03*
D12*
X183517550Y27205500D03*
D13*
X189292550Y28475500D03*
%TD*%
D10*
%TO.C,K50*%
X82213450Y61582300D03*
D11*
X87293450Y61582300D03*
D10*
X92373450Y61582300D03*
D12*
X84038450Y65102300D03*
D13*
X89813450Y66372300D03*
%TD*%
D10*
%TO.C,K48*%
X44316650Y61582300D03*
D11*
X49396650Y61582300D03*
D10*
X54476650Y61582300D03*
D12*
X46141650Y65102300D03*
D13*
X51916650Y66372300D03*
%TD*%
D10*
%TO.C,K23*%
X124847350Y99479100D03*
D11*
X129927350Y99479100D03*
D10*
X135007350Y99479100D03*
D12*
X126672350Y102999100D03*
D13*
X132447350Y104269100D03*
%TD*%
D10*
%TO.C,K69*%
X186429650Y42633900D03*
D11*
X191509650Y42633900D03*
D10*
X196589650Y42633900D03*
D12*
X188254650Y46153900D03*
D13*
X194029650Y47423900D03*
%TD*%
D10*
%TO.C,K54*%
X158007050Y61582300D03*
D11*
X163087050Y61582300D03*
D10*
X168167050Y61582300D03*
D12*
X159832050Y65102300D03*
D13*
X165607050Y66372300D03*
%TD*%
D10*
%TO.C,K51*%
X101161850Y61582300D03*
D11*
X106241850Y61582300D03*
D10*
X111321850Y61582300D03*
D12*
X102986850Y65102300D03*
D13*
X108761850Y66372300D03*
%TD*%
D10*
%TO.C,K63*%
X72739250Y42633900D03*
D11*
X77819250Y42633900D03*
D10*
X82899250Y42633900D03*
D12*
X74564250Y46153900D03*
D13*
X80339250Y47423900D03*
%TD*%
D10*
%TO.C,K14*%
X257486150Y123164600D03*
D11*
X262566150Y123164600D03*
D10*
X267646150Y123164600D03*
D12*
X259311150Y126684600D03*
D13*
X265086150Y127954600D03*
%TD*%
D10*
%TO.C,K43*%
X229063550Y80530700D03*
D11*
X234143550Y80530700D03*
D10*
X239223550Y80530700D03*
D12*
X230888550Y84050700D03*
D13*
X236663550Y85320700D03*
%TD*%
D10*
%TO.C,K44*%
X252749050Y80530700D03*
D11*
X257829050Y80530700D03*
D10*
X262909050Y80530700D03*
D12*
X254574050Y84050700D03*
D13*
X260349050Y85320700D03*
%TD*%
D10*
%TO.C,K57*%
X214852250Y61582300D03*
D11*
X219932250Y61582300D03*
D10*
X225012250Y61582300D03*
D12*
X216677250Y65102300D03*
D13*
X222452250Y66372300D03*
%TD*%
D10*
%TO.C,K24*%
X143795750Y99479100D03*
D11*
X148875750Y99479100D03*
D10*
X153955750Y99479100D03*
D12*
X145620750Y102999100D03*
D13*
X151395750Y104269100D03*
%TD*%
D10*
%TO.C,K39*%
X153269950Y80530700D03*
D11*
X158349950Y80530700D03*
D10*
X163429950Y80530700D03*
D12*
X155094950Y84050700D03*
D13*
X160869950Y85320700D03*
%TD*%
D10*
%TO.C,K65*%
X110636050Y42633900D03*
D11*
X115716050Y42633900D03*
D10*
X120796050Y42633900D03*
D12*
X112461050Y46153900D03*
D13*
X118236050Y47423900D03*
%TD*%
D10*
%TO.C,K7*%
X115373150Y123164600D03*
D11*
X120453150Y123164600D03*
D10*
X125533150Y123164600D03*
D12*
X117198150Y126684600D03*
D13*
X122973150Y127954600D03*
%TD*%
D10*
%TO.C,K20*%
X68002150Y99479100D03*
D11*
X73082150Y99479100D03*
D10*
X78162150Y99479100D03*
D12*
X69827150Y102999100D03*
D13*
X75602150Y104269100D03*
%TD*%
D10*
%TO.C,K72*%
X-5422900Y23685500D03*
D11*
X-342900Y23685500D03*
D10*
X4737100Y23685500D03*
D12*
X-3597900Y27205500D03*
D13*
X2177100Y28475500D03*
%TD*%
D10*
%TO.C,K68*%
X167138350Y42633900D03*
D11*
X172218350Y42633900D03*
D10*
X177298350Y42633900D03*
D12*
X168963350Y46153900D03*
D13*
X174738350Y47423900D03*
%TD*%
D10*
%TO.C,K81*%
X262223250Y18948400D03*
D11*
X267303250Y18948400D03*
D10*
X272383250Y18948400D03*
D12*
X264048250Y22468400D03*
D13*
X269823250Y23738400D03*
%TD*%
D10*
%TO.C,K74*%
X41948100Y23685500D03*
D11*
X47028100Y23685500D03*
D10*
X52108100Y23685500D03*
D12*
X43773100Y27205500D03*
D13*
X49548100Y28475500D03*
%TD*%
D10*
%TO.C,K35*%
X77476350Y80530700D03*
D11*
X82556350Y80530700D03*
D10*
X87636350Y80530700D03*
D12*
X79301350Y84050700D03*
D13*
X85076350Y85320700D03*
%TD*%
D10*
%TO.C,K66*%
X129584450Y42633900D03*
D11*
X134664450Y42633900D03*
D10*
X139744450Y42633900D03*
D12*
X131409450Y46153900D03*
D13*
X137184450Y47423900D03*
%TD*%
D10*
%TO.C,K38*%
X134321550Y80530700D03*
D11*
X139401550Y80530700D03*
D10*
X144481550Y80530700D03*
D12*
X136146550Y84050700D03*
D13*
X141921550Y85320700D03*
%TD*%
D10*
%TO.C,K3*%
X34842450Y123164600D03*
D11*
X39922450Y123164600D03*
D10*
X45002450Y123164600D03*
D12*
X36667450Y126684600D03*
D13*
X42442450Y127954600D03*
%TD*%
D10*
%TO.C,K67*%
X148532850Y42633900D03*
D11*
X153612850Y42633900D03*
D10*
X158692850Y42633900D03*
D12*
X150357850Y46153900D03*
D13*
X156132850Y47423900D03*
%TD*%
D10*
%TO.C,K79*%
X243274850Y18948400D03*
D11*
X248354850Y18948400D03*
D10*
X253434850Y18948400D03*
D12*
X245099850Y22468400D03*
D13*
X250874850Y23738400D03*
%TD*%
D10*
%TO.C,K10*%
X176955450Y123164600D03*
D11*
X182035450Y123164600D03*
D10*
X187115450Y123164600D03*
D12*
X178780450Y126684600D03*
D13*
X184555450Y127954600D03*
%TD*%
D10*
%TO.C,K64*%
X91687650Y42633900D03*
D11*
X96767650Y42633900D03*
D10*
X101847650Y42633900D03*
D12*
X93512650Y46153900D03*
D13*
X99287650Y47423900D03*
%TD*%
D10*
%TO.C,K32*%
X20631150Y80530700D03*
D11*
X25711150Y80530700D03*
D10*
X30791150Y80530700D03*
D12*
X22456150Y84050700D03*
D13*
X28231150Y85320700D03*
%TD*%
D10*
%TO.C,K61*%
X34842450Y42633900D03*
D11*
X39922450Y42633900D03*
D10*
X45002450Y42633900D03*
D12*
X36667450Y46153900D03*
D13*
X42442450Y47423900D03*
%TD*%
D10*
%TO.C,K33*%
X39579550Y80530700D03*
D11*
X44659550Y80530700D03*
D10*
X49739550Y80530700D03*
D12*
X41404550Y84050700D03*
D13*
X47179550Y85320700D03*
%TD*%
D10*
%TO.C,K52*%
X120110250Y61582300D03*
D11*
X125190250Y61582300D03*
D10*
X130270250Y61582300D03*
D12*
X121935250Y65102300D03*
D13*
X127710250Y66372300D03*
%TD*%
D10*
%TO.C,K30*%
X281171650Y99479100D03*
D11*
X286251650Y99479100D03*
D10*
X291331650Y99479100D03*
D12*
X282996650Y102999100D03*
D13*
X288771650Y104269100D03*
%TD*%
D10*
%TO.C,K56*%
X195903850Y61582300D03*
D11*
X200983850Y61582300D03*
D10*
X206063850Y61582300D03*
D12*
X197728850Y65102300D03*
D13*
X203503850Y66372300D03*
%TD*%
D10*
%TO.C,K73*%
X18262600Y23685500D03*
D11*
X23342600Y23685500D03*
D10*
X28422600Y23685500D03*
D12*
X20087600Y27205500D03*
D13*
X25862600Y28475500D03*
%TD*%
D10*
%TO.C,K82*%
X281171650Y18948400D03*
D11*
X286251650Y18948400D03*
D10*
X291331650Y18948400D03*
D12*
X282996650Y22468400D03*
D13*
X288771650Y23738400D03*
%TD*%
D10*
%TO.C,K37*%
X115373150Y80530700D03*
D11*
X120453150Y80530700D03*
D10*
X125533150Y80530700D03*
D12*
X117198150Y84050700D03*
D13*
X122973150Y85320700D03*
%TD*%
D10*
%TO.C,K49*%
X63265050Y61582300D03*
D11*
X68345050Y61582300D03*
D10*
X73425050Y61582300D03*
D12*
X65090050Y65102300D03*
D13*
X70865050Y66372300D03*
%TD*%
D10*
%TO.C,K21*%
X86950550Y99479100D03*
D11*
X92030550Y99479100D03*
D10*
X97110550Y99479100D03*
D12*
X88775550Y102999100D03*
D13*
X94550550Y104269100D03*
%TD*%
D10*
%TO.C,K12*%
X214852250Y123164600D03*
D11*
X219932250Y123164600D03*
D10*
X225012250Y123164600D03*
D12*
X216677250Y126684600D03*
D13*
X222452250Y127954600D03*
%TD*%
D10*
%TO.C,K1*%
X-7791450Y123164600D03*
D11*
X-2711450Y123164600D03*
D10*
X2368550Y123164600D03*
D12*
X-5966450Y126684600D03*
D13*
X-191450Y127954600D03*
%TD*%
D10*
%TO.C,K77*%
X200640950Y23685500D03*
D11*
X205720950Y23685500D03*
D10*
X210800950Y23685500D03*
D12*
X202465950Y27205500D03*
D13*
X208240950Y28475500D03*
%TD*%
D14*
%TO.C,K29*%
X241153950Y106464100D03*
D11*
X241153950Y91224100D03*
D10*
X248011950Y99479100D03*
D11*
X253091950Y99479100D03*
D10*
X258171950Y99479100D03*
D14*
X265029950Y106464100D03*
D11*
X265029950Y91224100D03*
D12*
X249836950Y102999100D03*
D13*
X255611950Y104269100D03*
%TD*%
D10*
%TO.C,K18*%
X30105350Y99479100D03*
D11*
X35185350Y99479100D03*
D10*
X40265350Y99479100D03*
D12*
X31930350Y102999100D03*
D13*
X37705350Y104269100D03*
%TD*%
D10*
%TO.C,K13*%
X233800650Y123164600D03*
D11*
X238880650Y123164600D03*
D10*
X243960650Y123164600D03*
D12*
X235625650Y126684600D03*
D13*
X241400650Y127954600D03*
%TD*%
D10*
%TO.C,K70*%
X205378050Y42633900D03*
D11*
X210458050Y42633900D03*
D10*
X215538050Y42633900D03*
D12*
X207203050Y46153900D03*
D13*
X212978050Y47423900D03*
%TD*%
D10*
%TO.C,K41*%
X191166750Y80530700D03*
D11*
X196246750Y80530700D03*
D10*
X201326750Y80530700D03*
D12*
X192991750Y84050700D03*
D13*
X198766750Y85320700D03*
%TD*%
D14*
%TO.C,K60*%
X-2806700Y49618900D03*
D11*
X-2806700Y34378900D03*
D10*
X4051300Y42633900D03*
D11*
X9131300Y42633900D03*
D10*
X14211300Y42633900D03*
D14*
X21069300Y49618900D03*
D11*
X21069300Y34378900D03*
D12*
X5876300Y46153900D03*
D13*
X11651300Y47423900D03*
%TD*%
D10*
%TO.C,K15*%
X281171650Y123164600D03*
D11*
X286251650Y123164600D03*
D10*
X291331650Y123164600D03*
D12*
X282996650Y126684600D03*
D13*
X288771650Y127954600D03*
%TD*%
D10*
%TO.C,K22*%
X105898950Y99479100D03*
D11*
X110978950Y99479100D03*
D10*
X116058950Y99479100D03*
D12*
X107723950Y102999100D03*
D13*
X113498950Y104269100D03*
%TD*%
D10*
%TO.C,K9*%
X153269950Y123164600D03*
D11*
X158349950Y123164600D03*
D10*
X163429950Y123164600D03*
D12*
X155094950Y126684600D03*
D13*
X160869950Y127954600D03*
%TD*%
D10*
%TO.C,K27*%
X200640950Y99479100D03*
D11*
X205720950Y99479100D03*
D10*
X210800950Y99479100D03*
D12*
X202465950Y102999100D03*
D13*
X208240950Y104269100D03*
%TD*%
D10*
%TO.C,K45*%
X281171650Y80530700D03*
D11*
X286251650Y80530700D03*
D10*
X291331650Y80530700D03*
D12*
X282996650Y84050700D03*
D13*
X288771650Y85320700D03*
%TD*%
D10*
%TO.C,K4*%
X53790850Y123164600D03*
D11*
X58870850Y123164600D03*
D10*
X63950850Y123164600D03*
D12*
X55615850Y126684600D03*
D13*
X61390850Y127954600D03*
%TD*%
D10*
%TO.C,K34*%
X58527950Y80530700D03*
D11*
X63607950Y80530700D03*
D10*
X68687950Y80530700D03*
D12*
X60352950Y84050700D03*
D13*
X66127950Y85320700D03*
%TD*%
D10*
%TO.C,K42*%
X210115150Y80530700D03*
D11*
X215195150Y80530700D03*
D10*
X220275150Y80530700D03*
D12*
X211940150Y84050700D03*
D13*
X217715150Y85320700D03*
%TD*%
D10*
%TO.C,K62*%
X53790850Y42633900D03*
D11*
X58870850Y42633900D03*
D10*
X63950850Y42633900D03*
D12*
X55615850Y46153900D03*
D13*
X61390850Y47423900D03*
%TD*%
D10*
%TO.C,K26*%
X181692550Y99479100D03*
D11*
X186772550Y99479100D03*
D10*
X191852550Y99479100D03*
D12*
X183517550Y102999100D03*
D13*
X189292550Y104269100D03*
%TD*%
D10*
%TO.C,K19*%
X49053750Y99479100D03*
D11*
X54133750Y99479100D03*
D10*
X59213750Y99479100D03*
D12*
X50878750Y102999100D03*
D13*
X56653750Y104269100D03*
%TD*%
D10*
%TO.C,K55*%
X176955450Y61582300D03*
D11*
X182035450Y61582300D03*
D10*
X187115450Y61582300D03*
D12*
X178780450Y65102300D03*
D13*
X184555450Y66372300D03*
%TD*%
D10*
%TO.C,K31*%
X-3054350Y80530700D03*
D11*
X2025650Y80530700D03*
D10*
X7105650Y80530700D03*
D12*
X-1229350Y84050700D03*
D13*
X4545650Y85320700D03*
%TD*%
D10*
%TO.C,K59*%
X281171650Y61734700D03*
D11*
X286251650Y61734700D03*
D10*
X291331650Y61734700D03*
D12*
X282996650Y65254700D03*
D13*
X288771650Y66524700D03*
%TD*%
D10*
%TO.C,K78*%
X219589350Y23685500D03*
D11*
X224669350Y23685500D03*
D10*
X229749350Y23685500D03*
D12*
X221414350Y27205500D03*
D13*
X227189350Y28475500D03*
%TD*%
D10*
%TO.C,K53*%
X139058650Y61582300D03*
D11*
X144138650Y61582300D03*
D10*
X149218650Y61582300D03*
D12*
X140883650Y65102300D03*
D13*
X146658650Y66372300D03*
%TD*%
D10*
%TO.C,K6*%
X96424750Y123164600D03*
D11*
X101504750Y123164600D03*
D10*
X106584750Y123164600D03*
D12*
X98249750Y126684600D03*
D13*
X104024750Y127954600D03*
%TD*%
D10*
%TO.C,K25*%
X162744150Y99479100D03*
D11*
X167824150Y99479100D03*
D10*
X172904150Y99479100D03*
D12*
X164569150Y102999100D03*
D13*
X170344150Y104269100D03*
%TD*%
D10*
%TO.C,K36*%
X96424750Y80530700D03*
D11*
X101504750Y80530700D03*
D10*
X106584750Y80530700D03*
D12*
X98249750Y84050700D03*
D13*
X104024750Y85320700D03*
%TD*%
D10*
%TO.C,K16*%
X-7791450Y99479100D03*
D11*
X-2711450Y99479100D03*
D10*
X2368550Y99479100D03*
D12*
X-5966450Y102999100D03*
D13*
X-191450Y104269100D03*
%TD*%
D10*
%TO.C,K71*%
X231432100Y42633900D03*
D11*
X236512100Y42633900D03*
D10*
X241592100Y42633900D03*
D12*
X233257100Y46153900D03*
D13*
X239032100Y47423900D03*
%TD*%
D10*
%TO.C,K46*%
X-685800Y61582300D03*
D11*
X4394200Y61582300D03*
D10*
X9474200Y61582300D03*
D12*
X1139200Y65102300D03*
D13*
X6914200Y66372300D03*
%TD*%
D10*
%TO.C,K80*%
X262223250Y37896800D03*
D11*
X267303250Y37896800D03*
D10*
X272383250Y37896800D03*
D12*
X264048250Y41416800D03*
D13*
X269823250Y42686800D03*
%TD*%
D10*
%TO.C,K28*%
X219589350Y99479100D03*
D11*
X224669350Y99479100D03*
D10*
X229749350Y99479100D03*
D12*
X221414350Y102999100D03*
D13*
X227189350Y104269100D03*
%TD*%
D10*
%TO.C,K11*%
X195903850Y123164600D03*
D11*
X200983850Y123164600D03*
D10*
X206063850Y123164600D03*
D12*
X197728850Y126684600D03*
D13*
X203503850Y127954600D03*
%TD*%
D10*
%TO.C,K5*%
X72739250Y123164600D03*
D11*
X77819250Y123164600D03*
D10*
X82899250Y123164600D03*
D12*
X74564250Y126684600D03*
D13*
X80339250Y127954600D03*
%TD*%
D10*
%TO.C,K47*%
X25368250Y61582300D03*
D11*
X30448250Y61582300D03*
D10*
X35528250Y61582300D03*
D12*
X27193250Y65102300D03*
D13*
X32968250Y66372300D03*
%TD*%
D10*
%TO.C,K17*%
X11156950Y99479100D03*
D11*
X16236950Y99479100D03*
D10*
X21316950Y99479100D03*
D12*
X12981950Y102999100D03*
D13*
X18756950Y104269100D03*
%TD*%
D10*
%TO.C,K2*%
X15894050Y123164600D03*
D11*
X20974050Y123164600D03*
D10*
X26054050Y123164600D03*
D12*
X17719050Y126684600D03*
D13*
X23494050Y127954600D03*
%TD*%
D15*
%TO.C,D57*%
X223832250Y56845200D03*
D16*
X221507250Y56845200D03*
X218357250Y56845200D03*
D17*
X216032250Y56845200D03*
%TD*%
D15*
%TO.C,D33*%
X48559550Y75793600D03*
D16*
X46234550Y75793600D03*
X43084550Y75793600D03*
D17*
X40759550Y75793600D03*
%TD*%
D15*
%TO.C,D40*%
X181198350Y75793600D03*
D16*
X178873350Y75793600D03*
X175723350Y75793600D03*
D17*
X173398350Y75793600D03*
%TD*%
D15*
%TO.C,D71*%
X240412100Y37896800D03*
D16*
X238087100Y37896800D03*
X234937100Y37896800D03*
D17*
X232612100Y37896800D03*
%TD*%
D15*
%TO.C,D43*%
X238043550Y75793600D03*
D16*
X235718550Y75793600D03*
X232568550Y75793600D03*
D17*
X230243550Y75793600D03*
%TD*%
D15*
%TO.C,D50*%
X91193450Y56845200D03*
D16*
X88868450Y56845200D03*
X85718450Y56845200D03*
D17*
X83393450Y56845200D03*
%TD*%
D15*
%TO.C,D21*%
X95930550Y94742000D03*
D16*
X93605550Y94742000D03*
X90455550Y94742000D03*
D17*
X88130550Y94742000D03*
%TD*%
D15*
%TO.C,D65*%
X119616050Y37896800D03*
D16*
X117291050Y37896800D03*
X114141050Y37896800D03*
D17*
X111816050Y37896800D03*
%TD*%
D15*
%TO.C,D6*%
X105404750Y118427500D03*
D16*
X103079750Y118427500D03*
X99929750Y118427500D03*
D17*
X97604750Y118427500D03*
%TD*%
D15*
%TO.C,D14*%
X266466150Y118427500D03*
D16*
X264141150Y118427500D03*
X260991150Y118427500D03*
D17*
X258666150Y118427500D03*
%TD*%
D15*
%TO.C,D72*%
X3557100Y18948400D03*
D16*
X1232100Y18948400D03*
X-1917900Y18948400D03*
D17*
X-4242900Y18948400D03*
%TD*%
D15*
%TO.C,D70*%
X214358050Y37896800D03*
D16*
X212033050Y37896800D03*
X208883050Y37896800D03*
D17*
X206558050Y37896800D03*
%TD*%
D15*
%TO.C,D77*%
X209620950Y18948400D03*
D16*
X207295950Y18948400D03*
X204145950Y18948400D03*
D17*
X201820950Y18948400D03*
%TD*%
D15*
%TO.C,D26*%
X190672550Y94742000D03*
D16*
X188347550Y94742000D03*
X185197550Y94742000D03*
D17*
X182872550Y94742000D03*
%TD*%
D15*
%TO.C,D75*%
X121984600Y18948400D03*
D16*
X119659600Y18948400D03*
X116509600Y18948400D03*
D17*
X114184600Y18948400D03*
%TD*%
D15*
%TO.C,D69*%
X195409650Y37896800D03*
D16*
X193084650Y37896800D03*
X189934650Y37896800D03*
D17*
X187609650Y37896800D03*
%TD*%
D15*
%TO.C,D58*%
X254623400Y56845200D03*
D16*
X252298400Y56845200D03*
X249148400Y56845200D03*
D17*
X246823400Y56845200D03*
%TD*%
D15*
%TO.C,D16*%
X1188550Y94742000D03*
D16*
X-1136450Y94742000D03*
X-4286450Y94742000D03*
D17*
X-6611450Y94742000D03*
%TD*%
D15*
%TO.C,D23*%
X133827350Y94742000D03*
D16*
X131502350Y94742000D03*
X128352350Y94742000D03*
D17*
X126027350Y94742000D03*
%TD*%
D15*
%TO.C,D76*%
X190672550Y18948400D03*
D16*
X188347550Y18948400D03*
X185197550Y18948400D03*
D17*
X182872550Y18948400D03*
%TD*%
D15*
%TO.C,D68*%
X176461250Y37896800D03*
D16*
X174136250Y37896800D03*
X170986250Y37896800D03*
D17*
X168661250Y37896800D03*
%TD*%
D15*
%TO.C,D27*%
X209620950Y94742000D03*
D16*
X207295950Y94742000D03*
X204145950Y94742000D03*
D17*
X201820950Y94742000D03*
%TD*%
D15*
%TO.C,D5*%
X81719250Y118427500D03*
D16*
X79394250Y118427500D03*
X76244250Y118427500D03*
D17*
X73919250Y118427500D03*
%TD*%
D15*
%TO.C,D39*%
X162249950Y75793600D03*
D16*
X159924950Y75793600D03*
X156774950Y75793600D03*
D17*
X154449950Y75793600D03*
%TD*%
D15*
%TO.C,D45*%
X290151650Y75793600D03*
D16*
X287826650Y75793600D03*
X284676650Y75793600D03*
D17*
X282351650Y75793600D03*
%TD*%
D15*
%TO.C,D56*%
X204883850Y56845200D03*
D16*
X202558850Y56845200D03*
X199408850Y56845200D03*
D17*
X197083850Y56845200D03*
%TD*%
D15*
%TO.C,D52*%
X129090250Y56845200D03*
D16*
X126765250Y56845200D03*
X123615250Y56845200D03*
D17*
X121290250Y56845200D03*
%TD*%
D15*
%TO.C,D80*%
X271203250Y33159700D03*
D16*
X268878250Y33159700D03*
X265728250Y33159700D03*
D17*
X263403250Y33159700D03*
%TD*%
D15*
%TO.C,D28*%
X228569350Y94742000D03*
D16*
X226244350Y94742000D03*
X223094350Y94742000D03*
D17*
X220769350Y94742000D03*
%TD*%
D18*
%TO.C,U1*%
X103219250Y16065500D03*
D19*
X100679250Y16065500D03*
X98139250Y16065500D03*
X95599250Y16065500D03*
X93059250Y16065500D03*
X90519250Y16065500D03*
X87979250Y16065500D03*
X85439250Y16065500D03*
X82899250Y16065500D03*
X80359250Y16065500D03*
X77819250Y16065500D03*
X75279250Y16065500D03*
X75279250Y18605500D03*
X75279250Y21145500D03*
X75279250Y23685500D03*
X75279250Y26225500D03*
X75279250Y28765500D03*
X75279250Y31305500D03*
X77819250Y31305500D03*
X80359250Y31305500D03*
X82899250Y31305500D03*
X85439250Y31305500D03*
X87979250Y31305500D03*
X90519250Y31305500D03*
X93059250Y31305500D03*
X95599250Y31305500D03*
X98139250Y31305500D03*
X100679250Y31305500D03*
X103219250Y31305500D03*
X93059250Y28765500D03*
X93059250Y18605500D03*
%TD*%
D15*
%TO.C,D30*%
X290151650Y94742000D03*
D16*
X287826650Y94742000D03*
X284676650Y94742000D03*
D17*
X282351650Y94742000D03*
%TD*%
D15*
%TO.C,D55*%
X185935450Y56845200D03*
D16*
X183610450Y56845200D03*
X180460450Y56845200D03*
D17*
X178135450Y56845200D03*
%TD*%
D15*
%TO.C,D79*%
X252254850Y14211300D03*
D16*
X249929850Y14211300D03*
X246779850Y14211300D03*
D17*
X244454850Y14211300D03*
%TD*%
D15*
%TO.C,D29*%
X256991950Y94742000D03*
D16*
X254666950Y94742000D03*
X251516950Y94742000D03*
D17*
X249191950Y94742000D03*
%TD*%
D15*
%TO.C,D74*%
X50928100Y18948400D03*
D16*
X48603100Y18948400D03*
X45453100Y18948400D03*
D17*
X43128100Y18948400D03*
%TD*%
D15*
%TO.C,D44*%
X261729050Y75793600D03*
D16*
X259404050Y75793600D03*
X256254050Y75793600D03*
D17*
X253929050Y75793600D03*
%TD*%
D15*
%TO.C,D64*%
X100667650Y37896800D03*
D16*
X98342650Y37896800D03*
X95192650Y37896800D03*
D17*
X92867650Y37896800D03*
%TD*%
D15*
%TO.C,D24*%
X152775750Y94742000D03*
D16*
X150450750Y94742000D03*
X147300750Y94742000D03*
D17*
X144975750Y94742000D03*
%TD*%
D15*
%TO.C,D73*%
X27242600Y18948400D03*
D16*
X24917600Y18948400D03*
X21767600Y18948400D03*
D17*
X19442600Y18948400D03*
%TD*%
D15*
%TO.C,D12*%
X223832250Y118427500D03*
D16*
X221507250Y118427500D03*
X218357250Y118427500D03*
D17*
X216032250Y118427500D03*
%TD*%
D15*
%TO.C,D81*%
X271203250Y14211300D03*
D16*
X268878250Y14211300D03*
X265728250Y14211300D03*
D17*
X263403250Y14211300D03*
%TD*%
D15*
%TO.C,D78*%
X228569350Y18948400D03*
D16*
X226244350Y18948400D03*
X223094350Y18948400D03*
D17*
X220769350Y18948400D03*
%TD*%
D15*
%TO.C,D38*%
X143301550Y75793600D03*
D16*
X140976550Y75793600D03*
X137826550Y75793600D03*
D17*
X135501550Y75793600D03*
%TD*%
D15*
%TO.C,D41*%
X200146750Y75793600D03*
D16*
X197821750Y75793600D03*
X194671750Y75793600D03*
D17*
X192346750Y75793600D03*
%TD*%
D15*
%TO.C,D13*%
X242780650Y118427500D03*
D16*
X240455650Y118427500D03*
X237305650Y118427500D03*
D17*
X234980650Y118427500D03*
%TD*%
D15*
%TO.C,D10*%
X185935450Y118427500D03*
D16*
X183610450Y118427500D03*
X180460450Y118427500D03*
D17*
X178135450Y118427500D03*
%TD*%
D15*
%TO.C,D60*%
X13031300Y37896800D03*
D16*
X10706300Y37896800D03*
X7556300Y37896800D03*
D17*
X5231300Y37896800D03*
%TD*%
D15*
%TO.C,D42*%
X219095150Y75793600D03*
D16*
X216770150Y75793600D03*
X213620150Y75793600D03*
D17*
X211295150Y75793600D03*
%TD*%
D15*
%TO.C,D53*%
X148038650Y56845200D03*
D16*
X145713650Y56845200D03*
X142563650Y56845200D03*
D17*
X140238650Y56845200D03*
%TD*%
D15*
%TO.C,D61*%
X43822450Y37896800D03*
D16*
X41497450Y37896800D03*
X38347450Y37896800D03*
D17*
X36022450Y37896800D03*
%TD*%
D15*
%TO.C,D48*%
X53296650Y56845200D03*
D16*
X50971650Y56845200D03*
X47821650Y56845200D03*
D17*
X45496650Y56845200D03*
%TD*%
D15*
%TO.C,D49*%
X72245050Y56845200D03*
D16*
X69920050Y56845200D03*
X66770050Y56845200D03*
D17*
X64445050Y56845200D03*
%TD*%
D15*
%TO.C,D62*%
X62770850Y37896800D03*
D16*
X60445850Y37896800D03*
X57295850Y37896800D03*
D17*
X54970850Y37896800D03*
%TD*%
D15*
%TO.C,D19*%
X58033750Y94742000D03*
D16*
X55708750Y94742000D03*
X52558750Y94742000D03*
D17*
X50233750Y94742000D03*
%TD*%
D15*
%TO.C,D1*%
X1188550Y118427500D03*
D16*
X-1136450Y118427500D03*
X-4286450Y118427500D03*
D17*
X-6611450Y118427500D03*
%TD*%
D15*
%TO.C,D20*%
X76982150Y94742000D03*
D16*
X74657150Y94742000D03*
X71507150Y94742000D03*
D17*
X69182150Y94742000D03*
%TD*%
D15*
%TO.C,D37*%
X124353150Y75793600D03*
D16*
X122028150Y75793600D03*
X118878150Y75793600D03*
D17*
X116553150Y75793600D03*
%TD*%
D15*
%TO.C,D66*%
X138564450Y37896800D03*
D16*
X136239450Y37896800D03*
X133089450Y37896800D03*
D17*
X130764450Y37896800D03*
%TD*%
D15*
%TO.C,D9*%
X162249950Y118427500D03*
D16*
X159924950Y118427500D03*
X156774950Y118427500D03*
D17*
X154449950Y118427500D03*
%TD*%
D15*
%TO.C,D59*%
X290151650Y56845200D03*
D16*
X287826650Y56845200D03*
X284676650Y56845200D03*
D17*
X282351650Y56845200D03*
%TD*%
D15*
%TO.C,D8*%
X143301550Y118427500D03*
D16*
X140976550Y118427500D03*
X137826550Y118427500D03*
D17*
X135501550Y118427500D03*
%TD*%
D15*
%TO.C,D54*%
X166987050Y56845200D03*
D16*
X164662050Y56845200D03*
X161512050Y56845200D03*
D17*
X159187050Y56845200D03*
%TD*%
D15*
%TO.C,D51*%
X110141850Y56845200D03*
D16*
X107816850Y56845200D03*
X104666850Y56845200D03*
D17*
X102341850Y56845200D03*
%TD*%
D15*
%TO.C,D18*%
X39085350Y94742000D03*
D16*
X36760350Y94742000D03*
X33610350Y94742000D03*
D17*
X31285350Y94742000D03*
%TD*%
D15*
%TO.C,D32*%
X29611150Y75793600D03*
D16*
X27286150Y75793600D03*
X24136150Y75793600D03*
D17*
X21811150Y75793600D03*
%TD*%
D15*
%TO.C,D47*%
X34348250Y56845200D03*
D16*
X32023250Y56845200D03*
X28873250Y56845200D03*
D17*
X26548250Y56845200D03*
%TD*%
D15*
%TO.C,D31*%
X5925650Y75793600D03*
D16*
X3600650Y75793600D03*
X450650Y75793600D03*
D17*
X-1874350Y75793600D03*
%TD*%
D15*
%TO.C,D22*%
X114878950Y94742000D03*
D16*
X112553950Y94742000D03*
X109403950Y94742000D03*
D17*
X107078950Y94742000D03*
%TD*%
D15*
%TO.C,D17*%
X20136950Y94742000D03*
D16*
X17811950Y94742000D03*
X14661950Y94742000D03*
D17*
X12336950Y94742000D03*
%TD*%
D15*
%TO.C,D82*%
X290151650Y14211300D03*
D16*
X287826650Y14211300D03*
X284676650Y14211300D03*
D17*
X282351650Y14211300D03*
%TD*%
D15*
%TO.C,D15*%
X290151650Y118427500D03*
D16*
X287826650Y118427500D03*
X284676650Y118427500D03*
D17*
X282351650Y118427500D03*
%TD*%
D15*
%TO.C,D34*%
X67507950Y75793600D03*
D16*
X65182950Y75793600D03*
X62032950Y75793600D03*
D17*
X59707950Y75793600D03*
%TD*%
D15*
%TO.C,D36*%
X105404750Y75793600D03*
D16*
X103079750Y75793600D03*
X99929750Y75793600D03*
D17*
X97604750Y75793600D03*
%TD*%
D15*
%TO.C,D25*%
X171724150Y94742000D03*
D16*
X169399150Y94742000D03*
X166249150Y94742000D03*
D17*
X163924150Y94742000D03*
%TD*%
D15*
%TO.C,D63*%
X81719250Y37896800D03*
D16*
X79394250Y37896800D03*
X76244250Y37896800D03*
D17*
X73919250Y37896800D03*
%TD*%
D15*
%TO.C,D67*%
X157512850Y37896800D03*
D16*
X155187850Y37896800D03*
X152037850Y37896800D03*
D17*
X149712850Y37896800D03*
%TD*%
D15*
%TO.C,D3*%
X43822450Y118427500D03*
D16*
X41497450Y118427500D03*
X38347450Y118427500D03*
D17*
X36022450Y118427500D03*
%TD*%
D15*
%TO.C,D35*%
X86456350Y75793600D03*
D16*
X84131350Y75793600D03*
X80981350Y75793600D03*
D17*
X78656350Y75793600D03*
%TD*%
D15*
%TO.C,D46*%
X8294200Y56845200D03*
D16*
X5969200Y56845200D03*
X2819200Y56845200D03*
D17*
X494200Y56845200D03*
%TD*%
D15*
%TO.C,D11*%
X204883850Y118427500D03*
D16*
X202558850Y118427500D03*
X199408850Y118427500D03*
D17*
X197083850Y118427500D03*
%TD*%
D15*
%TO.C,D4*%
X62770850Y118427500D03*
D16*
X60445850Y118427500D03*
X57295850Y118427500D03*
D17*
X54970850Y118427500D03*
%TD*%
D15*
%TO.C,D2*%
X24874050Y118427500D03*
D16*
X22549050Y118427500D03*
X19399050Y118427500D03*
D17*
X17074050Y118427500D03*
%TD*%
D15*
%TO.C,D7*%
X124353150Y118427500D03*
D16*
X122028150Y118427500D03*
X118878150Y118427500D03*
D17*
X116553150Y118427500D03*
%TD*%
M02*
