M48
; DRILL file {KiCad 9.0.2} date 2025-11-03T13:59:48-0500
; FORMAT={-:-/ absolute / metric / decimal}
; #@! TF.CreationDate,2025-11-03T13:59:48-05:00
; #@! TF.GenerationSoftware,Kicad,Pcbnew,9.0.2
; #@! TF.FileFunction,Plated,1,2,PTH
FMAT,2
METRIC
; #@! TA.AperFunction,Plated,PTH,ViaDrill
T1C0.300
; #@! TA.AperFunction,Plated,PTH,ComponentDrill
T2C0.700
; #@! TA.AperFunction,Plated,PTH,ComponentDrill
T3C1.092
; #@! TA.AperFunction,Plated,PTH,ComponentDrill
T4C1.500
%
G90
G05
T1
X3.946Y94.742
X5.146Y94.742
X17.812Y94.742
X18.157Y75.794
X19.357Y75.794
X22.549Y118.427
X23.685Y56.845
X23.685Y37.897
X26.463Y55.535
X26.463Y37.897
X27.286Y75.794
X35.104Y95.166
X39.841Y118.852
X40.265Y56.845
X43.042Y56.845
X51.317Y75.794
X52.517Y75.794
X55.709Y94.742
X59.214Y56.845
X59.235Y40.116
X60.446Y118.427
X61.582Y28.423
X61.991Y56.738
X65.183Y75.794
X72.119Y96.048
X77.738Y118.852
X78.162Y56.845
X80.531Y28.423
X80.939Y56.738
X87.367Y47.371
X87.636Y28.423
X87.636Y26.054
X88.236Y21.317
X89.213Y75.794
X90.413Y75.794
X92.373Y33.16
X93.606Y94.742
X97.111Y56.845
X97.111Y32.56
X97.111Y28.423
X99.479Y33.16
X99.888Y56.845
X101.257Y33.16
X101.257Y25.954
X101.257Y23.685
X103.08Y118.427
X103.08Y75.794
X104.216Y33.16
X110.016Y96.048
X111.322Y33.76
X111.322Y28.423
X116.059Y56.845
X117.291Y37.897
X117.862Y33.76
X118.049Y35.058
X118.427Y33.16
X118.836Y56.738
X120.796Y21.317
X127.11Y75.794
X128.31Y75.794
X131.502Y94.742
X131.806Y118.273
X132.517Y56.723
X135.007Y56.845
X140.977Y75.794
X148.794Y95.166
X153.956Y54.477
X156.733Y54.477
X159.925Y118.427
X165.007Y75.794
X166.207Y75.794
X169.399Y94.742
X172.904Y56.845
X175.338Y56.845
X178.873Y75.794
X183.61Y118.427
X187.307Y95.782
X191.853Y56.845
X193.085Y37.897
X194.63Y56.845
X202.904Y75.794
X204.104Y75.794
X207.296Y94.742
X207.641Y118.427
X208.841Y118.427
X208.857Y57.269
X212.033Y37.897
X216.77Y75.794
X221.507Y118.427
X224.588Y95.166
X225.012Y37.897
X227.381Y23.685
X227.789Y56.845
X227.789Y37.897
X234.486Y116.059
X236.064Y94.742
X237.264Y94.742
X238.087Y37.897
X243.961Y54.477
X245.836Y75.3
X246.631Y54.175
X246.684Y76.149
X254.667Y94.742
X262.485Y118.852
X268.878Y33.16
X269.182Y75.639
X269.223Y56.845
X270.423Y75.794
X270.423Y56.845
X287.827Y118.427
X287.827Y94.742
X287.827Y75.794
X287.827Y56.845
T2
X-6.611Y118.427
X-6.611Y94.742
X-4.243Y18.948
X-1.874Y75.794
X0.494Y56.845
X1.189Y118.427
X1.189Y94.742
X3.557Y18.948
X5.231Y37.897
X5.926Y75.794
X8.294Y56.845
X12.337Y94.742
X13.031Y37.897
X17.074Y118.427
X19.443Y18.948
X20.137Y94.742
X21.811Y75.794
X24.874Y118.427
X26.548Y56.845
X27.243Y18.948
X29.611Y75.794
X31.285Y94.742
X34.348Y56.845
X36.022Y118.427
X36.022Y37.897
X39.085Y94.742
X40.76Y75.794
X43.128Y18.948
X43.822Y118.427
X43.822Y37.897
X45.497Y56.845
X48.56Y75.794
X50.234Y94.742
X50.928Y18.948
X53.297Y56.845
X54.971Y118.427
X54.971Y37.897
X58.034Y94.742
X59.708Y75.794
X62.771Y118.427
X62.771Y37.897
X64.445Y56.845
X67.508Y75.794
X69.182Y94.742
X72.245Y56.845
X73.919Y118.427
X73.919Y37.897
X76.982Y94.742
X78.656Y75.794
X81.719Y118.427
X81.719Y37.897
X83.393Y56.845
X86.456Y75.794
X88.131Y94.742
X91.193Y56.845
X92.868Y37.897
X95.931Y94.742
X97.605Y118.427
X97.605Y75.794
X100.668Y37.897
X102.342Y56.845
X105.405Y118.427
X105.405Y75.794
X107.079Y94.742
X110.142Y56.845
X111.816Y37.897
X114.185Y18.948
X114.879Y94.742
X116.553Y118.427
X116.553Y75.794
X119.616Y37.897
X121.29Y56.845
X121.985Y18.948
X124.353Y118.427
X124.353Y75.794
X126.027Y94.742
X129.09Y56.845
X130.764Y37.897
X133.827Y94.742
X135.502Y118.427
X135.502Y75.794
X138.564Y37.897
X140.239Y56.845
X143.302Y118.427
X143.302Y75.794
X144.976Y94.742
X148.039Y56.845
X149.713Y37.897
X152.776Y94.742
X154.45Y118.427
X154.45Y75.794
X157.513Y37.897
X159.187Y56.845
X162.25Y118.427
X162.25Y75.794
X163.924Y94.742
X166.987Y56.845
X168.661Y37.897
X171.724Y94.742
X173.398Y75.794
X176.461Y37.897
X178.135Y118.427
X178.135Y56.845
X181.198Y75.794
X182.873Y94.742
X182.873Y18.948
X185.935Y118.427
X185.935Y56.845
X187.61Y37.897
X190.673Y94.742
X190.673Y18.948
X192.347Y75.794
X195.41Y37.897
X197.084Y118.427
X197.084Y56.845
X200.147Y75.794
X201.821Y94.742
X201.821Y18.948
X204.884Y118.427
X204.884Y56.845
X206.558Y37.897
X209.621Y94.742
X209.621Y18.948
X211.295Y75.794
X214.358Y37.897
X216.032Y118.427
X216.032Y56.845
X219.095Y75.794
X220.769Y94.742
X220.769Y18.948
X223.832Y118.427
X223.832Y56.845
X228.569Y94.742
X228.569Y18.948
X230.244Y75.794
X232.612Y37.897
X234.981Y118.427
X238.044Y75.794
X240.412Y37.897
X242.781Y118.427
X244.455Y14.211
X246.823Y56.845
X249.192Y94.742
X252.255Y14.211
X253.929Y75.794
X254.623Y56.845
X256.992Y94.742
X258.666Y118.427
X261.729Y75.794
X263.403Y33.16
X263.403Y14.211
X266.466Y118.427
X271.203Y33.16
X271.203Y14.211
X282.352Y118.427
X282.352Y94.742
X282.352Y75.794
X282.352Y56.845
X282.352Y14.211
X290.152Y118.427
X290.152Y94.742
X290.152Y75.794
X290.152Y56.845
X290.152Y14.211
T3
X75.279Y31.305
X75.279Y28.765
X75.279Y26.226
X75.279Y23.685
X75.279Y21.145
X75.279Y18.605
X75.279Y16.066
X77.819Y31.305
X77.819Y16.066
X80.359Y31.305
X80.359Y16.066
X82.899Y31.305
X82.899Y16.066
X85.439Y31.305
X85.439Y16.066
X87.979Y31.305
X87.979Y16.066
X90.519Y31.305
X90.519Y16.066
X93.059Y31.305
X93.059Y28.765
X93.059Y18.605
X93.059Y16.066
X95.599Y31.305
X95.599Y16.066
X98.139Y31.305
X98.139Y16.066
X100.679Y31.305
X100.679Y16.066
X103.219Y31.305
X103.219Y16.066
T4
G00X-5.362Y127.633
M15
G01X-6.571Y125.736
M16
G05
G00X-5.362Y103.948
M15
G01X-6.571Y102.05
M16
G05
G00X-2.993Y28.154
M15
G01X-4.202Y26.257
M16
G05
G00X-0.625Y85.0
M15
G01X-1.834Y83.102
M16
G05
G00X-0.172Y128.244
M15
G01X-0.211Y127.665
M16
G05
G00X-0.172Y104.558
M15
G01X-0.211Y103.98
M16
G05
G00X1.744Y66.051
M15
G01X0.535Y64.153
M16
G05
G00X2.197Y28.765
M15
G01X2.157Y28.186
M16
G05
G00X4.565Y85.61
M15
G01X4.526Y85.031
M16
G05
G00X6.481Y47.103
M15
G01X5.272Y45.205
M16
G05
G00X6.934Y66.662
M15
G01X6.894Y66.083
M16
G05
G00X11.671Y47.713
M15
G01X11.632Y47.135
M16
G05
G00X13.586Y103.948
M15
G01X12.377Y102.05
M16
G05
G00X18.324Y127.633
M15
G01X17.115Y125.736
M16
G05
G00X18.777Y104.558
M15
G01X18.737Y103.98
M16
G05
G00X20.692Y28.154
M15
G01X19.483Y26.257
M16
G05
G00X23.061Y85.0
M15
G01X21.852Y83.102
M16
G05
G00X23.514Y128.244
M15
G01X23.474Y127.665
M16
G05
G00X25.882Y28.765
M15
G01X25.843Y28.186
M16
G05
G00X27.798Y66.051
M15
G01X26.589Y64.153
M16
G05
G00X28.251Y85.61
M15
G01X28.211Y85.031
M16
G05
G00X32.535Y103.948
M15
G01X31.326Y102.05
M16
G05
G00X32.988Y66.662
M15
G01X32.949Y66.083
M16
G05
G00X37.272Y127.633
M15
G01X36.063Y125.736
M16
G05
G00X37.272Y47.103
M15
G01X36.063Y45.205
M16
G05
G00X37.725Y104.558
M15
G01X37.686Y103.98
M16
G05
G00X42.009Y85.0
M15
G01X40.8Y83.102
M16
G05
G00X42.462Y128.244
M15
G01X42.423Y127.665
M16
G05
G00X42.462Y47.713
M15
G01X42.423Y47.135
M16
G05
G00X44.378Y28.154
M15
G01X43.169Y26.257
M16
G05
G00X46.746Y66.051
M15
G01X45.537Y64.153
M16
G05
G00X47.199Y85.61
M15
G01X47.16Y85.031
M16
G05
G00X49.568Y28.765
M15
G01X49.528Y28.186
M16
G05
G00X51.483Y103.948
M15
G01X50.274Y102.05
M16
G05
G00X51.936Y66.662
M15
G01X51.897Y66.083
M16
G05
G00X56.22Y127.633
M15
G01X55.011Y125.736
M16
G05
G00X56.22Y47.103
M15
G01X55.011Y45.205
M16
G05
G00X56.673Y104.558
M15
G01X56.634Y103.98
M16
G05
G00X60.957Y85.0
M15
G01X59.748Y83.102
M16
G05
G00X61.411Y128.244
M15
G01X61.371Y127.665
M16
G05
G00X61.411Y47.713
M15
G01X61.371Y47.135
M16
G05
G00X65.695Y66.051
M15
G01X64.486Y64.153
M16
G05
G00X66.148Y85.61
M15
G01X66.108Y85.031
M16
G05
G00X70.432Y103.948
M15
G01X69.223Y102.05
M16
G05
G00X70.885Y66.662
M15
G01X70.845Y66.083
M16
G05
G00X75.169Y127.633
M15
G01X73.96Y125.736
M16
G05
G00X75.169Y47.103
M15
G01X73.96Y45.205
M16
G05
G00X75.622Y104.558
M15
G01X75.582Y103.98
M16
G05
G00X79.906Y85.0
M15
G01X78.697Y83.102
M16
G05
G00X80.359Y128.244
M15
G01X80.32Y127.665
M16
G05
G00X80.359Y47.713
M15
G01X80.32Y47.135
M16
G05
G00X84.643Y66.051
M15
G01X83.434Y64.153
M16
G05
G00X85.096Y85.61
M15
G01X85.057Y85.031
M16
G05
G00X89.38Y103.948
M15
G01X88.171Y102.05
M16
G05
G00X89.833Y66.662
M15
G01X89.794Y66.083
M16
G05
G00X94.117Y47.103
M15
G01X92.908Y45.205
M16
G05
G00X94.57Y104.558
M15
G01X94.531Y103.98
M16
G05
G00X98.854Y127.633
M15
G01X97.645Y125.736
M16
G05
G00X98.854Y85.0
M15
G01X97.645Y83.102
M16
G05
G00X99.307Y47.713
M15
G01X99.268Y47.135
M16
G05
G00X103.591Y66.051
M15
G01X102.382Y64.153
M16
G05
G00X104.044Y128.244
M15
G01X104.005Y127.665
M16
G05
G00X104.044Y85.61
M15
G01X104.005Y85.031
M16
G05
G00X108.328Y103.948
M15
G01X107.119Y102.05
M16
G05
G00X108.782Y66.662
M15
G01X108.742Y66.083
M16
G05
G00X113.066Y47.103
M15
G01X111.857Y45.205
M16
G05
G00X113.519Y104.558
M15
G01X113.479Y103.98
M16
G05
G00X115.434Y28.154
M15
G01X114.225Y26.257
M16
G05
G00X117.803Y127.633
M15
G01X116.594Y125.736
M16
G05
G00X117.803Y85.0
M15
G01X116.594Y83.102
M16
G05
G00X118.256Y47.713
M15
G01X118.216Y47.135
M16
G05
G00X120.624Y28.765
M15
G01X120.585Y28.186
M16
G05
G00X122.54Y66.051
M15
G01X121.331Y64.153
M16
G05
G00X122.993Y128.244
M15
G01X122.953Y127.665
M16
G05
G00X122.993Y85.61
M15
G01X122.953Y85.031
M16
G05
G00X127.277Y103.948
M15
G01X126.068Y102.05
M16
G05
G00X127.73Y66.662
M15
G01X127.691Y66.083
M16
G05
G00X132.014Y47.103
M15
G01X130.805Y45.205
M16
G05
G00X132.467Y104.558
M15
G01X132.428Y103.98
M16
G05
G00X136.751Y127.633
M15
G01X135.542Y125.736
M16
G05
G00X136.751Y85.0
M15
G01X135.542Y83.102
M16
G05
G00X137.204Y47.713
M15
G01X137.165Y47.135
M16
G05
G00X141.488Y66.051
M15
G01X140.279Y64.153
M16
G05
G00X141.941Y128.244
M15
G01X141.902Y127.665
M16
G05
G00X141.941Y85.61
M15
G01X141.902Y85.031
M16
G05
G00X146.225Y103.948
M15
G01X145.016Y102.05
M16
G05
G00X146.678Y66.662
M15
G01X146.639Y66.083
M16
G05
G00X150.962Y47.103
M15
G01X149.753Y45.205
M16
G05
G00X151.415Y104.558
M15
G01X151.376Y103.98
M16
G05
G00X155.699Y127.633
M15
G01X154.49Y125.736
M16
G05
G00X155.699Y85.0
M15
G01X154.49Y83.102
M16
G05
G00X156.153Y47.713
M15
G01X156.113Y47.135
M16
G05
G00X160.437Y66.051
M15
G01X159.228Y64.153
M16
G05
G00X160.89Y128.244
M15
G01X160.85Y127.665
M16
G05
G00X160.89Y85.61
M15
G01X160.85Y85.031
M16
G05
G00X165.174Y103.948
M15
G01X163.965Y102.05
M16
G05
G00X165.627Y66.662
M15
G01X165.587Y66.083
M16
G05
G00X169.568Y47.103
M15
G01X168.359Y45.205
M16
G05
G00X170.364Y104.558
M15
G01X170.324Y103.98
M16
G05
G00X174.648Y85.0
M15
G01X173.439Y83.102
M16
G05
G00X174.758Y47.713
M15
G01X174.719Y47.135
M16
G05
G00X179.385Y127.633
M15
G01X178.176Y125.736
M16
G05
G00X179.385Y66.051
M15
G01X178.176Y64.153
M16
G05
G00X179.838Y85.61
M15
G01X179.799Y85.031
M16
G05
G00X184.122Y103.948
M15
G01X182.913Y102.05
M16
G05
G00X184.122Y28.154
M15
G01X182.913Y26.257
M16
G05
G00X184.575Y128.244
M15
G01X184.536Y127.665
M16
G05
G00X184.575Y66.662
M15
G01X184.536Y66.083
M16
G05
G00X188.859Y47.103
M15
G01X187.65Y45.205
M16
G05
G00X189.312Y104.558
M15
G01X189.273Y103.98
M16
G05
G00X189.312Y28.765
M15
G01X189.273Y28.186
M16
G05
G00X193.596Y85.0
M15
G01X192.387Y83.102
M16
G05
G00X194.049Y47.713
M15
G01X194.01Y47.135
M16
G05
G00X198.333Y127.633
M15
G01X197.124Y125.736
M16
G05
G00X198.333Y66.051
M15
G01X197.124Y64.153
M16
G05
G00X198.786Y85.61
M15
G01X198.747Y85.031
M16
G05
G00X203.07Y103.948
M15
G01X201.861Y102.05
M16
G05
G00X203.07Y28.154
M15
G01X201.861Y26.257
M16
G05
G00X203.524Y128.244
M15
G01X203.484Y127.665
M16
G05
G00X203.524Y66.662
M15
G01X203.484Y66.083
M16
G05
G00X207.808Y47.103
M15
G01X206.599Y45.205
M16
G05
G00X208.261Y104.558
M15
G01X208.221Y103.98
M16
G05
G00X208.261Y28.765
M15
G01X208.221Y28.186
M16
G05
G00X212.545Y85.0
M15
G01X211.336Y83.102
M16
G05
G00X212.998Y47.713
M15
G01X212.958Y47.135
M16
G05
G00X217.282Y127.633
M15
G01X216.073Y125.736
M16
G05
G00X217.282Y66.051
M15
G01X216.073Y64.153
M16
G05
G00X217.735Y85.61
M15
G01X217.695Y85.031
M16
G05
G00X222.019Y103.948
M15
G01X220.81Y102.05
M16
G05
G00X222.019Y28.154
M15
G01X220.81Y26.257
M16
G05
G00X222.472Y128.244
M15
G01X222.433Y127.665
M16
G05
G00X222.472Y66.662
M15
G01X222.433Y66.083
M16
G05
G00X227.209Y104.558
M15
G01X227.17Y103.98
M16
G05
G00X227.209Y28.765
M15
G01X227.17Y28.186
M16
G05
G00X231.493Y85.0
M15
G01X230.284Y83.102
M16
G05
G00X233.862Y47.103
M15
G01X232.653Y45.205
M16
G05
G00X236.23Y127.633
M15
G01X235.021Y125.736
M16
G05
G00X236.683Y85.61
M15
G01X236.644Y85.031
M16
G05
G00X239.052Y47.713
M15
G01X239.012Y47.135
M16
G05
G00X241.42Y128.244
M15
G01X241.381Y127.665
M16
G05
G00X245.704Y23.417
M15
G01X244.495Y21.52
M16
G05
G00X248.073Y66.051
M15
G01X246.864Y64.153
M16
G05
G00X250.441Y103.948
M15
G01X249.232Y102.05
M16
G05
G00X250.895Y24.028
M15
G01X250.855Y23.449
M16
G05
G00X253.263Y66.662
M15
G01X253.224Y66.083
M16
G05
G00X255.179Y85.0
M15
G01X253.97Y83.102
M16
G05
G00X255.632Y104.558
M15
G01X255.592Y103.98
M16
G05
G00X259.916Y127.633
M15
G01X258.707Y125.736
M16
G05
G00X260.369Y85.61
M15
G01X260.329Y85.031
M16
G05
G00X264.653Y42.366
M15
G01X263.444Y40.468
M16
G05
G00X264.653Y23.417
M15
G01X263.444Y21.52
M16
G05
G00X265.106Y128.244
M15
G01X265.066Y127.665
M16
G05
G00X269.843Y42.976
M15
G01X269.804Y42.397
M16
G05
G00X269.843Y24.028
M15
G01X269.804Y23.449
M16
G05
G00X283.601Y127.633
M15
G01X282.392Y125.736
M16
G05
G00X283.601Y103.948
M15
G01X282.392Y102.05
M16
G05
G00X283.601Y85.0
M15
G01X282.392Y83.102
M16
G05
G00X283.601Y66.204
M15
G01X282.392Y64.306
M16
G05
G00X283.601Y23.417
M15
G01X282.392Y21.52
M16
G05
G00X288.791Y128.244
M15
G01X288.752Y127.665
M16
G05
G00X288.791Y104.558
M15
G01X288.752Y103.98
M16
G05
G00X288.791Y85.61
M15
G01X288.752Y85.031
M16
G05
G00X288.791Y66.814
M15
G01X288.752Y66.235
M16
G05
G00X288.791Y24.028
M15
G01X288.752Y23.449
M16
G05
M30
