M48
; DRILL file {KiCad 9.0.2} date 2025-11-06T13:36:43-0500
; FORMAT={-:-/ absolute / metric / decimal}
; #@! TF.CreationDate,2025-11-06T13:36:43-05:00
; #@! TF.GenerationSoftware,Kicad,Pcbnew,9.0.2
; #@! TF.FileFunction,NonPlated,1,2,NPTH
FMAT,2
METRIC
; #@! TA.AperFunction,NonPlated,NPTH,ComponentDrill
T1C1.702
; #@! TA.AperFunction,NonPlated,NPTH,ComponentDrill
T2C3.048
; #@! TA.AperFunction,NonPlated,NPTH,ComponentDrill
T3C3.988
%
G90
G05
T1
X-7.791Y123.165
X-7.791Y99.479
X-5.423Y23.685
X-3.054Y80.531
X-0.686Y61.582
X2.369Y123.165
X2.369Y99.479
X4.051Y42.634
X4.737Y23.685
X7.106Y80.531
X9.474Y61.582
X11.157Y99.479
X14.211Y42.634
X15.894Y123.165
X18.263Y23.685
X20.631Y80.531
X21.317Y99.479
X25.368Y61.582
X26.054Y123.165
X28.423Y23.685
X30.105Y99.479
X30.791Y80.531
X34.842Y123.165
X34.842Y42.634
X35.528Y61.582
X39.58Y80.531
X40.265Y99.479
X41.948Y23.685
X44.317Y61.582
X45.002Y123.165
X45.002Y42.634
X49.054Y99.479
X49.74Y80.531
X52.108Y23.685
X53.791Y123.165
X53.791Y42.634
X54.477Y61.582
X58.528Y80.531
X59.214Y99.479
X63.265Y61.582
X63.951Y123.165
X63.951Y42.634
X68.002Y99.479
X68.688Y80.531
X72.739Y123.165
X72.739Y42.634
X73.425Y61.582
X77.476Y80.531
X78.162Y99.479
X82.213Y61.582
X82.899Y123.165
X82.899Y42.634
X86.951Y99.479
X87.636Y80.531
X91.688Y42.634
X92.373Y61.582
X96.425Y123.165
X96.425Y80.531
X97.111Y99.479
X101.162Y61.582
X101.848Y42.634
X105.899Y99.479
X106.585Y123.165
X106.585Y80.531
X110.636Y42.634
X111.322Y61.582
X113.005Y23.685
X115.373Y123.165
X115.373Y80.531
X116.059Y99.479
X120.11Y61.582
X120.796Y42.634
X123.165Y23.685
X124.847Y99.479
X125.533Y123.165
X125.533Y80.531
X129.584Y42.634
X130.27Y61.582
X134.322Y123.165
X134.322Y80.531
X135.007Y99.479
X139.059Y61.582
X139.744Y42.634
X143.796Y99.479
X144.482Y123.165
X144.482Y80.531
X148.533Y42.634
X149.219Y61.582
X153.27Y123.165
X153.27Y80.531
X153.956Y99.479
X158.007Y61.582
X158.693Y42.634
X162.744Y99.479
X163.43Y123.165
X163.43Y80.531
X167.138Y42.634
X168.167Y61.582
X172.218Y80.531
X172.904Y99.479
X176.955Y123.165
X176.955Y61.582
X177.298Y42.634
X181.693Y99.479
X181.693Y23.685
X182.378Y80.531
X186.43Y42.634
X187.115Y123.165
X187.115Y61.582
X191.167Y80.531
X191.853Y99.479
X191.853Y23.685
X195.904Y123.165
X195.904Y61.582
X196.59Y42.634
X200.641Y99.479
X200.641Y23.685
X201.327Y80.531
X205.378Y42.634
X206.064Y123.165
X206.064Y61.582
X210.115Y80.531
X210.801Y99.479
X210.801Y23.685
X214.852Y123.165
X214.852Y61.582
X215.538Y42.634
X219.589Y99.479
X219.589Y23.685
X220.275Y80.531
X225.012Y123.165
X225.012Y61.582
X229.064Y80.531
X229.749Y99.479
X229.749Y23.685
X231.432Y42.634
X233.801Y123.165
X239.224Y80.531
X241.592Y42.634
X243.275Y18.948
X243.961Y123.165
X245.643Y61.582
X248.012Y99.479
X252.749Y80.531
X253.435Y18.948
X255.803Y61.582
X257.486Y123.165
X258.172Y99.479
X262.223Y37.897
X262.223Y18.948
X262.909Y80.531
X267.646Y123.165
X272.383Y37.897
X272.383Y18.948
X281.172Y123.165
X281.172Y99.479
X281.172Y80.531
X281.172Y61.735
X281.172Y18.948
X291.332Y123.165
X291.332Y99.479
X291.332Y80.531
X291.332Y61.735
X291.332Y18.948
T2
X-2.807Y49.619
X21.069Y49.619
X238.785Y68.567
X241.154Y106.464
X262.661Y68.567
X265.03Y106.464
T3
X-2.807Y34.379
X-2.711Y123.165
X-2.711Y99.479
X-0.343Y23.685
X2.026Y80.531
X4.394Y61.582
X9.131Y42.634
X16.237Y99.479
X20.974Y123.165
X21.069Y34.379
X23.343Y23.685
X25.711Y80.531
X30.448Y61.582
X35.185Y99.479
X39.922Y123.165
X39.922Y42.634
X44.66Y80.531
X47.028Y23.685
X49.397Y61.582
X54.134Y99.479
X58.871Y123.165
X58.871Y42.634
X63.608Y80.531
X68.345Y61.582
X73.082Y99.479
X77.819Y123.165
X77.819Y42.634
X82.556Y80.531
X87.293Y61.582
X92.031Y99.479
X96.768Y42.634
X101.505Y123.165
X101.505Y80.531
X106.242Y61.582
X110.979Y99.479
X115.716Y42.634
X118.085Y23.685
X120.453Y123.165
X120.453Y80.531
X125.19Y61.582
X129.927Y99.479
X134.664Y42.634
X139.402Y123.165
X139.402Y80.531
X144.139Y61.582
X148.876Y99.479
X153.613Y42.634
X158.35Y123.165
X158.35Y80.531
X163.087Y61.582
X167.824Y99.479
X172.218Y42.634
X177.298Y80.531
X182.035Y123.165
X182.035Y61.582
X186.773Y99.479
X186.773Y23.685
X191.51Y42.634
X196.247Y80.531
X200.984Y123.165
X200.984Y61.582
X205.721Y99.479
X205.721Y23.685
X210.458Y42.634
X215.195Y80.531
X219.932Y123.165
X219.932Y61.582
X224.669Y99.479
X224.669Y23.685
X234.144Y80.531
X236.512Y42.634
X238.785Y53.327
X238.881Y123.165
X241.154Y91.224
X248.355Y18.948
X250.723Y61.582
X253.092Y99.479
X257.829Y80.531
X262.566Y123.165
X262.661Y53.327
X265.03Y91.224
X267.303Y37.897
X267.303Y18.948
X286.252Y123.165
X286.252Y99.479
X286.252Y80.531
X286.252Y61.735
X286.252Y18.948
M30
