%TF.GenerationSoftware,KiCad,Pcbnew,9.0.2*%
%TF.CreationDate,2025-11-06T13:36:45-05:00*%
%TF.ProjectId,750-THR-Earthtyper,3735302d-5448-4522-9d45-617274687479,rev?*%
%TF.SameCoordinates,Original*%
%TF.FileFunction,Paste,Bot*%
%TF.FilePolarity,Positive*%
%FSLAX46Y46*%
G04 Gerber Fmt 4.6, Leading zero omitted, Abs format (unit mm)*
G04 Created by KiCad (PCBNEW 9.0.2) date 2025-11-06 13:36:45*
%MOMM*%
%LPD*%
G01*
G04 APERTURE LIST*
%ADD10R,1.200000X1.200000*%
G04 APERTURE END LIST*
D10*
%TO.C,D57*%
X221507250Y56845200D03*
X218357250Y56845200D03*
%TD*%
%TO.C,D33*%
X46234550Y75793600D03*
X43084550Y75793600D03*
%TD*%
%TO.C,D40*%
X178873350Y75793600D03*
X175723350Y75793600D03*
%TD*%
%TO.C,D71*%
X238087100Y37896800D03*
X234937100Y37896800D03*
%TD*%
%TO.C,D43*%
X235718550Y75793600D03*
X232568550Y75793600D03*
%TD*%
%TO.C,D50*%
X88868450Y56845200D03*
X85718450Y56845200D03*
%TD*%
%TO.C,D21*%
X93605550Y94742000D03*
X90455550Y94742000D03*
%TD*%
%TO.C,D65*%
X117291050Y37896800D03*
X114141050Y37896800D03*
%TD*%
%TO.C,D6*%
X103079750Y118427500D03*
X99929750Y118427500D03*
%TD*%
%TO.C,D14*%
X264141150Y118427500D03*
X260991150Y118427500D03*
%TD*%
%TO.C,D72*%
X1232100Y18948400D03*
X-1917900Y18948400D03*
%TD*%
%TO.C,D70*%
X212033050Y37896800D03*
X208883050Y37896800D03*
%TD*%
%TO.C,D77*%
X207295950Y18948400D03*
X204145950Y18948400D03*
%TD*%
%TO.C,D26*%
X188347550Y94742000D03*
X185197550Y94742000D03*
%TD*%
%TO.C,D75*%
X119659600Y18948400D03*
X116509600Y18948400D03*
%TD*%
%TO.C,D69*%
X193084650Y37896800D03*
X189934650Y37896800D03*
%TD*%
%TO.C,D58*%
X252298400Y56845200D03*
X249148400Y56845200D03*
%TD*%
%TO.C,D16*%
X-1136450Y94742000D03*
X-4286450Y94742000D03*
%TD*%
%TO.C,D23*%
X131502350Y94742000D03*
X128352350Y94742000D03*
%TD*%
%TO.C,D76*%
X188347550Y18948400D03*
X185197550Y18948400D03*
%TD*%
%TO.C,D68*%
X174136250Y37896800D03*
X170986250Y37896800D03*
%TD*%
%TO.C,D27*%
X207295950Y94742000D03*
X204145950Y94742000D03*
%TD*%
%TO.C,D5*%
X79394250Y118427500D03*
X76244250Y118427500D03*
%TD*%
%TO.C,D39*%
X159924950Y75793600D03*
X156774950Y75793600D03*
%TD*%
%TO.C,D45*%
X287826650Y75793600D03*
X284676650Y75793600D03*
%TD*%
%TO.C,D56*%
X202558850Y56845200D03*
X199408850Y56845200D03*
%TD*%
%TO.C,D52*%
X126765250Y56845200D03*
X123615250Y56845200D03*
%TD*%
%TO.C,D80*%
X268878250Y33159700D03*
X265728250Y33159700D03*
%TD*%
%TO.C,D28*%
X226244350Y94742000D03*
X223094350Y94742000D03*
%TD*%
%TO.C,D30*%
X287826650Y94742000D03*
X284676650Y94742000D03*
%TD*%
%TO.C,D55*%
X183610450Y56845200D03*
X180460450Y56845200D03*
%TD*%
%TO.C,D79*%
X249929850Y14211300D03*
X246779850Y14211300D03*
%TD*%
%TO.C,D29*%
X254666950Y94742000D03*
X251516950Y94742000D03*
%TD*%
%TO.C,D74*%
X48603100Y18948400D03*
X45453100Y18948400D03*
%TD*%
%TO.C,D44*%
X259404050Y75793600D03*
X256254050Y75793600D03*
%TD*%
%TO.C,D64*%
X98342650Y37896800D03*
X95192650Y37896800D03*
%TD*%
%TO.C,D24*%
X150450750Y94742000D03*
X147300750Y94742000D03*
%TD*%
%TO.C,D73*%
X24917600Y18948400D03*
X21767600Y18948400D03*
%TD*%
%TO.C,D12*%
X221507250Y118427500D03*
X218357250Y118427500D03*
%TD*%
%TO.C,D81*%
X268878250Y14211300D03*
X265728250Y14211300D03*
%TD*%
%TO.C,D78*%
X226244350Y18948400D03*
X223094350Y18948400D03*
%TD*%
%TO.C,D38*%
X140976550Y75793600D03*
X137826550Y75793600D03*
%TD*%
%TO.C,D41*%
X197821750Y75793600D03*
X194671750Y75793600D03*
%TD*%
%TO.C,D13*%
X240455650Y118427500D03*
X237305650Y118427500D03*
%TD*%
%TO.C,D10*%
X183610450Y118427500D03*
X180460450Y118427500D03*
%TD*%
%TO.C,D60*%
X10706300Y37896800D03*
X7556300Y37896800D03*
%TD*%
%TO.C,D42*%
X216770150Y75793600D03*
X213620150Y75793600D03*
%TD*%
%TO.C,D53*%
X145713650Y56845200D03*
X142563650Y56845200D03*
%TD*%
%TO.C,D61*%
X41497450Y37896800D03*
X38347450Y37896800D03*
%TD*%
%TO.C,D48*%
X50971650Y56845200D03*
X47821650Y56845200D03*
%TD*%
%TO.C,D49*%
X69920050Y56845200D03*
X66770050Y56845200D03*
%TD*%
%TO.C,D62*%
X60445850Y37896800D03*
X57295850Y37896800D03*
%TD*%
%TO.C,D19*%
X55708750Y94742000D03*
X52558750Y94742000D03*
%TD*%
%TO.C,D1*%
X-1136450Y118427500D03*
X-4286450Y118427500D03*
%TD*%
%TO.C,D20*%
X74657150Y94742000D03*
X71507150Y94742000D03*
%TD*%
%TO.C,D37*%
X122028150Y75793600D03*
X118878150Y75793600D03*
%TD*%
%TO.C,D66*%
X136239450Y37896800D03*
X133089450Y37896800D03*
%TD*%
%TO.C,D9*%
X159924950Y118427500D03*
X156774950Y118427500D03*
%TD*%
%TO.C,D59*%
X287826650Y56845200D03*
X284676650Y56845200D03*
%TD*%
%TO.C,D8*%
X140976550Y118427500D03*
X137826550Y118427500D03*
%TD*%
%TO.C,D54*%
X164662050Y56845200D03*
X161512050Y56845200D03*
%TD*%
%TO.C,D51*%
X107816850Y56845200D03*
X104666850Y56845200D03*
%TD*%
%TO.C,D18*%
X36760350Y94742000D03*
X33610350Y94742000D03*
%TD*%
%TO.C,D32*%
X27286150Y75793600D03*
X24136150Y75793600D03*
%TD*%
%TO.C,D47*%
X32023250Y56845200D03*
X28873250Y56845200D03*
%TD*%
%TO.C,D31*%
X3600650Y75793600D03*
X450650Y75793600D03*
%TD*%
%TO.C,D22*%
X112553950Y94742000D03*
X109403950Y94742000D03*
%TD*%
%TO.C,D17*%
X17811950Y94742000D03*
X14661950Y94742000D03*
%TD*%
%TO.C,D82*%
X287826650Y14211300D03*
X284676650Y14211300D03*
%TD*%
%TO.C,D15*%
X287826650Y118427500D03*
X284676650Y118427500D03*
%TD*%
%TO.C,D34*%
X65182950Y75793600D03*
X62032950Y75793600D03*
%TD*%
%TO.C,D36*%
X103079750Y75793600D03*
X99929750Y75793600D03*
%TD*%
%TO.C,D25*%
X169399150Y94742000D03*
X166249150Y94742000D03*
%TD*%
%TO.C,D63*%
X79394250Y37896800D03*
X76244250Y37896800D03*
%TD*%
%TO.C,D67*%
X155187850Y37896800D03*
X152037850Y37896800D03*
%TD*%
%TO.C,D3*%
X41497450Y118427500D03*
X38347450Y118427500D03*
%TD*%
%TO.C,D35*%
X84131350Y75793600D03*
X80981350Y75793600D03*
%TD*%
%TO.C,D46*%
X5969200Y56845200D03*
X2819200Y56845200D03*
%TD*%
%TO.C,D11*%
X202558850Y118427500D03*
X199408850Y118427500D03*
%TD*%
%TO.C,D4*%
X60445850Y118427500D03*
X57295850Y118427500D03*
%TD*%
%TO.C,D2*%
X22549050Y118427500D03*
X19399050Y118427500D03*
%TD*%
%TO.C,D7*%
X122028150Y118427500D03*
X118878150Y118427500D03*
%TD*%
M02*
