%TF.GenerationSoftware,KiCad,Pcbnew,9.0.2*%
%TF.CreationDate,2025-11-03T13:59:49-05:00*%
%TF.ProjectId,750-THR-Earthtyper,3735302d-5448-4522-9d45-617274687479,rev?*%
%TF.SameCoordinates,Original*%
%TF.FileFunction,Copper,L1,Top*%
%TF.FilePolarity,Positive*%
%FSLAX46Y46*%
G04 Gerber Fmt 4.6, Leading zero omitted, Abs format (unit mm)*
G04 Created by KiCad (PCBNEW 9.0.2) date 2025-11-03 13:59:49*
%MOMM*%
%LPD*%
G01*
G04 APERTURE LIST*
G04 Aperture macros list*
%AMHorizOval*
0 Thick line with rounded ends*
0 $1 width*
0 $2 $3 position (X,Y) of the first rounded end (center of the circle)*
0 $4 $5 position (X,Y) of the second rounded end (center of the circle)*
0 Add line between two ends*
20,1,$1,$2,$3,$4,$5,0*
0 Add two circle primitives to create the rounded ends*
1,1,$1,$2,$3*
1,1,$1,$4,$5*%
G04 Aperture macros list end*
%TA.AperFunction,ComponentPad*%
%ADD10HorizOval,2.500000X-0.604462X-0.948815X0.604462X0.948815X0*%
%TD*%
%TA.AperFunction,ComponentPad*%
%ADD11HorizOval,2.500000X-0.019724X-0.289328X0.019724X0.289328X0*%
%TD*%
%TA.AperFunction,ComponentPad*%
%ADD12R,1.600000X1.600000*%
%TD*%
%TA.AperFunction,ComponentPad*%
%ADD13C,1.600000*%
%TD*%
%TA.AperFunction,ComponentPad*%
%ADD14R,1.752600X1.752600*%
%TD*%
%TA.AperFunction,ComponentPad*%
%ADD15C,1.752600*%
%TD*%
%TA.AperFunction,ViaPad*%
%ADD16C,0.600000*%
%TD*%
%TA.AperFunction,Conductor*%
%ADD17C,0.200000*%
%TD*%
G04 APERTURE END LIST*
D10*
%TO.P,K40,1*%
%TO.N,Net-(D40-A)*%
X174043350Y84050700D03*
D11*
%TO.P,K40,2*%
%TO.N,Net-(U1-PE6)*%
X179818350Y85320700D03*
%TD*%
D10*
%TO.P,K8,1*%
%TO.N,Net-(D8-A)*%
X136146550Y126684600D03*
D11*
%TO.P,K8,2*%
%TO.N,Net-(U1-PD5)*%
X141921550Y127954600D03*
%TD*%
D10*
%TO.P,K58,1*%
%TO.N,Net-(D58-A)*%
X247468400Y65102300D03*
D11*
%TO.P,K58,2*%
%TO.N,Net-(U1-PF4)*%
X253243400Y66372300D03*
%TD*%
D10*
%TO.P,K75,1*%
%TO.N,Net-(D75-A)*%
X114829600Y27205500D03*
D11*
%TO.P,K75,2*%
%TO.N,Net-(U1-PD3)*%
X120604600Y28475500D03*
%TD*%
D10*
%TO.P,K76,1*%
%TO.N,Net-(D76-A)*%
X183517550Y27205500D03*
D11*
%TO.P,K76,2*%
%TO.N,Net-(U1-PE6)*%
X189292550Y28475500D03*
%TD*%
D10*
%TO.P,K50,1*%
%TO.N,Net-(D50-A)*%
X84038450Y65102300D03*
D11*
%TO.P,K50,2*%
%TO.N,Net-(U1-PD2)*%
X89813450Y66372300D03*
%TD*%
D10*
%TO.P,K48,1*%
%TO.N,Net-(D48-A)*%
X46141650Y65102300D03*
D11*
%TO.P,K48,2*%
%TO.N,Net-(U1-PD0)*%
X51916650Y66372300D03*
%TD*%
D10*
%TO.P,K23,1*%
%TO.N,Net-(D23-A)*%
X126672350Y102999100D03*
D11*
%TO.P,K23,2*%
%TO.N,Net-(U1-PD4)*%
X132447350Y104269100D03*
%TD*%
D10*
%TO.P,K69,1*%
%TO.N,Net-(D69-A)*%
X188254650Y46153900D03*
D11*
%TO.P,K69,2*%
%TO.N,Net-(U1-PE6)*%
X194029650Y47423900D03*
%TD*%
D10*
%TO.P,K54,1*%
%TO.N,Net-(D54-A)*%
X159832050Y65102300D03*
D11*
%TO.P,K54,2*%
%TO.N,Net-(U1-PD7)*%
X165607050Y66372300D03*
%TD*%
D10*
%TO.P,K51,1*%
%TO.N,Net-(D51-A)*%
X102986850Y65102300D03*
D11*
%TO.P,K51,2*%
%TO.N,Net-(U1-PD3)*%
X108761850Y66372300D03*
%TD*%
D10*
%TO.P,K63,1*%
%TO.N,Net-(D63-A)*%
X74564250Y46153900D03*
D11*
%TO.P,K63,2*%
%TO.N,Net-(U1-PD1)*%
X80339250Y47423900D03*
%TD*%
D10*
%TO.P,K14,1*%
%TO.N,Net-(D14-A)*%
X259311150Y126684600D03*
D11*
%TO.P,K14,2*%
%TO.N,Net-(U1-PF5)*%
X265086150Y127954600D03*
%TD*%
D10*
%TO.P,K43,1*%
%TO.N,Net-(D43-A)*%
X230888550Y84050700D03*
D11*
%TO.P,K43,2*%
%TO.N,Net-(U1-PF4)*%
X236663550Y85320700D03*
%TD*%
D10*
%TO.P,K44,1*%
%TO.N,Net-(D44-A)*%
X254574050Y84050700D03*
D11*
%TO.P,K44,2*%
%TO.N,Net-(U1-PF5)*%
X260349050Y85320700D03*
%TD*%
D10*
%TO.P,K57,1*%
%TO.N,Net-(D57-A)*%
X216677250Y65102300D03*
D11*
%TO.P,K57,2*%
%TO.N,Net-(U1-PF1)*%
X222452250Y66372300D03*
%TD*%
D10*
%TO.P,K24,1*%
%TO.N,Net-(D24-A)*%
X145620750Y102999100D03*
D11*
%TO.P,K24,2*%
%TO.N,Net-(U1-PD5)*%
X151395750Y104269100D03*
%TD*%
D10*
%TO.P,K39,1*%
%TO.N,Net-(D39-A)*%
X155094950Y84050700D03*
D11*
%TO.P,K39,2*%
%TO.N,Net-(U1-PD7)*%
X160869950Y85320700D03*
%TD*%
D10*
%TO.P,K65,1*%
%TO.N,Net-(D65-A)*%
X112461050Y46153900D03*
D11*
%TO.P,K65,2*%
%TO.N,Net-(U1-PD3)*%
X118236050Y47423900D03*
%TD*%
D10*
%TO.P,K7,1*%
%TO.N,Net-(D7-A)*%
X117198150Y126684600D03*
D11*
%TO.P,K7,2*%
%TO.N,Net-(U1-PD4)*%
X122973150Y127954600D03*
%TD*%
D10*
%TO.P,K20,1*%
%TO.N,Net-(D20-A)*%
X69827150Y102999100D03*
D11*
%TO.P,K20,2*%
%TO.N,Net-(U1-PD1)*%
X75602150Y104269100D03*
%TD*%
D10*
%TO.P,K72,1*%
%TO.N,Net-(D72-A)*%
X-3597900Y27205500D03*
D11*
%TO.P,K72,2*%
%TO.N,Net-(U1-PB7)*%
X2177100Y28475500D03*
%TD*%
D10*
%TO.P,K68,1*%
%TO.N,Net-(D68-A)*%
X168963350Y46153900D03*
D11*
%TO.P,K68,2*%
%TO.N,Net-(U1-PD7)*%
X174738350Y47423900D03*
%TD*%
D10*
%TO.P,K81,1*%
%TO.N,Net-(D81-A)*%
X264048250Y22468400D03*
D11*
%TO.P,K81,2*%
%TO.N,Net-(U1-PF5)*%
X269823250Y23738400D03*
%TD*%
D10*
%TO.P,K74,1*%
%TO.N,Net-(D74-A)*%
X43773100Y27205500D03*
D11*
%TO.P,K74,2*%
%TO.N,Net-(U1-PD0)*%
X49548100Y28475500D03*
%TD*%
D10*
%TO.P,K35,1*%
%TO.N,Net-(D35-A)*%
X79301350Y84050700D03*
D11*
%TO.P,K35,2*%
%TO.N,Net-(U1-PD2)*%
X85076350Y85320700D03*
%TD*%
D10*
%TO.P,K66,1*%
%TO.N,Net-(D66-A)*%
X131409450Y46153900D03*
D11*
%TO.P,K66,2*%
%TO.N,Net-(U1-PD4)*%
X137184450Y47423900D03*
%TD*%
D10*
%TO.P,K38,1*%
%TO.N,Net-(D38-A)*%
X136146550Y84050700D03*
D11*
%TO.P,K38,2*%
%TO.N,Net-(U1-PD5)*%
X141921550Y85320700D03*
%TD*%
D10*
%TO.P,K3,1*%
%TO.N,Net-(D3-A)*%
X36667450Y126684600D03*
D11*
%TO.P,K3,2*%
%TO.N,Net-(U1-PC7)*%
X42442450Y127954600D03*
%TD*%
D10*
%TO.P,K67,1*%
%TO.N,Net-(D67-A)*%
X150357850Y46153900D03*
D11*
%TO.P,K67,2*%
%TO.N,Net-(U1-PD5)*%
X156132850Y47423900D03*
%TD*%
D10*
%TO.P,K79,1*%
%TO.N,Net-(D79-A)*%
X245099850Y22468400D03*
D11*
%TO.P,K79,2*%
%TO.N,Net-(U1-PF4)*%
X250874850Y23738400D03*
%TD*%
D10*
%TO.P,K10,1*%
%TO.N,Net-(D10-A)*%
X178780450Y126684600D03*
D11*
%TO.P,K10,2*%
%TO.N,Net-(U1-PE6)*%
X184555450Y127954600D03*
%TD*%
D10*
%TO.P,K64,1*%
%TO.N,Net-(D64-A)*%
X93512650Y46153900D03*
D11*
%TO.P,K64,2*%
%TO.N,Net-(U1-PD2)*%
X99287650Y47423900D03*
%TD*%
D10*
%TO.P,K32,1*%
%TO.N,Net-(D32-A)*%
X22456150Y84050700D03*
D11*
%TO.P,K32,2*%
%TO.N,Net-(U1-PC7)*%
X28231150Y85320700D03*
%TD*%
D10*
%TO.P,K61,1*%
%TO.N,Net-(D61-A)*%
X36667450Y46153900D03*
D11*
%TO.P,K61,2*%
%TO.N,Net-(U1-PC7)*%
X42442450Y47423900D03*
%TD*%
D10*
%TO.P,K33,1*%
%TO.N,Net-(D33-A)*%
X41404550Y84050700D03*
D11*
%TO.P,K33,2*%
%TO.N,Net-(U1-PD0)*%
X47179550Y85320700D03*
%TD*%
D10*
%TO.P,K52,1*%
%TO.N,Net-(D52-A)*%
X121935250Y65102300D03*
D11*
%TO.P,K52,2*%
%TO.N,Net-(U1-PD4)*%
X127710250Y66372300D03*
%TD*%
D10*
%TO.P,K30,1*%
%TO.N,Net-(D30-A)*%
X282996650Y102999100D03*
D11*
%TO.P,K30,2*%
%TO.N,Net-(U1-PF6)*%
X288771650Y104269100D03*
%TD*%
D10*
%TO.P,K56,1*%
%TO.N,Net-(D56-A)*%
X197728850Y65102300D03*
D11*
%TO.P,K56,2*%
%TO.N,Net-(U1-PF0)*%
X203503850Y66372300D03*
%TD*%
D10*
%TO.P,K73,1*%
%TO.N,Net-(D73-A)*%
X20087600Y27205500D03*
D11*
%TO.P,K73,2*%
%TO.N,Net-(U1-PC6)*%
X25862600Y28475500D03*
%TD*%
D10*
%TO.P,K82,1*%
%TO.N,Net-(D82-A)*%
X282996650Y22468400D03*
D11*
%TO.P,K82,2*%
%TO.N,Net-(U1-PF6)*%
X288771650Y23738400D03*
%TD*%
D10*
%TO.P,K37,1*%
%TO.N,Net-(D37-A)*%
X117198150Y84050700D03*
D11*
%TO.P,K37,2*%
%TO.N,Net-(U1-PD4)*%
X122973150Y85320700D03*
%TD*%
D10*
%TO.P,K49,1*%
%TO.N,Net-(D49-A)*%
X65090050Y65102300D03*
D11*
%TO.P,K49,2*%
%TO.N,Net-(U1-PD1)*%
X70865050Y66372300D03*
%TD*%
D10*
%TO.P,K21,1*%
%TO.N,Net-(D21-A)*%
X88775550Y102999100D03*
D11*
%TO.P,K21,2*%
%TO.N,Net-(U1-PD2)*%
X94550550Y104269100D03*
%TD*%
D10*
%TO.P,K12,1*%
%TO.N,Net-(D12-A)*%
X216677250Y126684600D03*
D11*
%TO.P,K12,2*%
%TO.N,Net-(U1-PF1)*%
X222452250Y127954600D03*
%TD*%
D10*
%TO.P,K1,1*%
%TO.N,Net-(D1-A)*%
X-5966450Y126684600D03*
D11*
%TO.P,K1,2*%
%TO.N,Net-(U1-PB7)*%
X-191450Y127954600D03*
%TD*%
D10*
%TO.P,K77,1*%
%TO.N,Net-(D77-A)*%
X202465950Y27205500D03*
D11*
%TO.P,K77,2*%
%TO.N,Net-(U1-PF0)*%
X208240950Y28475500D03*
%TD*%
D10*
%TO.P,K29,1*%
%TO.N,Net-(D29-A)*%
X249836950Y102999100D03*
D11*
%TO.P,K29,2*%
%TO.N,Net-(U1-PF5)*%
X255611950Y104269100D03*
%TD*%
D10*
%TO.P,K18,1*%
%TO.N,Net-(D18-A)*%
X31930350Y102999100D03*
D11*
%TO.P,K18,2*%
%TO.N,Net-(U1-PC7)*%
X37705350Y104269100D03*
%TD*%
D10*
%TO.P,K13,1*%
%TO.N,Net-(D13-A)*%
X235625650Y126684600D03*
D11*
%TO.P,K13,2*%
%TO.N,Net-(U1-PF4)*%
X241400650Y127954600D03*
%TD*%
D10*
%TO.P,K70,1*%
%TO.N,Net-(D70-A)*%
X207203050Y46153900D03*
D11*
%TO.P,K70,2*%
%TO.N,Net-(U1-PF0)*%
X212978050Y47423900D03*
%TD*%
D10*
%TO.P,K41,1*%
%TO.N,Net-(D41-A)*%
X192991750Y84050700D03*
D11*
%TO.P,K41,2*%
%TO.N,Net-(U1-PF0)*%
X198766750Y85320700D03*
%TD*%
D10*
%TO.P,K60,1*%
%TO.N,Net-(D60-A)*%
X5876300Y46153900D03*
D11*
%TO.P,K60,2*%
%TO.N,Net-(U1-PB7)*%
X11651300Y47423900D03*
%TD*%
D10*
%TO.P,K15,1*%
%TO.N,Net-(D15-A)*%
X282996650Y126684600D03*
D11*
%TO.P,K15,2*%
%TO.N,Net-(U1-PF6)*%
X288771650Y127954600D03*
%TD*%
D10*
%TO.P,K22,1*%
%TO.N,Net-(D22-A)*%
X107723950Y102999100D03*
D11*
%TO.P,K22,2*%
%TO.N,Net-(U1-PD3)*%
X113498950Y104269100D03*
%TD*%
D10*
%TO.P,K9,1*%
%TO.N,Net-(D9-A)*%
X155094950Y126684600D03*
D11*
%TO.P,K9,2*%
%TO.N,Net-(U1-PD7)*%
X160869950Y127954600D03*
%TD*%
D10*
%TO.P,K27,1*%
%TO.N,Net-(D27-A)*%
X202465950Y102999100D03*
D11*
%TO.P,K27,2*%
%TO.N,Net-(U1-PF0)*%
X208240950Y104269100D03*
%TD*%
D10*
%TO.P,K45,1*%
%TO.N,Net-(D45-A)*%
X282996650Y84050700D03*
D11*
%TO.P,K45,2*%
%TO.N,Net-(U1-PF6)*%
X288771650Y85320700D03*
%TD*%
D10*
%TO.P,K4,1*%
%TO.N,Net-(D4-A)*%
X55615850Y126684600D03*
D11*
%TO.P,K4,2*%
%TO.N,Net-(U1-PD0)*%
X61390850Y127954600D03*
%TD*%
D10*
%TO.P,K34,1*%
%TO.N,Net-(D34-A)*%
X60352950Y84050700D03*
D11*
%TO.P,K34,2*%
%TO.N,Net-(U1-PD1)*%
X66127950Y85320700D03*
%TD*%
D10*
%TO.P,K42,1*%
%TO.N,Net-(D42-A)*%
X211940150Y84050700D03*
D11*
%TO.P,K42,2*%
%TO.N,Net-(U1-PF1)*%
X217715150Y85320700D03*
%TD*%
D10*
%TO.P,K62,1*%
%TO.N,Net-(D62-A)*%
X55615850Y46153900D03*
D11*
%TO.P,K62,2*%
%TO.N,Net-(U1-PD0)*%
X61390850Y47423900D03*
%TD*%
D10*
%TO.P,K26,1*%
%TO.N,Net-(D26-A)*%
X183517550Y102999100D03*
D11*
%TO.P,K26,2*%
%TO.N,Net-(U1-PE6)*%
X189292550Y104269100D03*
%TD*%
D10*
%TO.P,K19,1*%
%TO.N,Net-(D19-A)*%
X50878750Y102999100D03*
D11*
%TO.P,K19,2*%
%TO.N,Net-(U1-PD0)*%
X56653750Y104269100D03*
%TD*%
D10*
%TO.P,K55,1*%
%TO.N,Net-(D55-A)*%
X178780450Y65102300D03*
D11*
%TO.P,K55,2*%
%TO.N,Net-(U1-PE6)*%
X184555450Y66372300D03*
%TD*%
D10*
%TO.P,K31,1*%
%TO.N,Net-(D31-A)*%
X-1229350Y84050700D03*
D11*
%TO.P,K31,2*%
%TO.N,Net-(U1-PB7)*%
X4545650Y85320700D03*
%TD*%
D10*
%TO.P,K59,1*%
%TO.N,Net-(D59-A)*%
X282996650Y65254700D03*
D11*
%TO.P,K59,2*%
%TO.N,Net-(U1-PF6)*%
X288771650Y66524700D03*
%TD*%
D10*
%TO.P,K78,1*%
%TO.N,Net-(D78-A)*%
X221414350Y27205500D03*
D11*
%TO.P,K78,2*%
%TO.N,Net-(U1-PF1)*%
X227189350Y28475500D03*
%TD*%
D10*
%TO.P,K53,1*%
%TO.N,Net-(D53-A)*%
X140883650Y65102300D03*
D11*
%TO.P,K53,2*%
%TO.N,Net-(U1-PD5)*%
X146658650Y66372300D03*
%TD*%
D10*
%TO.P,K6,1*%
%TO.N,Net-(D6-A)*%
X98249750Y126684600D03*
D11*
%TO.P,K6,2*%
%TO.N,Net-(U1-PD3)*%
X104024750Y127954600D03*
%TD*%
D10*
%TO.P,K25,1*%
%TO.N,Net-(D25-A)*%
X164569150Y102999100D03*
D11*
%TO.P,K25,2*%
%TO.N,Net-(U1-PD7)*%
X170344150Y104269100D03*
%TD*%
D10*
%TO.P,K36,1*%
%TO.N,Net-(D36-A)*%
X98249750Y84050700D03*
D11*
%TO.P,K36,2*%
%TO.N,Net-(U1-PD3)*%
X104024750Y85320700D03*
%TD*%
D10*
%TO.P,K16,1*%
%TO.N,Net-(D16-A)*%
X-5966450Y102999100D03*
D11*
%TO.P,K16,2*%
%TO.N,Net-(U1-PB7)*%
X-191450Y104269100D03*
%TD*%
D10*
%TO.P,K71,1*%
%TO.N,Net-(D71-A)*%
X233257100Y46153900D03*
D11*
%TO.P,K71,2*%
%TO.N,Net-(U1-PF4)*%
X239032100Y47423900D03*
%TD*%
D10*
%TO.P,K46,1*%
%TO.N,Net-(D46-A)*%
X1139200Y65102300D03*
D11*
%TO.P,K46,2*%
%TO.N,Net-(U1-PB7)*%
X6914200Y66372300D03*
%TD*%
D10*
%TO.P,K80,1*%
%TO.N,Net-(D80-A)*%
X264048250Y41416800D03*
D11*
%TO.P,K80,2*%
%TO.N,Net-(U1-PF5)*%
X269823250Y42686800D03*
%TD*%
D10*
%TO.P,K28,1*%
%TO.N,Net-(D28-A)*%
X221414350Y102999100D03*
D11*
%TO.P,K28,2*%
%TO.N,Net-(U1-PF1)*%
X227189350Y104269100D03*
%TD*%
D10*
%TO.P,K11,1*%
%TO.N,Net-(D11-A)*%
X197728850Y126684600D03*
D11*
%TO.P,K11,2*%
%TO.N,Net-(U1-PF0)*%
X203503850Y127954600D03*
%TD*%
D10*
%TO.P,K5,1*%
%TO.N,Net-(D5-A)*%
X74564250Y126684600D03*
D11*
%TO.P,K5,2*%
%TO.N,Net-(U1-PD1)*%
X80339250Y127954600D03*
%TD*%
D10*
%TO.P,K47,1*%
%TO.N,Net-(D47-A)*%
X27193250Y65102300D03*
D11*
%TO.P,K47,2*%
%TO.N,Net-(U1-PC7)*%
X32968250Y66372300D03*
%TD*%
D10*
%TO.P,K17,1*%
%TO.N,Net-(D17-A)*%
X12981950Y102999100D03*
D11*
%TO.P,K17,2*%
%TO.N,Net-(U1-PC6)*%
X18756950Y104269100D03*
%TD*%
D10*
%TO.P,K2,1*%
%TO.N,Net-(D2-A)*%
X17719050Y126684600D03*
D11*
%TO.P,K2,2*%
%TO.N,Net-(U1-PC6)*%
X23494050Y127954600D03*
%TD*%
D12*
%TO.P,D57,1,K*%
%TO.N,Net-(D46-K)*%
X223832250Y56845200D03*
D13*
%TO.P,D57,2,A*%
%TO.N,Net-(D57-A)*%
X216032250Y56845200D03*
%TD*%
D12*
%TO.P,D33,1,K*%
%TO.N,Net-(D31-K)*%
X48559550Y75793600D03*
D13*
%TO.P,D33,2,A*%
%TO.N,Net-(D33-A)*%
X40759550Y75793600D03*
%TD*%
D12*
%TO.P,D40,1,K*%
%TO.N,Net-(D31-K)*%
X181198350Y75793600D03*
D13*
%TO.P,D40,2,A*%
%TO.N,Net-(D40-A)*%
X173398350Y75793600D03*
%TD*%
D12*
%TO.P,D71,1,K*%
%TO.N,Net-(D60-K)*%
X240412100Y37896800D03*
D13*
%TO.P,D71,2,A*%
%TO.N,Net-(D71-A)*%
X232612100Y37896800D03*
%TD*%
D12*
%TO.P,D43,1,K*%
%TO.N,Net-(D31-K)*%
X238043550Y75793600D03*
D13*
%TO.P,D43,2,A*%
%TO.N,Net-(D43-A)*%
X230243550Y75793600D03*
%TD*%
D12*
%TO.P,D50,1,K*%
%TO.N,Net-(D46-K)*%
X91193450Y56845200D03*
D13*
%TO.P,D50,2,A*%
%TO.N,Net-(D50-A)*%
X83393450Y56845200D03*
%TD*%
D12*
%TO.P,D21,1,K*%
%TO.N,Net-(D16-K)*%
X95930550Y94742000D03*
D13*
%TO.P,D21,2,A*%
%TO.N,Net-(D21-A)*%
X88130550Y94742000D03*
%TD*%
D12*
%TO.P,D65,1,K*%
%TO.N,Net-(D60-K)*%
X119616050Y37896800D03*
D13*
%TO.P,D65,2,A*%
%TO.N,Net-(D65-A)*%
X111816050Y37896800D03*
%TD*%
D12*
%TO.P,D6,1,K*%
%TO.N,Net-(D1-K)*%
X105404750Y118427500D03*
D13*
%TO.P,D6,2,A*%
%TO.N,Net-(D6-A)*%
X97604750Y118427500D03*
%TD*%
D12*
%TO.P,D14,1,K*%
%TO.N,Net-(D1-K)*%
X266466150Y118427500D03*
D13*
%TO.P,D14,2,A*%
%TO.N,Net-(D14-A)*%
X258666150Y118427500D03*
%TD*%
D12*
%TO.P,D72,1,K*%
%TO.N,Net-(D72-K)*%
X3557100Y18948400D03*
D13*
%TO.P,D72,2,A*%
%TO.N,Net-(D72-A)*%
X-4242900Y18948400D03*
%TD*%
D12*
%TO.P,D70,1,K*%
%TO.N,Net-(D60-K)*%
X214358050Y37896800D03*
D13*
%TO.P,D70,2,A*%
%TO.N,Net-(D70-A)*%
X206558050Y37896800D03*
%TD*%
D12*
%TO.P,D77,1,K*%
%TO.N,Net-(D72-K)*%
X209620950Y18948400D03*
D13*
%TO.P,D77,2,A*%
%TO.N,Net-(D77-A)*%
X201820950Y18948400D03*
%TD*%
D12*
%TO.P,D26,1,K*%
%TO.N,Net-(D16-K)*%
X190672550Y94742000D03*
D13*
%TO.P,D26,2,A*%
%TO.N,Net-(D26-A)*%
X182872550Y94742000D03*
%TD*%
D12*
%TO.P,D75,1,K*%
%TO.N,Net-(D72-K)*%
X121984600Y18948400D03*
D13*
%TO.P,D75,2,A*%
%TO.N,Net-(D75-A)*%
X114184600Y18948400D03*
%TD*%
D12*
%TO.P,D69,1,K*%
%TO.N,Net-(D60-K)*%
X195409650Y37896800D03*
D13*
%TO.P,D69,2,A*%
%TO.N,Net-(D69-A)*%
X187609650Y37896800D03*
%TD*%
D12*
%TO.P,D58,1,K*%
%TO.N,Net-(D46-K)*%
X254623400Y56845200D03*
D13*
%TO.P,D58,2,A*%
%TO.N,Net-(D58-A)*%
X246823400Y56845200D03*
%TD*%
D12*
%TO.P,D16,1,K*%
%TO.N,Net-(D16-K)*%
X1188550Y94742000D03*
D13*
%TO.P,D16,2,A*%
%TO.N,Net-(D16-A)*%
X-6611450Y94742000D03*
%TD*%
D12*
%TO.P,D23,1,K*%
%TO.N,Net-(D16-K)*%
X133827350Y94742000D03*
D13*
%TO.P,D23,2,A*%
%TO.N,Net-(D23-A)*%
X126027350Y94742000D03*
%TD*%
D12*
%TO.P,D76,1,K*%
%TO.N,Net-(D72-K)*%
X190672550Y18948400D03*
D13*
%TO.P,D76,2,A*%
%TO.N,Net-(D76-A)*%
X182872550Y18948400D03*
%TD*%
D12*
%TO.P,D68,1,K*%
%TO.N,Net-(D60-K)*%
X176461250Y37896800D03*
D13*
%TO.P,D68,2,A*%
%TO.N,Net-(D68-A)*%
X168661250Y37896800D03*
%TD*%
D12*
%TO.P,D27,1,K*%
%TO.N,Net-(D16-K)*%
X209620950Y94742000D03*
D13*
%TO.P,D27,2,A*%
%TO.N,Net-(D27-A)*%
X201820950Y94742000D03*
%TD*%
D12*
%TO.P,D5,1,K*%
%TO.N,Net-(D1-K)*%
X81719250Y118427500D03*
D13*
%TO.P,D5,2,A*%
%TO.N,Net-(D5-A)*%
X73919250Y118427500D03*
%TD*%
D12*
%TO.P,D39,1,K*%
%TO.N,Net-(D31-K)*%
X162249950Y75793600D03*
D13*
%TO.P,D39,2,A*%
%TO.N,Net-(D39-A)*%
X154449950Y75793600D03*
%TD*%
D12*
%TO.P,D45,1,K*%
%TO.N,Net-(D31-K)*%
X290151650Y75793600D03*
D13*
%TO.P,D45,2,A*%
%TO.N,Net-(D45-A)*%
X282351650Y75793600D03*
%TD*%
D12*
%TO.P,D56,1,K*%
%TO.N,Net-(D46-K)*%
X204883850Y56845200D03*
D13*
%TO.P,D56,2,A*%
%TO.N,Net-(D56-A)*%
X197083850Y56845200D03*
%TD*%
D12*
%TO.P,D52,1,K*%
%TO.N,Net-(D46-K)*%
X129090250Y56845200D03*
D13*
%TO.P,D52,2,A*%
%TO.N,Net-(D52-A)*%
X121290250Y56845200D03*
%TD*%
D12*
%TO.P,D80,1,K*%
%TO.N,Net-(D60-K)*%
X271203250Y33159700D03*
D13*
%TO.P,D80,2,A*%
%TO.N,Net-(D80-A)*%
X263403250Y33159700D03*
%TD*%
D12*
%TO.P,D28,1,K*%
%TO.N,Net-(D16-K)*%
X228569350Y94742000D03*
D13*
%TO.P,D28,2,A*%
%TO.N,Net-(D28-A)*%
X220769350Y94742000D03*
%TD*%
D14*
%TO.P,U1,1,GND*%
%TO.N,unconnected-(U1-GND-Pad1)*%
X103219250Y16065500D03*
D15*
%TO.P,U1,2,PB0*%
%TO.N,Net-(D1-K)*%
X100679250Y16065500D03*
%TO.P,U1,3,PB1*%
%TO.N,unconnected-(U1-PB1-Pad3)*%
X98139250Y16065500D03*
%TO.P,U1,4,PB2*%
%TO.N,Net-(D16-K)*%
X95599250Y16065500D03*
%TO.P,U1,5,PB3*%
%TO.N,Net-(D31-K)*%
X93059250Y16065500D03*
%TO.P,U1,6,PB7*%
%TO.N,Net-(U1-PB7)*%
X90519250Y16065500D03*
%TO.P,U1,7,PD0*%
%TO.N,Net-(U1-PD0)*%
X87979250Y16065500D03*
%TO.P,U1,8,PD1*%
%TO.N,Net-(U1-PD1)*%
X85439250Y16065500D03*
%TO.P,U1,9,PD2*%
%TO.N,Net-(U1-PD2)*%
X82899250Y16065500D03*
%TO.P,U1,10,PD3*%
%TO.N,Net-(U1-PD3)*%
X80359250Y16065500D03*
%TO.P,U1,11,PC6*%
%TO.N,Net-(U1-PC6)*%
X77819250Y16065500D03*
%TO.P,U1,12,PC7*%
%TO.N,Net-(U1-PC7)*%
X75279250Y16065500D03*
%TO.P,U1,13,PD5*%
%TO.N,Net-(U1-PD5)*%
X75279250Y18605500D03*
%TO.P,U1,14,VCC*%
%TO.N,unconnected-(U1-VCC-Pad14)*%
X75279250Y21145500D03*
%TO.P,U1,15,GND*%
%TO.N,unconnected-(U1-GND-Pad15)*%
X75279250Y23685500D03*
%TO.P,U1,16,RST*%
%TO.N,unconnected-(U1-RST-Pad16)*%
X75279250Y26225500D03*
%TO.P,U1,17,PD4*%
%TO.N,Net-(U1-PD4)*%
X75279250Y28765500D03*
%TO.P,U1,18,PD6*%
%TO.N,unconnected-(U1-PD6-Pad18)*%
X75279250Y31305500D03*
%TO.P,U1,19,PD7*%
%TO.N,Net-(U1-PD7)*%
X77819250Y31305500D03*
%TO.P,U1,20,PB4*%
%TO.N,Net-(D46-K)*%
X80359250Y31305500D03*
%TO.P,U1,21,PB5*%
%TO.N,Net-(D60-K)*%
X82899250Y31305500D03*
%TO.P,U1,22,PB6*%
%TO.N,Net-(D72-K)*%
X85439250Y31305500D03*
%TO.P,U1,23,PF7*%
%TO.N,unconnected-(U1-PF7-Pad23)*%
X87979250Y31305500D03*
%TO.P,U1,24,PF6*%
%TO.N,Net-(U1-PF6)*%
X90519250Y31305500D03*
%TO.P,U1,25,PF5*%
%TO.N,Net-(U1-PF5)*%
X93059250Y31305500D03*
%TO.P,U1,26,PF4*%
%TO.N,Net-(U1-PF4)*%
X95599250Y31305500D03*
%TO.P,U1,27,PF1*%
%TO.N,Net-(U1-PF1)*%
X98139250Y31305500D03*
%TO.P,U1,28,PF0*%
%TO.N,Net-(U1-PF0)*%
X100679250Y31305500D03*
%TO.P,U1,29,VCC*%
%TO.N,unconnected-(U1-VCC-Pad29)*%
X103219250Y31305500D03*
%TO.P,U1,30,AREF*%
%TO.N,unconnected-(U1-AREF-Pad30)*%
X93059250Y28765500D03*
%TO.P,U1,31,PE6*%
%TO.N,Net-(U1-PE6)*%
X93059250Y18605500D03*
%TD*%
D12*
%TO.P,D30,1,K*%
%TO.N,Net-(D16-K)*%
X290151650Y94742000D03*
D13*
%TO.P,D30,2,A*%
%TO.N,Net-(D30-A)*%
X282351650Y94742000D03*
%TD*%
D12*
%TO.P,D55,1,K*%
%TO.N,Net-(D46-K)*%
X185935450Y56845200D03*
D13*
%TO.P,D55,2,A*%
%TO.N,Net-(D55-A)*%
X178135450Y56845200D03*
%TD*%
D12*
%TO.P,D79,1,K*%
%TO.N,Net-(D72-K)*%
X252254850Y14211300D03*
D13*
%TO.P,D79,2,A*%
%TO.N,Net-(D79-A)*%
X244454850Y14211300D03*
%TD*%
D12*
%TO.P,D29,1,K*%
%TO.N,Net-(D16-K)*%
X256991950Y94742000D03*
D13*
%TO.P,D29,2,A*%
%TO.N,Net-(D29-A)*%
X249191950Y94742000D03*
%TD*%
D12*
%TO.P,D74,1,K*%
%TO.N,Net-(D72-K)*%
X50928100Y18948400D03*
D13*
%TO.P,D74,2,A*%
%TO.N,Net-(D74-A)*%
X43128100Y18948400D03*
%TD*%
D12*
%TO.P,D44,1,K*%
%TO.N,Net-(D31-K)*%
X261729050Y75793600D03*
D13*
%TO.P,D44,2,A*%
%TO.N,Net-(D44-A)*%
X253929050Y75793600D03*
%TD*%
D12*
%TO.P,D64,1,K*%
%TO.N,Net-(D60-K)*%
X100667650Y37896800D03*
D13*
%TO.P,D64,2,A*%
%TO.N,Net-(D64-A)*%
X92867650Y37896800D03*
%TD*%
D12*
%TO.P,D24,1,K*%
%TO.N,Net-(D16-K)*%
X152775750Y94742000D03*
D13*
%TO.P,D24,2,A*%
%TO.N,Net-(D24-A)*%
X144975750Y94742000D03*
%TD*%
D12*
%TO.P,D73,1,K*%
%TO.N,Net-(D72-K)*%
X27242600Y18948400D03*
D13*
%TO.P,D73,2,A*%
%TO.N,Net-(D73-A)*%
X19442600Y18948400D03*
%TD*%
D12*
%TO.P,D12,1,K*%
%TO.N,Net-(D1-K)*%
X223832250Y118427500D03*
D13*
%TO.P,D12,2,A*%
%TO.N,Net-(D12-A)*%
X216032250Y118427500D03*
%TD*%
D12*
%TO.P,D81,1,K*%
%TO.N,Net-(D72-K)*%
X271203250Y14211300D03*
D13*
%TO.P,D81,2,A*%
%TO.N,Net-(D81-A)*%
X263403250Y14211300D03*
%TD*%
D12*
%TO.P,D78,1,K*%
%TO.N,Net-(D72-K)*%
X228569350Y18948400D03*
D13*
%TO.P,D78,2,A*%
%TO.N,Net-(D78-A)*%
X220769350Y18948400D03*
%TD*%
D12*
%TO.P,D38,1,K*%
%TO.N,Net-(D31-K)*%
X143301550Y75793600D03*
D13*
%TO.P,D38,2,A*%
%TO.N,Net-(D38-A)*%
X135501550Y75793600D03*
%TD*%
D12*
%TO.P,D41,1,K*%
%TO.N,Net-(D31-K)*%
X200146750Y75793600D03*
D13*
%TO.P,D41,2,A*%
%TO.N,Net-(D41-A)*%
X192346750Y75793600D03*
%TD*%
D12*
%TO.P,D13,1,K*%
%TO.N,Net-(D1-K)*%
X242780650Y118427500D03*
D13*
%TO.P,D13,2,A*%
%TO.N,Net-(D13-A)*%
X234980650Y118427500D03*
%TD*%
D12*
%TO.P,D10,1,K*%
%TO.N,Net-(D1-K)*%
X185935450Y118427500D03*
D13*
%TO.P,D10,2,A*%
%TO.N,Net-(D10-A)*%
X178135450Y118427500D03*
%TD*%
D12*
%TO.P,D60,1,K*%
%TO.N,Net-(D60-K)*%
X13031300Y37896800D03*
D13*
%TO.P,D60,2,A*%
%TO.N,Net-(D60-A)*%
X5231300Y37896800D03*
%TD*%
D12*
%TO.P,D42,1,K*%
%TO.N,Net-(D31-K)*%
X219095150Y75793600D03*
D13*
%TO.P,D42,2,A*%
%TO.N,Net-(D42-A)*%
X211295150Y75793600D03*
%TD*%
D12*
%TO.P,D53,1,K*%
%TO.N,Net-(D46-K)*%
X148038650Y56845200D03*
D13*
%TO.P,D53,2,A*%
%TO.N,Net-(D53-A)*%
X140238650Y56845200D03*
%TD*%
D12*
%TO.P,D61,1,K*%
%TO.N,Net-(D60-K)*%
X43822450Y37896800D03*
D13*
%TO.P,D61,2,A*%
%TO.N,Net-(D61-A)*%
X36022450Y37896800D03*
%TD*%
D12*
%TO.P,D48,1,K*%
%TO.N,Net-(D46-K)*%
X53296650Y56845200D03*
D13*
%TO.P,D48,2,A*%
%TO.N,Net-(D48-A)*%
X45496650Y56845200D03*
%TD*%
D12*
%TO.P,D49,1,K*%
%TO.N,Net-(D46-K)*%
X72245050Y56845200D03*
D13*
%TO.P,D49,2,A*%
%TO.N,Net-(D49-A)*%
X64445050Y56845200D03*
%TD*%
D12*
%TO.P,D62,1,K*%
%TO.N,Net-(D60-K)*%
X62770850Y37896800D03*
D13*
%TO.P,D62,2,A*%
%TO.N,Net-(D62-A)*%
X54970850Y37896800D03*
%TD*%
D12*
%TO.P,D19,1,K*%
%TO.N,Net-(D16-K)*%
X58033750Y94742000D03*
D13*
%TO.P,D19,2,A*%
%TO.N,Net-(D19-A)*%
X50233750Y94742000D03*
%TD*%
D12*
%TO.P,D1,1,K*%
%TO.N,Net-(D1-K)*%
X1188550Y118427500D03*
D13*
%TO.P,D1,2,A*%
%TO.N,Net-(D1-A)*%
X-6611450Y118427500D03*
%TD*%
D12*
%TO.P,D20,1,K*%
%TO.N,Net-(D16-K)*%
X76982150Y94742000D03*
D13*
%TO.P,D20,2,A*%
%TO.N,Net-(D20-A)*%
X69182150Y94742000D03*
%TD*%
D12*
%TO.P,D37,1,K*%
%TO.N,Net-(D31-K)*%
X124353150Y75793600D03*
D13*
%TO.P,D37,2,A*%
%TO.N,Net-(D37-A)*%
X116553150Y75793600D03*
%TD*%
D12*
%TO.P,D66,1,K*%
%TO.N,Net-(D60-K)*%
X138564450Y37896800D03*
D13*
%TO.P,D66,2,A*%
%TO.N,Net-(D66-A)*%
X130764450Y37896800D03*
%TD*%
D12*
%TO.P,D9,1,K*%
%TO.N,Net-(D1-K)*%
X162249950Y118427500D03*
D13*
%TO.P,D9,2,A*%
%TO.N,Net-(D9-A)*%
X154449950Y118427500D03*
%TD*%
D12*
%TO.P,D59,1,K*%
%TO.N,Net-(D46-K)*%
X290151650Y56845200D03*
D13*
%TO.P,D59,2,A*%
%TO.N,Net-(D59-A)*%
X282351650Y56845200D03*
%TD*%
D12*
%TO.P,D8,1,K*%
%TO.N,Net-(D1-K)*%
X143301550Y118427500D03*
D13*
%TO.P,D8,2,A*%
%TO.N,Net-(D8-A)*%
X135501550Y118427500D03*
%TD*%
D12*
%TO.P,D54,1,K*%
%TO.N,Net-(D46-K)*%
X166987050Y56845200D03*
D13*
%TO.P,D54,2,A*%
%TO.N,Net-(D54-A)*%
X159187050Y56845200D03*
%TD*%
D12*
%TO.P,D51,1,K*%
%TO.N,Net-(D46-K)*%
X110141850Y56845200D03*
D13*
%TO.P,D51,2,A*%
%TO.N,Net-(D51-A)*%
X102341850Y56845200D03*
%TD*%
D12*
%TO.P,D18,1,K*%
%TO.N,Net-(D16-K)*%
X39085350Y94742000D03*
D13*
%TO.P,D18,2,A*%
%TO.N,Net-(D18-A)*%
X31285350Y94742000D03*
%TD*%
D12*
%TO.P,D32,1,K*%
%TO.N,Net-(D31-K)*%
X29611150Y75793600D03*
D13*
%TO.P,D32,2,A*%
%TO.N,Net-(D32-A)*%
X21811150Y75793600D03*
%TD*%
D12*
%TO.P,D47,1,K*%
%TO.N,Net-(D46-K)*%
X34348250Y56845200D03*
D13*
%TO.P,D47,2,A*%
%TO.N,Net-(D47-A)*%
X26548250Y56845200D03*
%TD*%
D12*
%TO.P,D31,1,K*%
%TO.N,Net-(D31-K)*%
X5925650Y75793600D03*
D13*
%TO.P,D31,2,A*%
%TO.N,Net-(D31-A)*%
X-1874350Y75793600D03*
%TD*%
D12*
%TO.P,D22,1,K*%
%TO.N,Net-(D16-K)*%
X114878950Y94742000D03*
D13*
%TO.P,D22,2,A*%
%TO.N,Net-(D22-A)*%
X107078950Y94742000D03*
%TD*%
D12*
%TO.P,D17,1,K*%
%TO.N,Net-(D16-K)*%
X20136950Y94742000D03*
D13*
%TO.P,D17,2,A*%
%TO.N,Net-(D17-A)*%
X12336950Y94742000D03*
%TD*%
D12*
%TO.P,D82,1,K*%
%TO.N,Net-(D72-K)*%
X290151650Y14211300D03*
D13*
%TO.P,D82,2,A*%
%TO.N,Net-(D82-A)*%
X282351650Y14211300D03*
%TD*%
D12*
%TO.P,D15,1,K*%
%TO.N,Net-(D1-K)*%
X290151650Y118427500D03*
D13*
%TO.P,D15,2,A*%
%TO.N,Net-(D15-A)*%
X282351650Y118427500D03*
%TD*%
D12*
%TO.P,D34,1,K*%
%TO.N,Net-(D31-K)*%
X67507950Y75793600D03*
D13*
%TO.P,D34,2,A*%
%TO.N,Net-(D34-A)*%
X59707950Y75793600D03*
%TD*%
D12*
%TO.P,D36,1,K*%
%TO.N,Net-(D31-K)*%
X105404750Y75793600D03*
D13*
%TO.P,D36,2,A*%
%TO.N,Net-(D36-A)*%
X97604750Y75793600D03*
%TD*%
D12*
%TO.P,D25,1,K*%
%TO.N,Net-(D16-K)*%
X171724150Y94742000D03*
D13*
%TO.P,D25,2,A*%
%TO.N,Net-(D25-A)*%
X163924150Y94742000D03*
%TD*%
D12*
%TO.P,D63,1,K*%
%TO.N,Net-(D60-K)*%
X81719250Y37896800D03*
D13*
%TO.P,D63,2,A*%
%TO.N,Net-(D63-A)*%
X73919250Y37896800D03*
%TD*%
D12*
%TO.P,D67,1,K*%
%TO.N,Net-(D60-K)*%
X157512850Y37896800D03*
D13*
%TO.P,D67,2,A*%
%TO.N,Net-(D67-A)*%
X149712850Y37896800D03*
%TD*%
D12*
%TO.P,D3,1,K*%
%TO.N,Net-(D1-K)*%
X43822450Y118427500D03*
D13*
%TO.P,D3,2,A*%
%TO.N,Net-(D3-A)*%
X36022450Y118427500D03*
%TD*%
D12*
%TO.P,D35,1,K*%
%TO.N,Net-(D31-K)*%
X86456350Y75793600D03*
D13*
%TO.P,D35,2,A*%
%TO.N,Net-(D35-A)*%
X78656350Y75793600D03*
%TD*%
D12*
%TO.P,D46,1,K*%
%TO.N,Net-(D46-K)*%
X8294200Y56845200D03*
D13*
%TO.P,D46,2,A*%
%TO.N,Net-(D46-A)*%
X494200Y56845200D03*
%TD*%
D12*
%TO.P,D11,1,K*%
%TO.N,Net-(D1-K)*%
X204883850Y118427500D03*
D13*
%TO.P,D11,2,A*%
%TO.N,Net-(D11-A)*%
X197083850Y118427500D03*
%TD*%
D12*
%TO.P,D4,1,K*%
%TO.N,Net-(D1-K)*%
X62770850Y118427500D03*
D13*
%TO.P,D4,2,A*%
%TO.N,Net-(D4-A)*%
X54970850Y118427500D03*
%TD*%
D12*
%TO.P,D2,1,K*%
%TO.N,Net-(D1-K)*%
X24874050Y118427500D03*
D13*
%TO.P,D2,2,A*%
%TO.N,Net-(D2-A)*%
X17074050Y118427500D03*
%TD*%
D12*
%TO.P,D7,1,K*%
%TO.N,Net-(D1-K)*%
X124353150Y118427500D03*
D13*
%TO.P,D7,2,A*%
%TO.N,Net-(D7-A)*%
X116553150Y118427500D03*
%TD*%
D16*
%TO.N,Net-(D1-K)*%
X159924950Y118427500D03*
X262484785Y118851765D03*
X39841085Y118851765D03*
X287826650Y118427500D03*
X60445850Y118427500D03*
X22549050Y118427500D03*
X131806135Y118273085D03*
X221507250Y118427500D03*
X103079750Y118427500D03*
X207640950Y118427500D03*
X77737885Y118851765D03*
X234486450Y116058950D03*
X208840950Y118427500D03*
X183610450Y118427500D03*
%TO.N,Net-(D16-K)*%
X287826650Y94742000D03*
X131502350Y94742000D03*
X207295950Y94742000D03*
X5145650Y94742000D03*
X55708750Y94742000D03*
X169399150Y94742000D03*
X187307235Y95782315D03*
X237263550Y94742000D03*
X236063550Y94742000D03*
X35103985Y95166265D03*
X110015680Y96048171D03*
X17811950Y94742000D03*
X72118880Y96048171D03*
X3945650Y94742000D03*
X254666950Y94742000D03*
X224587985Y95166265D03*
X148794385Y95166265D03*
X93605550Y94742000D03*
%TO.N,Net-(D31-K)*%
X19356950Y75793600D03*
X204103850Y75793600D03*
X140976550Y75793600D03*
X269182035Y75639185D03*
X166207050Y75793600D03*
X90413450Y75793600D03*
X89213450Y75793600D03*
X202903850Y75793600D03*
X103079750Y75793600D03*
X127110250Y75793600D03*
X165007050Y75793600D03*
X18156950Y75793600D03*
X245835660Y75300060D03*
X270423250Y75793600D03*
X128310250Y75793600D03*
X51316650Y75793600D03*
X178873350Y75793600D03*
X65182950Y75793600D03*
X52516650Y75793600D03*
X27286150Y75793600D03*
X246684190Y76148590D03*
X287826650Y75793600D03*
X216770150Y75793600D03*
%TO.N,Net-(D46-K)*%
X116058950Y56845200D03*
X175338350Y56845200D03*
X135007350Y56845200D03*
X23685500Y56845200D03*
X97110550Y56845200D03*
X78162150Y56845200D03*
X43042450Y56845200D03*
X191852550Y56845200D03*
X208856665Y57269465D03*
X59213750Y56845200D03*
X287826650Y56845200D03*
X132516905Y56723304D03*
X153955750Y54476650D03*
X172904150Y56845200D03*
X194629650Y56845200D03*
X269223250Y56845200D03*
X270423250Y56845200D03*
X99887650Y56845200D03*
X246631290Y54174560D03*
X118836050Y56738301D03*
X80939250Y56738301D03*
X156732850Y54476650D03*
X243960650Y54476650D03*
X40265350Y56845200D03*
X61990850Y56738301D03*
X26462600Y55534514D03*
X227789350Y56845200D03*
%TO.N,Net-(D60-K)*%
X59235336Y40116246D03*
X212033050Y37896800D03*
X23685500Y37896800D03*
X193084650Y37896800D03*
X238087100Y37896800D03*
X268878250Y33159700D03*
X225012250Y37896800D03*
X26462600Y37896800D03*
X117291050Y37896800D03*
X227789350Y37896800D03*
%TO.N,Net-(U1-PB7)*%
X61582300Y28422600D03*
X87636350Y28422600D03*
%TO.N,Net-(U1-PD0)*%
X88236350Y21316950D03*
%TO.N,Net-(U1-PD1)*%
X80530700Y28422600D03*
X87636350Y26054050D03*
%TO.N,Net-(U1-PD4)*%
X118049195Y35058025D03*
%TO.N,Net-(U1-PD5)*%
X118427500Y33159700D03*
%TO.N,Net-(U1-PD7)*%
X92373450Y33159700D03*
X117861813Y33759700D03*
X99479100Y33159700D03*
%TO.N,Net-(U1-PF0)*%
X101256550Y25954272D03*
X111321850Y28422600D03*
%TO.N,Net-(U1-PF1)*%
X227380800Y23685500D03*
X101256550Y23685500D03*
X97110550Y28422600D03*
X120796050Y21316950D03*
%TO.N,Net-(U1-PF4)*%
X97110550Y32559700D03*
X104216200Y33159700D03*
%TO.N,Net-(U1-PF5)*%
X101256550Y33159700D03*
X111321850Y33759700D03*
%TO.N,Net-(U1-PD2)*%
X87367450Y47371000D03*
%TD*%
D17*
%TO.N,Net-(D1-K)*%
X267567150Y117326500D02*
X286725650Y117326500D01*
X208840950Y118427500D02*
X209941950Y117326500D01*
X182509450Y117326500D02*
X183610450Y118427500D01*
X131651720Y118427500D02*
X131806135Y118273085D01*
X243881650Y117326500D02*
X260959520Y117326500D01*
X105404750Y118427500D02*
X106505750Y117326500D01*
X106505750Y117326500D02*
X123252150Y117326500D01*
X163350950Y117326500D02*
X182509450Y117326500D01*
X185935450Y118427500D02*
X187036450Y117326500D01*
X1188550Y118427500D02*
X2289550Y117326500D01*
X24874050Y118427500D02*
X25975050Y117326500D01*
X220406250Y117326500D02*
X221507250Y118427500D01*
X123252150Y117326500D02*
X124353150Y118427500D01*
X204883850Y118427500D02*
X207640950Y118427500D01*
X187036450Y117326500D02*
X203782850Y117326500D01*
X242780650Y118427500D02*
X243881650Y117326500D01*
X38315820Y117326500D02*
X39841085Y118851765D01*
X59344850Y117326500D02*
X60445850Y118427500D01*
X81719250Y118427500D02*
X84062450Y116084300D01*
X203782850Y117326500D02*
X204883850Y118427500D01*
X100736550Y116084300D02*
X103079750Y118427500D01*
X76212620Y117326500D02*
X77737885Y118851765D01*
X143301550Y118427500D02*
X144402550Y117326500D01*
X21448050Y117326500D02*
X22549050Y118427500D01*
X84062450Y116084300D02*
X100736550Y116084300D01*
X286725650Y117326500D02*
X287826650Y118427500D01*
X2289550Y117326500D02*
X21448050Y117326500D01*
X226200800Y116058950D02*
X234486450Y116058950D01*
X43822450Y118427500D02*
X44923450Y117326500D01*
X223832250Y118427500D02*
X226200800Y116058950D01*
X260959520Y117326500D02*
X262484785Y118851765D01*
X62770850Y118427500D02*
X63871850Y117326500D01*
X44923450Y117326500D02*
X59344850Y117326500D01*
X162249950Y118427500D02*
X163350950Y117326500D01*
X63871850Y117326500D02*
X76212620Y117326500D01*
X158823950Y117326500D02*
X159924950Y118427500D01*
X124353150Y118427500D02*
X131651720Y118427500D01*
X266466150Y118427500D02*
X267567150Y117326500D01*
X209941950Y117326500D02*
X220406250Y117326500D01*
X25975050Y117326500D02*
X38315820Y117326500D01*
X144402550Y117326500D02*
X158823950Y117326500D01*
%TO.N,Net-(D1-A)*%
X-5966450Y119072500D02*
X-6611450Y118427500D01*
X-5966450Y126684600D02*
X-5966450Y119072500D01*
%TO.N,Net-(D2-A)*%
X17719050Y126684600D02*
X17719050Y119072500D01*
X17719050Y119072500D02*
X17074050Y118427500D01*
%TO.N,Net-(D3-A)*%
X36667450Y119072500D02*
X36022450Y118427500D01*
X36667450Y126684600D02*
X36667450Y119072500D01*
%TO.N,Net-(D4-A)*%
X55615850Y119072500D02*
X54970850Y118427500D01*
X55615850Y126684600D02*
X55615850Y119072500D01*
%TO.N,Net-(D5-A)*%
X74564250Y126684600D02*
X74564250Y119072500D01*
X74564250Y119072500D02*
X73919250Y118427500D01*
%TO.N,Net-(D6-A)*%
X98249750Y119072500D02*
X97604750Y118427500D01*
X98249750Y126684600D02*
X98249750Y119072500D01*
%TO.N,Net-(D7-A)*%
X117198150Y119072500D02*
X116553150Y118427500D01*
X117198150Y126684600D02*
X117198150Y119072500D01*
%TO.N,Net-(D8-A)*%
X136146550Y126684600D02*
X136146550Y119072500D01*
X136146550Y119072500D02*
X135501550Y118427500D01*
%TO.N,Net-(D9-A)*%
X155094950Y119072500D02*
X154449950Y118427500D01*
X155094950Y126684600D02*
X155094950Y119072500D01*
%TO.N,Net-(D10-A)*%
X178780450Y119072500D02*
X178135450Y118427500D01*
X178780450Y126684600D02*
X178780450Y119072500D01*
%TO.N,Net-(D11-A)*%
X197728850Y126684600D02*
X197728850Y119072500D01*
X197728850Y119072500D02*
X197083850Y118427500D01*
%TO.N,Net-(D12-A)*%
X216677250Y126684600D02*
X216677250Y119072500D01*
X216677250Y119072500D02*
X216032250Y118427500D01*
%TO.N,Net-(D13-A)*%
X235625650Y126684600D02*
X235625650Y119072500D01*
X235625650Y119072500D02*
X234980650Y118427500D01*
%TO.N,Net-(D14-A)*%
X259311150Y126684600D02*
X259311150Y119072500D01*
X259311150Y119072500D02*
X258666150Y118427500D01*
%TO.N,Net-(D15-A)*%
X282996650Y119072500D02*
X282351650Y118427500D01*
X282996650Y126684600D02*
X282996650Y119072500D01*
%TO.N,Net-(D16-K)*%
X39085350Y94742000D02*
X40186350Y93641000D01*
X256991950Y94742000D02*
X258092950Y93641000D01*
X76982150Y94742000D02*
X78083150Y93641000D01*
X253565950Y93641000D02*
X254666950Y94742000D01*
X133827350Y94742000D02*
X134928350Y93641000D01*
X78083150Y93641000D02*
X92504550Y93641000D01*
X228569350Y94742000D02*
X236063550Y94742000D01*
X114878950Y94742000D02*
X115979950Y93641000D01*
X209620950Y94742000D02*
X210721950Y93641000D01*
X95930550Y94742000D02*
X97031550Y93641000D01*
X16710950Y93641000D02*
X17811950Y94742000D01*
X5145650Y94742000D02*
X6246650Y93641000D01*
X171724150Y94742000D02*
X172825150Y93641000D01*
X33578720Y93641000D02*
X35103985Y95166265D01*
X21237950Y93641000D02*
X33578720Y93641000D01*
X130401350Y93641000D02*
X131502350Y94742000D01*
X1188550Y94742000D02*
X3945650Y94742000D01*
X286725650Y93641000D02*
X287826650Y94742000D01*
X147269120Y93641000D02*
X148794385Y95166265D01*
X152775750Y94742000D02*
X153876750Y93641000D01*
X115979950Y93641000D02*
X130401350Y93641000D01*
X237263550Y94742000D02*
X238364550Y93641000D01*
X54607750Y93641000D02*
X55708750Y94742000D01*
X168298150Y93641000D02*
X169399150Y94742000D01*
X238364550Y93641000D02*
X253565950Y93641000D01*
X210721950Y93641000D02*
X223062720Y93641000D01*
X134928350Y93641000D02*
X147269120Y93641000D01*
X223062720Y93641000D02*
X224587985Y95166265D01*
X40186350Y93641000D02*
X54607750Y93641000D01*
X191773550Y93641000D02*
X206194950Y93641000D01*
X59134750Y93641000D02*
X69711709Y93641000D01*
X172825150Y93641000D02*
X185165920Y93641000D01*
X58033750Y94742000D02*
X59134750Y93641000D01*
X190672550Y94742000D02*
X191773550Y93641000D01*
X206194950Y93641000D02*
X207295950Y94742000D01*
X153876750Y93641000D02*
X168298150Y93641000D01*
X185165920Y93641000D02*
X187307235Y95782315D01*
X258092950Y93641000D02*
X286725650Y93641000D01*
X92504550Y93641000D02*
X93605550Y94742000D01*
X20136950Y94742000D02*
X21237950Y93641000D01*
X97031550Y93641000D02*
X107608509Y93641000D01*
X69711709Y93641000D02*
X72118880Y96048171D01*
X6246650Y93641000D02*
X16710950Y93641000D01*
X107608509Y93641000D02*
X110015680Y96048171D01*
%TO.N,Net-(D16-A)*%
X-5966450Y95387000D02*
X-6611450Y94742000D01*
X-5966450Y102999100D02*
X-5966450Y95387000D01*
%TO.N,Net-(D17-A)*%
X12981950Y95387000D02*
X12336950Y94742000D01*
X12981950Y102999100D02*
X12981950Y95387000D01*
%TO.N,Net-(D18-A)*%
X31930350Y102999100D02*
X31930350Y95387000D01*
X31930350Y95387000D02*
X31285350Y94742000D01*
%TO.N,Net-(D19-A)*%
X50878750Y102999100D02*
X50878750Y95387000D01*
X50878750Y95387000D02*
X50233750Y94742000D01*
%TO.N,Net-(D20-A)*%
X69827150Y95387000D02*
X69182150Y94742000D01*
X69827150Y102999100D02*
X69827150Y95387000D01*
%TO.N,Net-(D21-A)*%
X88775550Y95387000D02*
X88130550Y94742000D01*
X88775550Y102999100D02*
X88775550Y95387000D01*
%TO.N,Net-(D22-A)*%
X107723950Y95387000D02*
X107078950Y94742000D01*
X107723950Y102999100D02*
X107723950Y95387000D01*
%TO.N,Net-(D23-A)*%
X126672350Y102999100D02*
X126672350Y95387000D01*
X126672350Y95387000D02*
X126027350Y94742000D01*
%TO.N,Net-(D24-A)*%
X145620750Y95387000D02*
X144975750Y94742000D01*
X145620750Y102999100D02*
X145620750Y95387000D01*
%TO.N,Net-(D25-A)*%
X164569150Y102999100D02*
X164569150Y95387000D01*
X164569150Y95387000D02*
X163924150Y94742000D01*
%TO.N,Net-(D26-A)*%
X183517550Y95387000D02*
X182872550Y94742000D01*
X183517550Y102999100D02*
X183517550Y95387000D01*
%TO.N,Net-(D27-A)*%
X202465950Y95387000D02*
X201820950Y94742000D01*
X202465950Y102999100D02*
X202465950Y95387000D01*
%TO.N,Net-(D28-A)*%
X221414350Y95387000D02*
X220769350Y94742000D01*
X221414350Y102999100D02*
X221414350Y95387000D01*
%TO.N,Net-(D29-A)*%
X249836950Y95387000D02*
X249191950Y94742000D01*
X249836950Y102999100D02*
X249836950Y95387000D01*
%TO.N,Net-(D30-A)*%
X282996650Y102999100D02*
X282996650Y95387000D01*
X282996650Y95387000D02*
X282351650Y94742000D01*
%TO.N,Net-(D31-A)*%
X-1229350Y76438600D02*
X-1874350Y75793600D01*
X-1229350Y84050700D02*
X-1229350Y76438600D01*
%TO.N,Net-(D31-K)*%
X143301550Y75793600D02*
X144402550Y74692600D01*
X167308050Y74692600D02*
X177772350Y74692600D01*
X19356950Y75793600D02*
X20457950Y74692600D01*
X182299350Y74692600D02*
X199045750Y74692600D01*
X205204850Y74692600D02*
X215669150Y74692600D01*
X106505750Y74692600D02*
X123252150Y74692600D01*
X47458550Y74692600D02*
X48559550Y75793600D01*
X269027620Y75793600D02*
X269182035Y75639185D01*
X64081950Y74692600D02*
X65182950Y75793600D01*
X30712150Y74692600D02*
X47458550Y74692600D01*
X48559550Y75793600D02*
X51316650Y75793600D01*
X286725650Y74692600D02*
X287826650Y75793600D01*
X238043550Y75793600D02*
X245342120Y75793600D01*
X220196150Y74692600D02*
X236942550Y74692600D01*
X139875550Y74692600D02*
X140976550Y75793600D01*
X67507950Y75793600D02*
X68608950Y74692600D01*
X271524250Y74692600D02*
X286725650Y74692600D01*
X270423250Y75793600D02*
X271524250Y74692600D01*
X90413450Y75793600D02*
X91514450Y74692600D01*
X261729050Y75793600D02*
X269027620Y75793600D01*
X166207050Y75793600D02*
X167308050Y74692600D01*
X86456350Y75793600D02*
X89213450Y75793600D01*
X236942550Y74692600D02*
X238043550Y75793600D01*
X52516650Y75793600D02*
X53617650Y74692600D01*
X105404750Y75793600D02*
X106505750Y74692600D01*
X29611150Y75793600D02*
X30712150Y74692600D01*
X123252150Y74692600D02*
X124353150Y75793600D01*
X5925650Y75793600D02*
X18156950Y75793600D01*
X101978750Y74692600D02*
X103079750Y75793600D01*
X219095150Y75793600D02*
X220196150Y74692600D01*
X128310250Y75793600D02*
X129411250Y74692600D01*
X199045750Y74692600D02*
X200146750Y75793600D01*
X85355350Y74692600D02*
X86456350Y75793600D01*
X177772350Y74692600D02*
X178873350Y75793600D01*
X68608950Y74692600D02*
X85355350Y74692600D01*
X53617650Y74692600D02*
X64081950Y74692600D01*
X124353150Y75793600D02*
X127110250Y75793600D01*
X245342120Y75793600D02*
X245835660Y75300060D01*
X26185150Y74692600D02*
X27286150Y75793600D01*
X129411250Y74692600D02*
X139875550Y74692600D01*
X162249950Y75793600D02*
X165007050Y75793600D01*
X248140180Y74692600D02*
X260628050Y74692600D01*
X246684190Y76148590D02*
X248140180Y74692600D01*
X181198350Y75793600D02*
X182299350Y74692600D01*
X260628050Y74692600D02*
X261729050Y75793600D01*
X20457950Y74692600D02*
X26185150Y74692600D01*
X144402550Y74692600D02*
X161148950Y74692600D01*
X200146750Y75793600D02*
X202903850Y75793600D01*
X204103850Y75793600D02*
X205204850Y74692600D01*
X215669150Y74692600D02*
X216770150Y75793600D01*
X161148950Y74692600D02*
X162249950Y75793600D01*
X91514450Y74692600D02*
X101978750Y74692600D01*
%TO.N,Net-(D32-A)*%
X22456150Y76438600D02*
X21811150Y75793600D01*
X22456150Y84050700D02*
X22456150Y76438600D01*
%TO.N,Net-(D33-A)*%
X41404550Y84050700D02*
X41404550Y76438600D01*
X41404550Y76438600D02*
X40759550Y75793600D01*
%TO.N,Net-(D34-A)*%
X60352950Y84050700D02*
X60352950Y76438600D01*
X60352950Y76438600D02*
X59707950Y75793600D01*
%TO.N,Net-(D35-A)*%
X79301350Y76438600D02*
X78656350Y75793600D01*
X79301350Y84050700D02*
X79301350Y76438600D01*
%TO.N,Net-(D36-A)*%
X98249750Y76438600D02*
X97604750Y75793600D01*
X98249750Y84050700D02*
X98249750Y76438600D01*
%TO.N,Net-(D37-A)*%
X117198150Y84050700D02*
X117198150Y76438600D01*
X117198150Y76438600D02*
X116553150Y75793600D01*
%TO.N,Net-(D38-A)*%
X136146550Y84050700D02*
X136146550Y76438600D01*
X136146550Y76438600D02*
X135501550Y75793600D01*
%TO.N,Net-(D39-A)*%
X155094950Y84050700D02*
X155094950Y76438600D01*
X155094950Y76438600D02*
X154449950Y75793600D01*
%TO.N,Net-(D40-A)*%
X174043350Y84050700D02*
X174043350Y76438600D01*
X174043350Y76438600D02*
X173398350Y75793600D01*
%TO.N,Net-(D41-A)*%
X192991750Y84050700D02*
X192991750Y76438600D01*
X192991750Y76438600D02*
X192346750Y75793600D01*
%TO.N,Net-(D42-A)*%
X211940150Y76438600D02*
X211295150Y75793600D01*
X211940150Y84050700D02*
X211940150Y76438600D01*
%TO.N,Net-(D43-A)*%
X230888550Y84050700D02*
X230888550Y76438600D01*
X230888550Y76438600D02*
X230243550Y75793600D01*
%TO.N,Net-(D44-A)*%
X254574050Y84050700D02*
X254574050Y76438600D01*
X254574050Y76438600D02*
X253929050Y75793600D01*
%TO.N,Net-(D45-A)*%
X282996650Y84050700D02*
X282996650Y76438600D01*
X282996650Y76438600D02*
X282351650Y75793600D01*
%TO.N,Net-(D46-A)*%
X1139200Y57490200D02*
X494200Y56845200D01*
X1139200Y65102300D02*
X1139200Y57490200D01*
%TO.N,Net-(D46-K)*%
X271524250Y55744200D02*
X286725650Y55744200D01*
X62984951Y55744200D02*
X61990850Y56738301D01*
X153955750Y54476650D02*
X151587200Y56845200D01*
X185935450Y56845200D02*
X184834450Y55744200D01*
X249301930Y56845200D02*
X246631290Y54174560D01*
X59213750Y56845200D02*
X53296650Y56845200D01*
X71144050Y55744200D02*
X62984951Y55744200D01*
X132516905Y56723304D02*
X132395009Y56845200D01*
X164618500Y54476650D02*
X156732850Y54476650D01*
X191852550Y56845200D02*
X185935450Y56845200D01*
X151587200Y56845200D02*
X148038650Y56845200D01*
X176439350Y55744200D02*
X175338350Y56845200D01*
X132395009Y56845200D02*
X129090250Y56845200D01*
X204883850Y56845200D02*
X203782850Y55744200D01*
X184834450Y55744200D02*
X176439350Y55744200D01*
X34348250Y56845200D02*
X33037564Y55534514D01*
X91193450Y56845200D02*
X90092450Y55744200D01*
X254623400Y56845200D02*
X249301930Y56845200D01*
X222731250Y55744200D02*
X210381930Y55744200D01*
X270423250Y56845200D02*
X271524250Y55744200D01*
X127989250Y55744200D02*
X119830151Y55744200D01*
X78162150Y56845200D02*
X72245050Y56845200D01*
X53296650Y56845200D02*
X52195650Y55744200D01*
X52195650Y55744200D02*
X44143450Y55744200D01*
X97110550Y56845200D02*
X91193450Y56845200D01*
X243960650Y54476650D02*
X241592100Y56845200D01*
X146841939Y55648489D02*
X136204061Y55648489D01*
X33037564Y55534514D02*
X26462600Y55534514D01*
X100988650Y55744200D02*
X99887650Y56845200D01*
X254623400Y56845200D02*
X269223250Y56845200D01*
X203782850Y55744200D02*
X195730650Y55744200D01*
X81933351Y55744200D02*
X80939250Y56738301D01*
X195730650Y55744200D02*
X194629650Y56845200D01*
X223832250Y56845200D02*
X222731250Y55744200D01*
X40265350Y56845200D02*
X34348250Y56845200D01*
X119830151Y55744200D02*
X118836050Y56738301D01*
X166987050Y56845200D02*
X164618500Y54476650D01*
X210381930Y55744200D02*
X208856665Y57269465D01*
X72245050Y56845200D02*
X71144050Y55744200D01*
X241592100Y56845200D02*
X227789350Y56845200D01*
X148038650Y56845200D02*
X146841939Y55648489D01*
X109040850Y55744200D02*
X100988650Y55744200D01*
X90092450Y55744200D02*
X81933351Y55744200D01*
X136204061Y55648489D02*
X135007350Y56845200D01*
X116058950Y56845200D02*
X110141850Y56845200D01*
X286725650Y55744200D02*
X287826650Y56845200D01*
X172904150Y56845200D02*
X166987050Y56845200D01*
X110141850Y56845200D02*
X109040850Y55744200D01*
X129090250Y56845200D02*
X127989250Y55744200D01*
X23685500Y56845200D02*
X8294200Y56845200D01*
X44143450Y55744200D02*
X43042450Y56845200D01*
%TO.N,Net-(D47-A)*%
X27193250Y57490200D02*
X26548250Y56845200D01*
X27193250Y65102300D02*
X27193250Y57490200D01*
%TO.N,Net-(D48-A)*%
X46141650Y57490200D02*
X45496650Y56845200D01*
X46141650Y65102300D02*
X46141650Y57490200D01*
%TO.N,Net-(D49-A)*%
X65090050Y65102300D02*
X65090050Y57490200D01*
X65090050Y57490200D02*
X64445050Y56845200D01*
%TO.N,Net-(D50-A)*%
X84038450Y65102300D02*
X84038450Y57490200D01*
X84038450Y57490200D02*
X83393450Y56845200D01*
%TO.N,Net-(D51-A)*%
X102986850Y57490200D02*
X102341850Y56845200D01*
X102986850Y65102300D02*
X102986850Y57490200D01*
%TO.N,Net-(D52-A)*%
X121935250Y65102300D02*
X121935250Y57490200D01*
X121935250Y57490200D02*
X121290250Y56845200D01*
%TO.N,Net-(D53-A)*%
X140883650Y57490200D02*
X140238650Y56845200D01*
X140883650Y65102300D02*
X140883650Y57490200D01*
%TO.N,Net-(D54-A)*%
X159832050Y65102300D02*
X159832050Y57490200D01*
X159832050Y57490200D02*
X159187050Y56845200D01*
%TO.N,Net-(D55-A)*%
X178780450Y65102300D02*
X178780450Y57490200D01*
X178780450Y57490200D02*
X178135450Y56845200D01*
%TO.N,Net-(D56-A)*%
X197728850Y57490200D02*
X197083850Y56845200D01*
X197728850Y65102300D02*
X197728850Y57490200D01*
%TO.N,Net-(D57-A)*%
X216677250Y65102300D02*
X216677250Y57490200D01*
X216677250Y57490200D02*
X216032250Y56845200D01*
%TO.N,Net-(D58-A)*%
X247468400Y65102300D02*
X247468400Y57490200D01*
X247468400Y57490200D02*
X246823400Y56845200D01*
%TO.N,Net-(D59-A)*%
X282996650Y65254700D02*
X282996650Y57490200D01*
X282996650Y57490200D02*
X282351650Y56845200D01*
%TO.N,Net-(D60-A)*%
X5876300Y38541800D02*
X5876300Y46153900D01*
X5231300Y37896800D02*
X5876300Y38541800D01*
%TO.N,Net-(D60-K)*%
X210932050Y36795800D02*
X212033050Y37896800D01*
X119616050Y37896800D02*
X120717050Y36795800D01*
X228890350Y36795800D02*
X236986100Y36795800D01*
X100667650Y37896800D02*
X103036200Y35528250D01*
X137463450Y36795800D02*
X138564450Y37896800D01*
X138564450Y37896800D02*
X139665450Y36795800D01*
X196510650Y36795800D02*
X210932050Y36795800D01*
X240412100Y37896800D02*
X246250200Y32058700D01*
X80618250Y36795800D02*
X81719250Y37896800D01*
X246250200Y32058700D02*
X267777250Y32058700D01*
X214358050Y37896800D02*
X225012250Y37896800D01*
X81719250Y37896800D02*
X82820250Y36795800D01*
X99566650Y36795800D02*
X100667650Y37896800D01*
X63871850Y36795800D02*
X80618250Y36795800D01*
X195409650Y37896800D02*
X196510650Y36795800D01*
X82820250Y36795800D02*
X99566650Y36795800D01*
X158613850Y36795800D02*
X175360250Y36795800D01*
X13031300Y37896800D02*
X23685500Y37896800D01*
X191983650Y36795800D02*
X193084650Y37896800D01*
X120717050Y36795800D02*
X137463450Y36795800D01*
X177562250Y36795800D02*
X191983650Y36795800D01*
X50761028Y31641938D02*
X59235336Y40116246D01*
X176461250Y37896800D02*
X177562250Y36795800D01*
X156411850Y36795800D02*
X157512850Y37896800D01*
X103036200Y35528250D02*
X114922500Y35528250D01*
X157512850Y37896800D02*
X158613850Y36795800D01*
X114922500Y35528250D02*
X117291050Y37896800D01*
X42721450Y36795800D02*
X43822450Y37896800D01*
X27563600Y36795800D02*
X42721450Y36795800D01*
X175360250Y36795800D02*
X176461250Y37896800D01*
X227789350Y37896800D02*
X228890350Y36795800D01*
X139665450Y36795800D02*
X156411850Y36795800D01*
X26462600Y37896800D02*
X27563600Y36795800D01*
X62770850Y37896800D02*
X63871850Y36795800D01*
X267777250Y32058700D02*
X268878250Y33159700D01*
X50077312Y31641938D02*
X50761028Y31641938D01*
X43822450Y37896800D02*
X50077312Y31641938D01*
X236986100Y36795800D02*
X238087100Y37896800D01*
%TO.N,Net-(D61-A)*%
X36667450Y46153900D02*
X36667450Y38541800D01*
X36667450Y38541800D02*
X36022450Y37896800D01*
%TO.N,Net-(D62-A)*%
X55615850Y38541800D02*
X54970850Y37896800D01*
X55615850Y46153900D02*
X55615850Y38541800D01*
%TO.N,Net-(D63-A)*%
X74564250Y38541800D02*
X73919250Y37896800D01*
X74564250Y46153900D02*
X74564250Y38541800D01*
%TO.N,Net-(D64-A)*%
X93512650Y38541800D02*
X92867650Y37896800D01*
X93512650Y46153900D02*
X93512650Y38541800D01*
%TO.N,Net-(D65-A)*%
X112461050Y46153900D02*
X112461050Y38541800D01*
X112461050Y38541800D02*
X111816050Y37896800D01*
%TO.N,Net-(D66-A)*%
X131409450Y46153900D02*
X131409450Y38541800D01*
X131409450Y38541800D02*
X130764450Y37896800D01*
%TO.N,Net-(D67-A)*%
X150357850Y38541800D02*
X149712850Y37896800D01*
X150357850Y46153900D02*
X150357850Y38541800D01*
%TO.N,Net-(D68-A)*%
X168963350Y38198900D02*
X168661250Y37896800D01*
X168963350Y46153900D02*
X168963350Y38198900D01*
%TO.N,Net-(D69-A)*%
X188254650Y38541800D02*
X187609650Y37896800D01*
X188254650Y46153900D02*
X188254650Y38541800D01*
%TO.N,Net-(D70-A)*%
X207203050Y46153900D02*
X207203050Y38541800D01*
X207203050Y38541800D02*
X206558050Y37896800D01*
%TO.N,Net-(D71-A)*%
X233257100Y38541800D02*
X232612100Y37896800D01*
X233257100Y46153900D02*
X233257100Y38541800D01*
%TO.N,Net-(D72-A)*%
X-3597900Y19593400D02*
X-4242900Y18948400D01*
X-3597900Y27205500D02*
X-3597900Y19593400D01*
%TO.N,Net-(D72-K)*%
X26141600Y17847400D02*
X4658100Y17847400D01*
X272304250Y13110300D02*
X271203250Y14211300D01*
X189571550Y17847400D02*
X123085600Y17847400D01*
X209620950Y18948400D02*
X208519950Y17847400D01*
X290151650Y14211300D02*
X289050650Y13110300D01*
X252254850Y14211300D02*
X251153850Y13110300D01*
X28343600Y17847400D02*
X27242600Y18948400D01*
X289050650Y13110300D02*
X272304250Y13110300D01*
X228569350Y18948400D02*
X227468350Y17847400D01*
X253355850Y13110300D02*
X252254850Y14211300D01*
X69550489Y17242800D02*
X67844889Y18948400D01*
X234407450Y13110300D02*
X228569350Y18948400D01*
X4658100Y17847400D02*
X3557100Y18948400D01*
X251153850Y13110300D02*
X234407450Y13110300D01*
X49827100Y17847400D02*
X28343600Y17847400D01*
X67844889Y18948400D02*
X50928100Y18948400D01*
X271203250Y14211300D02*
X270102250Y13110300D01*
X27242600Y18948400D02*
X26141600Y17847400D01*
X191773550Y17847400D02*
X190672550Y18948400D01*
X208519950Y17847400D02*
X191773550Y17847400D01*
X121984600Y18948400D02*
X120279000Y17242800D01*
X190672550Y18948400D02*
X189571550Y17847400D01*
X123085600Y17847400D02*
X121984600Y18948400D01*
X227468350Y17847400D02*
X210721950Y17847400D01*
X210721950Y17847400D02*
X209620950Y18948400D01*
X120279000Y17242800D02*
X69550489Y17242800D01*
X50928100Y18948400D02*
X49827100Y17847400D01*
X270102250Y13110300D02*
X253355850Y13110300D01*
%TO.N,Net-(D73-A)*%
X20087600Y27205500D02*
X20087600Y19593400D01*
X20087600Y19593400D02*
X19442600Y18948400D01*
%TO.N,Net-(D74-A)*%
X43773100Y19593400D02*
X43128100Y18948400D01*
X43773100Y27205500D02*
X43773100Y19593400D01*
%TO.N,Net-(D75-A)*%
X114829600Y27205500D02*
X114829600Y19593400D01*
X114829600Y19593400D02*
X114184600Y18948400D01*
%TO.N,Net-(D76-A)*%
X183517550Y27205500D02*
X183517550Y19593400D01*
X183517550Y19593400D02*
X182872550Y18948400D01*
%TO.N,Net-(D77-A)*%
X202465950Y27205500D02*
X202465950Y19593400D01*
X202465950Y19593400D02*
X201820950Y18948400D01*
%TO.N,Net-(D78-A)*%
X221414350Y19593400D02*
X220769350Y18948400D01*
X221414350Y27205500D02*
X221414350Y19593400D01*
%TO.N,Net-(D79-A)*%
X245099850Y14856300D02*
X244454850Y14211300D01*
X245099850Y22468400D02*
X245099850Y14856300D01*
%TO.N,Net-(D80-A)*%
X264048250Y41416800D02*
X264048250Y33804700D01*
X264048250Y33804700D02*
X263403250Y33159700D01*
%TO.N,Net-(D81-A)*%
X264048250Y22468400D02*
X264048250Y14856300D01*
X264048250Y14856300D02*
X263403250Y14211300D01*
%TO.N,Net-(D82-A)*%
X282996650Y14856300D02*
X282351650Y14211300D01*
X282996650Y22468400D02*
X282996650Y14856300D01*
%TO.N,Net-(U1-PB7)*%
X87636350Y28422600D02*
X87035350Y29023600D01*
X11651300Y49931000D02*
X11651300Y47423900D01*
X77202304Y29023600D02*
X75581504Y27402800D01*
X4545650Y73616500D02*
X6914200Y71247950D01*
X4545650Y85320700D02*
X4545650Y73616500D01*
X62602100Y27402800D02*
X61582300Y28422600D01*
X75581504Y27402800D02*
X62602100Y27402800D01*
X87035350Y29023600D02*
X77202304Y29023600D01*
X11651300Y41837711D02*
X2177100Y32363511D01*
X11651300Y47423900D02*
X11651300Y41837711D01*
X4545650Y99532000D02*
X4545650Y85320700D01*
X6914200Y66372300D02*
X6914200Y54668100D01*
X-191450Y104269100D02*
X4545650Y99532000D01*
X-191450Y127954600D02*
X-191450Y104269100D01*
X6914200Y54668100D02*
X11651300Y49931000D01*
X2177100Y32363511D02*
X2177100Y28475500D01*
X6914200Y71247950D02*
X6914200Y66372300D01*
%TO.N,Net-(U1-PC6)*%
X25862600Y28475500D02*
X25862600Y55973800D01*
X18756950Y104269100D02*
X23494050Y109006200D01*
X23494050Y109006200D02*
X23494050Y127954600D01*
X25862600Y55973800D02*
X18756950Y63079450D01*
X18756950Y63079450D02*
X18756950Y104269100D01*
%TO.N,Net-(U1-PC7)*%
X28231150Y73616500D02*
X32968250Y68879400D01*
X37705350Y104269100D02*
X37705350Y96919100D01*
X32968250Y66372300D02*
X42442450Y56898100D01*
X42442450Y56898100D02*
X42442450Y47423900D01*
X37705350Y96919100D02*
X28231150Y87444900D01*
X42442450Y127954600D02*
X42442450Y120604600D01*
X37705350Y115867500D02*
X37705350Y104269100D01*
X28231150Y85320700D02*
X28231150Y73616500D01*
X32968250Y68879400D02*
X32968250Y66372300D01*
X42442450Y120604600D02*
X37705350Y115867500D01*
X28231150Y87444900D02*
X28231150Y85320700D01*
%TO.N,Net-(U1-PD0)*%
X56653750Y104269100D02*
X61390850Y109006200D01*
X51916650Y80583600D02*
X47179550Y85320700D01*
X88236350Y21316950D02*
X87230500Y22322800D01*
X51916650Y66372300D02*
X51916650Y80583600D01*
X61390850Y109006200D02*
X61390850Y127954600D01*
X49548100Y28475500D02*
X61390850Y40318250D01*
X55700800Y22322800D02*
X49548100Y28475500D01*
X61390850Y47423900D02*
X61390850Y56898100D01*
X87230500Y22322800D02*
X55700800Y22322800D01*
X61390850Y56898100D02*
X51916650Y66372300D01*
X61390850Y40318250D02*
X61390850Y47423900D01*
X56653750Y94794900D02*
X56653750Y104269100D01*
X47179550Y85320700D02*
X56653750Y94794900D01*
%TO.N,Net-(U1-PD1)*%
X75602150Y115867500D02*
X75602150Y104269100D01*
X70865050Y68879400D02*
X70865050Y66372300D01*
X80339250Y127954600D02*
X80339250Y120604600D01*
X66127950Y85320700D02*
X66127950Y73616500D01*
X66127950Y89208711D02*
X66127950Y85320700D01*
X80339250Y56898100D02*
X80339250Y47423900D01*
X75602150Y104269100D02*
X75602150Y98682911D01*
X80339250Y120604600D02*
X75602150Y115867500D01*
X70865050Y66372300D02*
X80339250Y56898100D01*
X66127950Y73616500D02*
X70865050Y68879400D01*
X87636350Y26054050D02*
X85267800Y28422600D01*
X75602150Y98682911D02*
X66127950Y89208711D01*
X85267800Y28422600D02*
X80530700Y28422600D01*
%TO.N,Net-(U1-PD3)*%
X120604600Y33351150D02*
X120604600Y28475500D01*
X118236050Y47423900D02*
X118236050Y35719700D01*
X113498950Y98682911D02*
X104024750Y89208711D01*
X104024750Y116250400D02*
X113498950Y106776200D01*
X104024750Y85320700D02*
X104024750Y73616500D01*
X118236050Y56898100D02*
X118236050Y47423900D01*
X113498950Y104269100D02*
X113498950Y98682911D01*
X108761850Y66372300D02*
X118236050Y56898100D01*
X104024750Y89208711D02*
X104024750Y85320700D01*
X104024750Y127954600D02*
X104024750Y116250400D01*
X118236050Y35719700D02*
X120604600Y33351150D01*
X113498950Y106776200D02*
X113498950Y104269100D01*
X108761850Y68879400D02*
X108761850Y66372300D01*
X104024750Y73616500D02*
X108761850Y68879400D01*
%TO.N,Net-(U1-PD4)*%
X132447350Y118480400D02*
X122973150Y127954600D01*
X95146821Y35058025D02*
X118049195Y35058025D01*
X132447350Y94794900D02*
X132447350Y104269100D01*
X75279250Y28765500D02*
X76641950Y30128200D01*
X91710500Y31621704D02*
X95146821Y35058025D01*
X127710250Y80583600D02*
X122973150Y85320700D01*
X76641950Y30128200D02*
X91710500Y30128200D01*
X122973150Y85320700D02*
X132447350Y94794900D01*
X91710500Y30128200D02*
X91710500Y31621704D01*
X137184450Y47423900D02*
X137184450Y52904289D01*
X137184450Y52904289D02*
X127710250Y62378489D01*
X127710250Y66372300D02*
X127710250Y80583600D01*
X127710250Y62378489D02*
X127710250Y66372300D01*
X132447350Y104269100D02*
X132447350Y118480400D01*
%TO.N,Net-(U1-PD5)*%
X75279250Y18605500D02*
X89662000Y18605500D01*
X101184700Y30128200D02*
X103706904Y30128200D01*
X146658650Y66372300D02*
X156132850Y56898100D01*
X151395750Y96919100D02*
X141921550Y87444900D01*
X141921550Y127954600D02*
X141921550Y113743300D01*
X141921550Y85320700D02*
X141921550Y71109400D01*
X151395750Y104269100D02*
X151395750Y96919100D01*
X141921550Y113743300D02*
X151395750Y104269100D01*
X106738404Y33159700D02*
X118427500Y33159700D01*
X141921550Y71109400D02*
X146658650Y66372300D01*
X156132850Y56898100D02*
X156132850Y47423900D01*
X103706904Y30128200D02*
X106738404Y33159700D01*
X89662000Y18605500D02*
X101184700Y30128200D01*
X141921550Y87444900D02*
X141921550Y85320700D01*
%TO.N,Net-(U1-PD7)*%
X170344150Y104269100D02*
X160869950Y113743300D01*
X170344150Y94794900D02*
X170344150Y104269100D01*
X160869950Y113743300D02*
X160869950Y127954600D01*
X77819250Y31305500D02*
X79673450Y33159700D01*
X100776425Y34457025D02*
X117164488Y34457025D01*
X174738350Y47423900D02*
X174738350Y57241000D01*
X99479100Y33159700D02*
X100776425Y34457025D01*
X165607050Y80583600D02*
X160869950Y85320700D01*
X117164488Y34457025D02*
X117861813Y33759700D01*
X165607050Y66372300D02*
X165607050Y80583600D01*
X160869950Y85320700D02*
X170344150Y94794900D01*
X79673450Y33159700D02*
X92373450Y33159700D01*
X174738350Y57241000D02*
X165607050Y66372300D01*
%TO.N,Net-(U1-PE6)*%
X179818350Y85320700D02*
X179818350Y73616500D01*
X180224667Y26595069D02*
X184420748Y30791150D01*
X184555450Y109006200D02*
X189292550Y104269100D01*
X179818350Y87444900D02*
X179818350Y85320700D01*
X184555450Y127954600D02*
X184555450Y109006200D01*
X194029650Y56898100D02*
X194029650Y47423900D01*
X104261351Y29807601D02*
X116118875Y29807601D01*
X184420748Y30791150D02*
X186976900Y30791150D01*
X119331407Y26595069D02*
X180224667Y26595069D01*
X116118875Y29807601D02*
X119331407Y26595069D01*
X179818350Y73616500D02*
X184555450Y68879400D01*
X189292550Y96919100D02*
X179818350Y87444900D01*
X189292550Y28475500D02*
X194029650Y33212600D01*
X186976900Y30791150D02*
X189292550Y28475500D01*
X189292550Y104269100D02*
X189292550Y96919100D01*
X93059250Y18605500D02*
X104261351Y29807601D01*
X194029650Y33212600D02*
X194029650Y47423900D01*
X184555450Y66372300D02*
X194029650Y56898100D01*
X184555450Y68879400D02*
X184555450Y66372300D01*
%TO.N,Net-(U1-PF0)*%
X203503850Y80583600D02*
X198766750Y85320700D01*
X208240950Y94794900D02*
X208240950Y104269100D01*
X208240950Y28475500D02*
X212978050Y33212600D01*
X212978050Y47423900D02*
X212978050Y52299550D01*
X208240950Y123217500D02*
X203503850Y127954600D01*
X101256550Y25954272D02*
X108853522Y25954272D01*
X198766750Y85320700D02*
X208240950Y94794900D01*
X208240950Y104269100D02*
X208240950Y123217500D01*
X203503850Y61773750D02*
X203503850Y66372300D01*
X212978050Y33212600D02*
X212978050Y47423900D01*
X212978050Y52299550D02*
X203503850Y61773750D01*
X108853522Y25954272D02*
X111321850Y28422600D01*
X203503850Y66372300D02*
X203503850Y80583600D01*
%TO.N,Net-(U1-PF1)*%
X227189350Y96919100D02*
X217715150Y87444900D01*
X227189350Y104269100D02*
X227189350Y96919100D01*
X222452250Y127954600D02*
X222452250Y116250400D01*
X227189350Y26245500D02*
X227189350Y28475500D01*
X107094650Y17847400D02*
X117326500Y17847400D01*
X227380800Y26054050D02*
X227189350Y26245500D01*
X217715150Y85320700D02*
X217715150Y71109400D01*
X217715150Y87444900D02*
X217715150Y85320700D01*
X227189350Y61635200D02*
X227189350Y28475500D01*
X222452250Y66372300D02*
X227189350Y61635200D01*
X227189350Y111513300D02*
X227189350Y104269100D01*
X97110550Y30276800D02*
X97110550Y28422600D01*
X227380800Y23685500D02*
X227380800Y26054050D01*
X117326500Y17847400D02*
X120796050Y21316950D01*
X217715150Y71109400D02*
X222452250Y66372300D01*
X222452250Y116250400D02*
X227189350Y111513300D01*
X101256550Y23685500D02*
X107094650Y17847400D01*
X98139250Y31305500D02*
X97110550Y30276800D01*
%TO.N,Net-(U1-PF4)*%
X253243400Y68740850D02*
X236663550Y85320700D01*
X239032100Y47423900D02*
X248378500Y56770300D01*
X248378500Y56770300D02*
X248378500Y62553589D01*
X241400650Y122368411D02*
X241400650Y127954600D01*
X97110550Y32559700D02*
X97187450Y32482800D01*
X239032100Y47423900D02*
X239032100Y35581150D01*
X239032100Y35581150D02*
X250874850Y23738400D01*
X252197211Y66372300D02*
X253243400Y66372300D01*
X103539300Y32482800D02*
X104216200Y33159700D01*
X248378500Y62553589D02*
X252197211Y66372300D01*
X97187450Y32482800D02*
X103539300Y32482800D01*
X253243400Y66372300D02*
X253243400Y68740850D01*
X236663550Y117631311D02*
X241400650Y122368411D01*
X236663550Y85320700D02*
X236663550Y117631311D01*
%TO.N,Net-(U1-PF5)*%
X255611950Y92564900D02*
X260349050Y87827800D01*
X255611950Y111130400D02*
X255611950Y104269100D01*
X260349050Y85320700D02*
X269823250Y75846500D01*
X269823250Y42686800D02*
X269823250Y23738400D01*
X260349050Y87827800D02*
X260349050Y85320700D01*
X101256550Y33159700D02*
X101856550Y33759700D01*
X265086150Y120604600D02*
X255611950Y111130400D01*
X101856550Y33759700D02*
X111321850Y33759700D01*
X265086150Y127954600D02*
X265086150Y120604600D01*
X255611950Y104269100D02*
X255611950Y92564900D01*
X269823250Y75846500D02*
X269823250Y42686800D01*
%TO.N,Net-(U1-PF6)*%
X288771650Y23738400D02*
X288771650Y66524700D01*
X288771650Y66524700D02*
X288771650Y85320700D01*
X288771650Y85320700D02*
X288771650Y104269100D01*
X288771650Y104269100D02*
X288771650Y127954600D01*
%TO.N,Net-(U1-PD2)*%
X97955549Y48756001D02*
X99287650Y47423900D01*
X94550550Y94794900D02*
X94550550Y104269100D01*
X87367450Y47371000D02*
X88752451Y48756001D01*
X89813450Y66372300D02*
X89813450Y80583600D01*
X85076350Y85320700D02*
X94550550Y94794900D01*
X88752451Y48756001D02*
X97955549Y48756001D01*
X99287650Y56898100D02*
X99287650Y47423900D01*
X89813450Y66372300D02*
X99287650Y56898100D01*
X89813450Y80583600D02*
X85076350Y85320700D01*
%TD*%
M02*
